<?xml version="1.0" encoding="UTF-8"?>
<svg id="CIPP_WHITE" data-name="CIPP WHITE" xmlns="http://www.w3.org/2000/svg" viewBox="0 0 1280 1024">
  <defs>
    <style>
      .cls-1 {
        fill: #fff;
      }

      .cls-2 {
        fill: #f47f20;
      }
    </style>
  </defs>
  <path class="cls-2" d="M1061.26,418.51c-13.3,0-25.25-9.26-28.15-22.79-17.65-82.39-84.9-129.64-184.51-129.64-42.81,0-83.36,13.7-117.27,39.62-6.39,4.9-14.52,6.88-22.46,5.5-7.93-1.38-14.91-6.01-19.27-12.78-53.97-83.69-145.54-133.65-244.95-133.65-139.53,0-256.82,92.65-285.24,225.31-3.33,15.57-18.67,25.49-34.22,22.15-15.56-3.33-25.48-18.66-22.15-34.22C137.2,218.52,277.68,107.12,444.64,107.12c109.24,0,210.57,50.35,276.46,136.03,38.47-22.8,82.01-34.72,127.49-34.72,125.42,0,217.73,67.14,240.88,175.22,3.33,15.56-6.58,30.89-22.15,34.22-2.03.43-4.07.64-6.07.64Z"/>
  <g>
    <g>
      <path class="cls-1" d="M175.7,794.02c-50.2,0-92.04-16.73-125.5-50.2C16.73,710.36,0,668.96,0,619.64s16.73-90.71,50.2-124.18c33.46-33.46,75.3-50.2,125.5-50.2,32.58,0,62.2,7.6,88.84,22.79,26.64,15.19,47.23,36,61.76,62.42l-93.8,54.16c-11.89-21.57-31.04-32.37-57.47-32.37-18.5,0-33.92,6.27-46.24,18.83-12.33,12.55-18.49,28.73-18.49,48.55s6.16,36,18.49,48.55c12.33,12.55,27.74,18.83,46.24,18.83,26.85,0,46.01-11,57.47-33.03l93.8,54.16c-14.53,26.42-35.12,47.34-61.76,62.75-26.65,15.41-56.26,23.11-88.84,23.11Z"/>
      <rect class="cls-1" x="361.32" y="454.5" width="109.64" height="330.27"/>
      <path class="cls-1" d="M727.12,445.26c44.03,0,80.8,16.74,110.31,50.2,29.94,33.47,44.91,74.87,44.91,124.18s-14.98,90.93-44.91,124.84c-29.95,33.02-66.72,49.54-110.31,49.54-40.07,0-71.34-13.21-93.8-39.63v162.49h-109.64v-462.37h109.64v30.39c22.46-26.42,53.72-39.63,93.8-39.63ZM652.48,671.82c12.77,13.21,29.49,19.82,50.2,19.82s37.42-6.61,50.2-19.82c12.77-13.64,19.16-31.04,19.16-52.18s-6.39-38.53-19.16-52.18c-12.77-13.21-29.51-19.81-50.2-19.81s-37.43,6.6-50.2,19.81c-12.77,13.65-19.16,31.04-19.16,52.18s6.38,38.54,19.16,52.18Z"/>
      <path class="cls-1" d="M1124.78,445.26c44.03,0,80.8,16.74,110.31,50.2,29.94,33.47,44.91,74.87,44.91,124.18s-14.98,90.93-44.91,124.84c-29.95,33.02-66.72,49.54-110.31,49.54-40.07,0-71.34-13.21-93.8-39.63v162.49h-109.64v-462.37h109.64v30.39c22.46-26.42,53.72-39.63,93.8-39.63ZM1050.14,671.82c12.77,13.21,29.49,19.82,50.2,19.82s37.42-6.61,50.2-19.82c12.77-13.64,19.16-31.04,19.16-52.18s-6.39-38.53-19.16-52.18c-12.77-13.21-29.51-19.81-50.2-19.81s-37.43,6.6-50.2,19.81c-12.77,13.65-19.16,31.04-19.16,52.18s6.38,38.54,19.16,52.18Z"/>
    </g>
    <circle class="cls-2" cx="416.48" cy="364.01" r="63.07"/>
  </g>
</svg>