<?xml version="1.0" encoding="UTF-8"?>
<svg id="CIPP_WHITE" data-name="CIPP WHITE" xmlns="http://www.w3.org/2000/svg" viewBox="0 0 1000 1000">
  <defs>
    <style>
      .cls-1 {
        fill: #fff;
      }

      .cls-2 {
        fill: #f47f20;
      }
    </style>
  </defs>
  <path class="cls-2" d="M829.11,426.96c-10.39,0-19.73-7.23-22-17.81-13.79-64.37-66.33-101.28-144.15-101.28-33.44,0-65.12,10.7-91.62,30.95-4.99,3.83-11.35,5.38-17.55,4.3-6.19-1.08-11.65-4.7-15.06-9.98-42.16-65.38-113.7-104.41-191.37-104.41-109,0-200.64,72.38-222.84,176.03-2.61,12.16-14.59,19.91-26.74,17.3-12.16-2.61-19.91-14.58-17.3-26.74,26.69-124.6,136.44-211.63,266.88-211.63,85.34,0,164.51,39.33,215.98,106.27,30.05-17.81,64.07-27.13,99.6-27.13,97.99,0,170.1,52.45,188.19,136.89,2.61,12.16-5.14,24.13-17.3,26.74-1.59.34-3.18.5-4.74.5Z"/>
  <g>
    <g>
      <path class="cls-1" d="M137.26,720.32c-39.22,0-71.9-13.07-98.05-39.22C13.07,654.97,0,622.62,0,584.09s13.07-70.87,39.22-97.02c26.14-26.14,58.83-39.22,98.05-39.22,25.45,0,48.59,5.93,69.41,17.81,20.81,11.87,36.9,28.12,48.25,48.76l-73.28,42.32c-9.29-16.85-24.25-25.29-44.89-25.29-14.45,0-26.5,4.9-36.13,14.71-9.63,9.8-14.45,22.44-14.45,37.93s4.81,28.12,14.45,37.93c9.63,9.8,21.67,14.71,36.13,14.71,20.98,0,35.94-8.6,44.89-25.8l73.28,42.32c-11.35,20.64-27.44,36.99-48.25,49.03-20.82,12.04-43.96,18.06-69.41,18.06Z"/>
      <rect class="cls-1" x="282.28" y="455.08" width="85.66" height="258.02"/>
      <path class="cls-1" d="M568.06,447.86c34.4,0,63.13,13.08,86.18,39.22,23.39,26.15,35.09,58.49,35.09,97.02s-11.7,71.04-35.09,97.53c-23.4,25.8-52.12,38.7-86.18,38.7-31.31,0-55.73-10.32-73.28-30.96v126.95h-85.66v-361.23h85.66v23.74c17.54-20.64,41.97-30.96,73.28-30.96ZM509.75,624.86c9.97,10.32,23.04,15.48,39.22,15.48s29.24-5.16,39.22-15.48c9.97-10.66,14.96-24.25,14.96-40.76s-4.99-30.1-14.96-40.77c-9.98-10.32-23.05-15.48-39.22-15.48s-29.24,5.16-39.22,15.48c-9.98,10.67-14.96,24.25-14.96,40.77s4.99,30.11,14.96,40.76Z"/>
      <path class="cls-1" d="M878.73,447.86c34.4,0,63.13,13.08,86.18,39.22,23.39,26.15,35.09,58.49,35.09,97.02s-11.7,71.04-35.09,97.53c-23.4,25.8-52.12,38.7-86.18,38.7-31.31,0-55.73-10.32-73.28-30.96v126.95h-85.66v-361.23h85.66v23.74c17.54-20.64,41.97-30.96,73.28-30.96ZM820.42,624.86c9.97,10.32,23.04,15.48,39.22,15.48s29.24-5.16,39.22-15.48c9.97-10.66,14.96-24.25,14.96-40.76s-4.99-30.1-14.96-40.77c-9.98-10.32-23.05-15.48-39.22-15.48s-29.24,5.16-39.22,15.48c-9.98,10.67-14.96,24.25-14.96,40.77s4.99,30.11,14.96,40.76Z"/>
    </g>
    <circle class="cls-2" cx="325.38" cy="384.39" r="49.27"/>
  </g>
</svg>