<?xml version="1.0" encoding="UTF-8"?>
<svg id="CIPP_WHITE" data-name="CIPP WHITE" xmlns="http://www.w3.org/2000/svg" viewBox="0 0 500 500">
  <defs>
    <style>
      .cls-1 {
        fill: #fff;
      }

      .cls-2 {
        fill: #f47f20;
      }
    </style>
  </defs>
  <path class="cls-2" d="M414.56,213.48c-5.19,0-9.86-3.62-11-8.9-6.89-32.18-33.16-50.64-72.07-50.64-16.72,0-32.56,5.35-45.81,15.48-2.5,1.91-5.67,2.69-8.77,2.15-3.1-.54-5.83-2.35-7.53-4.99-21.08-32.69-56.85-52.21-95.68-52.21-54.5,0-100.32,36.19-111.42,88.01-1.3,6.08-7.29,9.96-13.37,8.65-6.08-1.3-9.95-7.29-8.65-13.37,13.35-62.3,68.22-105.82,133.44-105.82,42.67,0,82.25,19.67,107.99,53.14,15.03-8.91,32.03-13.56,49.8-13.56,48.99,0,85.05,26.23,94.09,68.44,1.3,6.08-2.57,12.07-8.65,13.37-.79.17-1.59.25-2.37.25Z"/>
  <g>
    <g>
      <path class="cls-1" d="M68.63,360.16c-19.61,0-35.95-6.53-49.02-19.61-13.08-13.07-19.61-29.24-19.61-48.51s6.53-35.43,19.61-48.51c13.07-13.07,29.41-19.61,49.02-19.61,12.73,0,24.3,2.97,34.7,8.9,10.4,5.93,18.45,14.06,24.12,24.38l-36.64,21.16c-4.64-8.43-12.13-12.64-22.45-12.64-7.23,0-13.25,2.45-18.06,7.35-4.82,4.9-7.22,11.22-7.22,18.96s2.41,14.06,7.22,18.96c4.81,4.9,10.84,7.35,18.06,7.35,10.49,0,17.97-4.3,22.45-12.9l36.64,21.16c-5.68,10.32-13.72,18.49-24.12,24.51-10.41,6.02-21.98,9.03-34.7,9.03Z"/>
      <rect class="cls-1" x="141.14" y="227.54" width="42.83" height="129.01"/>
      <path class="cls-1" d="M284.03,223.93c17.2,0,31.56,6.54,43.09,19.61,11.69,13.08,17.54,29.25,17.54,48.51s-5.85,35.52-17.54,48.77c-11.7,12.9-26.06,19.35-43.09,19.35-15.65,0-27.87-5.16-36.64-15.48v63.47h-42.83v-180.61h42.83v11.87c8.77-10.32,20.99-15.48,36.64-15.48ZM254.87,312.43c4.99,5.16,11.52,7.74,19.61,7.74s14.62-2.58,19.61-7.74c4.99-5.33,7.48-12.13,7.48-20.38s-2.49-15.05-7.48-20.38c-4.99-5.16-11.53-7.74-19.61-7.74s-14.62,2.58-19.61,7.74c-4.99,5.33-7.48,12.13-7.48,20.38s2.49,15.05,7.48,20.38Z"/>
      <path class="cls-1" d="M439.37,223.93c17.2,0,31.56,6.54,43.09,19.61,11.69,13.08,17.54,29.25,17.54,48.51s-5.85,35.52-17.54,48.77c-11.7,12.9-26.06,19.35-43.09,19.35-15.65,0-27.87-5.16-36.64-15.48v63.47h-42.83v-180.61h42.83v11.87c8.77-10.32,20.99-15.48,36.64-15.48ZM410.21,312.43c4.99,5.16,11.52,7.74,19.61,7.74s14.62-2.58,19.61-7.74c4.99-5.33,7.48-12.13,7.48-20.38s-2.49-15.05-7.48-20.38c-4.99-5.16-11.53-7.74-19.61-7.74s-14.62,2.58-19.61,7.74c-4.99,5.33-7.48,12.13-7.48,20.38s2.49,15.05,7.48,20.38Z"/>
    </g>
    <circle class="cls-2" cx="162.69" cy="192.19" r="24.64"/>
  </g>
</svg>