<?xml version="1.0" encoding="UTF-8"?>
<svg id="CIPP_WHITE" data-name="CIPP WHITE" xmlns="http://www.w3.org/2000/svg" viewBox="0 0 512 512">
  <defs>
    <style>
      .cls-1 {
        fill: #fff;
      }

      .cls-2 {
        fill: #f47f20;
      }
    </style>
  </defs>
  <path class="cls-2" d="M424.5,218.61c-5.32,0-10.1-3.7-11.26-9.12-7.06-32.96-33.96-51.86-73.8-51.86-17.12,0-33.34,5.48-46.91,15.85-2.56,1.96-5.81,2.75-8.98,2.2-3.17-.55-5.97-2.41-7.71-5.11-21.59-33.48-58.22-53.46-97.98-53.46-55.81,0-102.73,37.06-114.09,90.13-1.33,6.23-7.47,10.2-13.69,8.86-6.23-1.33-10.19-7.46-8.86-13.69,13.67-63.8,69.86-108.35,136.64-108.35,43.7,0,84.23,20.14,110.58,54.41,15.39-9.12,32.8-13.89,51-13.89,50.17,0,87.09,26.86,96.35,70.09,1.33,6.23-2.63,12.36-8.86,13.69-.81.17-1.63.26-2.43.26Z"/>
  <g>
    <g>
      <path class="cls-1" d="M70.28,368.81c-20.08,0-36.82-6.69-50.2-20.08-13.39-13.38-20.08-29.94-20.08-49.67s6.69-36.28,20.08-49.67c13.38-13.38,30.12-20.08,50.2-20.08,13.03,0,24.88,3.04,35.54,9.12,10.65,6.08,18.89,14.4,24.7,24.97l-37.52,21.67c-4.76-8.63-12.42-12.95-22.99-12.95-7.4,0-13.57,2.51-18.5,7.53-4.93,5.02-7.4,11.49-7.4,19.42s2.46,14.4,7.4,19.42c4.93,5.02,11.1,7.53,18.5,7.53,10.74,0,18.4-4.4,22.99-13.21l37.52,21.67c-5.81,10.57-14.05,18.94-24.7,25.1-10.66,6.16-22.51,9.25-35.54,9.25Z"/>
      <rect class="cls-1" x="144.53" y="233" width="43.86" height="132.11"/>
      <path class="cls-1" d="M290.85,229.3c17.61,0,32.32,6.7,44.12,20.08,11.97,13.39,17.96,29.95,17.96,49.67s-5.99,36.37-17.96,49.94c-11.98,13.21-26.69,19.81-44.12,19.81-16.03,0-28.54-5.28-37.52-15.85v65h-43.86v-184.95h43.86v12.15c8.98-10.57,21.49-15.85,37.52-15.85ZM260.99,319.93c5.11,5.28,11.8,7.93,20.08,7.93s14.97-2.64,20.08-7.93c5.11-5.46,7.66-12.42,7.66-20.87s-2.55-15.41-7.66-20.87c-5.11-5.28-11.8-7.93-20.08-7.93s-14.97,2.64-20.08,7.93c-5.11,5.46-7.66,12.42-7.66,20.87s2.55,15.42,7.66,20.87Z"/>
      <path class="cls-1" d="M449.91,229.3c17.61,0,32.32,6.7,44.12,20.08,11.97,13.39,17.96,29.95,17.96,49.67s-5.99,36.37-17.96,49.94c-11.98,13.21-26.69,19.81-44.12,19.81-16.03,0-28.54-5.28-37.52-15.85v65h-43.86v-184.95h43.86v12.15c8.98-10.57,21.49-15.85,37.52-15.85ZM420.06,319.93c5.11,5.28,11.8,7.93,20.08,7.93s14.97-2.64,20.08-7.93c5.11-5.46,7.66-12.42,7.66-20.87s-2.55-15.41-7.66-20.87c-5.11-5.28-11.8-7.93-20.08-7.93s-14.97,2.64-20.08,7.93c-5.11,5.46-7.66,12.42-7.66,20.87s2.55,15.42,7.66,20.87Z"/>
    </g>
    <circle class="cls-2" cx="166.59" cy="196.81" r="25.23"/>
  </g>
</svg>