<?xml version="1.0" encoding="UTF-8"?>
<svg id="CIPP_WHITE" data-name="CIPP WHITE" xmlns="http://www.w3.org/2000/svg" viewBox="0 0 820 312">
  <defs>
    <style>
      .cls-1 {
        fill: #fff;
      }

      .cls-2 {
        fill: #f47f20;
      }
    </style>
  </defs>
  <path class="cls-2" d="M572.31,119.98c-5.12,0-9.73-3.57-10.85-8.78-6.8-31.75-32.71-49.95-71.09-49.95-16.49,0-32.12,5.28-45.19,15.27-2.46,1.89-5.6,2.65-8.65,2.12-3.05-.53-5.75-2.32-7.43-4.92-20.79-32.25-56.08-51.5-94.38-51.5-53.76,0-98.95,35.7-109.9,86.81-1.28,6-7.19,9.82-13.19,8.53-6-1.28-9.82-7.19-8.53-13.19C216.27,42.92,270.4,0,334.73,0c42.09,0,81.13,19.4,106.52,52.41,14.82-8.78,31.6-13.38,49.12-13.38,48.33,0,83.89,25.87,92.81,67.51,1.28,6-2.54,11.9-8.53,13.19-.78.17-1.57.25-2.34.25Z"/>
  <g>
    <g>
      <path class="cls-1" d="M231.1,264.66c-19.34,0-35.46-6.44-48.35-19.34-12.9-12.89-19.34-28.84-19.34-47.85s6.44-34.95,19.34-47.85c12.89-12.89,29.01-19.34,48.35-19.34,12.55,0,23.96,2.93,34.23,8.78,10.26,5.85,18.2,13.87,23.8,24.05l-36.14,20.87c-4.58-8.31-11.96-12.47-22.14-12.47-7.13,0-13.07,2.42-17.82,7.25-4.75,4.83-7.12,11.07-7.12,18.71s2.37,13.87,7.12,18.71c4.75,4.83,10.69,7.25,17.82,7.25,10.35,0,17.73-4.24,22.14-12.73l36.14,20.87c-5.6,10.18-13.53,18.24-23.8,24.18-10.27,5.94-21.68,8.91-34.23,8.91Z"/>
      <rect class="cls-1" x="302.62" y="133.85" width="42.25" height="127.25"/>
      <path class="cls-1" d="M443.57,130.28c16.96,0,31.13,6.45,42.5,19.34,11.53,12.9,17.3,28.85,17.3,47.85s-5.77,35.04-17.3,48.1c-11.54,12.72-25.71,19.09-42.5,19.09-15.44,0-27.49-5.09-36.14-15.27v62.61h-42.25v-178.15h42.25v11.71c8.65-10.18,20.7-15.27,36.14-15.27ZM414.81,217.58c4.92,5.09,11.36,7.64,19.34,7.64s14.42-2.55,19.34-7.64c4.92-5.26,7.38-11.96,7.38-20.1s-2.46-14.85-7.38-20.11c-4.92-5.09-11.37-7.63-19.34-7.63s-14.42,2.54-19.34,7.63c-4.92,5.26-7.38,11.96-7.38,20.11s2.46,14.85,7.38,20.1Z"/>
      <path class="cls-1" d="M596.79,130.28c16.96,0,31.13,6.45,42.5,19.34,11.53,12.9,17.3,28.85,17.3,47.85s-5.77,35.04-17.3,48.1c-11.54,12.72-25.71,19.09-42.5,19.09-15.44,0-27.49-5.09-36.14-15.27v62.61h-42.25v-178.15h42.25v11.71c8.65-10.18,20.7-15.27,36.14-15.27ZM568.03,217.58c4.92,5.09,11.36,7.64,19.34,7.64s14.42-2.55,19.34-7.64c4.92-5.26,7.38-11.96,7.38-20.1s-2.46-14.85-7.38-20.11c-4.92-5.09-11.37-7.63-19.34-7.63s-14.42,2.54-19.34,7.63c-4.92,5.26-7.38,11.96-7.38,20.11s2.46,14.85,7.38,20.1Z"/>
    </g>
    <circle class="cls-2" cx="323.88" cy="98.98" r="24.3"/>
  </g>
</svg>