<?xml version="1.0" encoding="UTF-8"?>
<svg id="CIPP_WHITE" data-name="CIPP WHITE" xmlns="http://www.w3.org/2000/svg" viewBox="0 0 300 100">
  <defs>
    <style>
      .cls-1 {
        fill: #fff;
      }

      .cls-2 {
        fill: #f47f20;
      }
    </style>
  </defs>
  <path class="cls-2" d="M202.02,38.45c-1.64,0-3.12-1.14-3.48-2.81-2.18-10.18-10.48-16.01-22.79-16.01-5.29,0-10.29,1.69-14.48,4.89-.79.6-1.79.85-2.77.68-.98-.17-1.84-.74-2.38-1.58-6.66-10.34-17.97-16.5-30.25-16.5-17.23,0-31.72,11.44-35.23,27.83-.41,1.92-2.31,3.15-4.23,2.74-1.92-.41-3.15-2.3-2.74-4.23C87.91,13.76,105.26,0,125.87,0c13.49,0,26,6.22,34.14,16.8,4.75-2.82,10.13-4.29,15.74-4.29,15.49,0,26.89,8.29,29.75,21.64.41,1.92-.81,3.81-2.74,4.23-.25.05-.5.08-.75.08Z"/>
  <g>
    <g>
      <path class="cls-1" d="M92.66,84.83c-6.2,0-11.37-2.07-15.5-6.2-4.13-4.13-6.2-9.24-6.2-15.34s2.07-11.2,6.2-15.34,9.3-6.2,15.5-6.2c4.02,0,7.68.94,10.97,2.81,3.29,1.88,5.83,4.45,7.63,7.71l-11.58,6.69c-1.47-2.66-3.83-4-7.1-4-2.28,0-4.19.77-5.71,2.32-1.52,1.55-2.28,3.55-2.28,6s.76,4.45,2.28,6c1.52,1.55,3.43,2.32,5.71,2.32,3.32,0,5.68-1.36,7.1-4.08l11.58,6.69c-1.79,3.26-4.34,5.85-7.63,7.75-3.29,1.9-6.95,2.85-10.97,2.85Z"/>
      <rect class="cls-1" x="115.58" y="42.9" width="13.54" height="40.79"/>
      <path class="cls-1" d="M160.76,41.76c5.44,0,9.98,2.07,13.62,6.2,3.7,4.13,5.55,9.25,5.55,15.34s-1.85,11.23-5.55,15.42c-3.7,4.08-8.24,6.12-13.62,6.12-4.95,0-8.81-1.63-11.58-4.89v20.07h-13.54v-57.1h13.54v3.75c2.77-3.26,6.63-4.89,11.58-4.89ZM151.54,69.74c1.58,1.63,3.64,2.45,6.2,2.45s4.62-.82,6.2-2.45c1.58-1.68,2.37-3.83,2.37-6.44s-.79-4.76-2.37-6.44c-1.58-1.63-3.64-2.45-6.2-2.45s-4.62.82-6.2,2.45c-1.58,1.69-2.37,3.83-2.37,6.44s.79,4.76,2.37,6.44Z"/>
      <path class="cls-1" d="M209.87,41.76c5.44,0,9.98,2.07,13.62,6.2,3.7,4.13,5.55,9.25,5.55,15.34s-1.85,11.23-5.55,15.42c-3.7,4.08-8.24,6.12-13.62,6.12-4.95,0-8.81-1.63-11.58-4.89v20.07h-13.54v-57.1h13.54v3.75c2.77-3.26,6.63-4.89,11.58-4.89ZM200.65,69.74c1.58,1.63,3.64,2.45,6.2,2.45s4.62-.82,6.2-2.45c1.58-1.68,2.37-3.83,2.37-6.44s-.79-4.76-2.37-6.44c-1.58-1.63-3.64-2.45-6.2-2.45s-4.62.82-6.2,2.45c-1.58,1.69-2.37,3.83-2.37,6.44s.79,4.76,2.37,6.44Z"/>
    </g>
    <circle class="cls-2" cx="122.4" cy="31.72" r="7.79"/>
  </g>
</svg>