<?xml version="1.0" encoding="UTF-8"?>
<svg id="CIPP_WHITE" data-name="CIPP WHITE" xmlns="http://www.w3.org/2000/svg" viewBox="0 0 1200 682">
  <defs>
    <style>
      .cls-1 {
        fill: #fff;
      }

      .cls-2 {
        fill: #f47f20;
      }
    </style>
  </defs>
  <path class="cls-2" d="M954.8,262.26c-11.2,0-21.27-7.8-23.71-19.2-14.86-69.39-71.5-109.19-155.4-109.19-36.05,0-70.21,11.54-98.77,33.37-5.38,4.12-12.23,5.79-18.91,4.63-6.68-1.16-12.56-5.06-16.23-10.76-45.45-70.48-122.58-112.56-206.31-112.56-117.51,0-216.3,78.03-240.24,189.77-2.81,13.11-15.72,21.47-28.82,18.65-13.11-2.81-21.46-15.71-18.65-28.82C176.53,93.82,294.84,0,435.47,0c92,0,177.35,42.4,232.84,114.57,32.4-19.2,69.07-29.25,107.38-29.25,105.64,0,183.38,56.55,202.88,147.57,2.81,13.11-5.54,26.01-18.65,28.82-1.71.37-3.42.54-5.11.54Z"/>
  <g>
    <g>
      <path class="cls-1" d="M208.95,578.52c-42.28,0-77.52-14.09-105.7-42.28-28.19-28.18-42.28-63.05-42.28-104.59s14.09-76.4,42.28-104.59c28.18-28.18,63.42-42.28,105.7-42.28,27.44,0,52.38,6.4,74.83,19.2,22.43,12.79,39.78,30.32,52.02,52.57l-79,45.62c-10.01-18.17-26.15-27.26-48.4-27.26-15.58,0-28.56,5.28-38.95,15.86-10.39,10.57-15.57,24.2-15.57,40.89s5.19,30.32,15.57,40.89c10.38,10.57,23.37,15.86,38.95,15.86,22.62,0,38.75-9.27,48.4-27.82l79,45.62c-12.24,22.25-29.58,39.87-52.02,52.85-22.44,12.97-47.39,19.47-74.83,19.47Z"/>
      <rect class="cls-1" x="365.28" y="292.57" width="92.35" height="278.16"/>
      <path class="cls-1" d="M673.37,284.79c37.08,0,68.05,14.1,92.91,42.28,25.21,28.19,37.83,63.06,37.83,104.59s-12.61,76.59-37.83,105.14c-25.22,27.81-56.19,41.72-92.91,41.72-33.75,0-60.08-11.13-79-33.38v136.86h-92.35v-389.43h92.35v25.59c18.91-22.25,45.25-33.38,79-33.38ZM610.51,475.6c10.75,11.13,24.84,16.69,42.28,16.69s31.52-5.57,42.28-16.69c10.75-11.49,16.13-26.15,16.13-43.95s-5.38-32.45-16.13-43.95c-10.76-11.13-24.85-16.69-42.28-16.69s-31.53,5.56-42.28,16.69c-10.76,11.5-16.13,26.15-16.13,43.95s5.37,32.46,16.13,43.95Z"/>
      <path class="cls-1" d="M1008.3,284.79c37.08,0,68.05,14.1,92.91,42.28,25.21,28.19,37.83,63.06,37.83,104.59s-12.61,76.59-37.83,105.14c-25.22,27.81-56.19,41.72-92.91,41.72-33.75,0-60.08-11.13-79-33.38v136.86h-92.35v-389.43h92.35v25.59c18.91-22.25,45.25-33.38,79-33.38ZM945.43,475.6c10.75,11.13,24.84,16.69,42.28,16.69s31.52-5.57,42.28-16.69c10.75-11.49,16.13-26.15,16.13-43.95s-5.38-32.45-16.13-43.95c-10.76-11.13-24.85-16.69-42.28-16.69s-31.53,5.56-42.28,16.69c-10.76,11.5-16.13,26.15-16.13,43.95s5.37,32.46,16.13,43.95Z"/>
    </g>
    <circle class="cls-2" cx="411.74" cy="216.36" r="53.12"/>
  </g>
</svg>