<?xml version="1.0" encoding="UTF-8"?>
<svg id="CIPP_WHITE" data-name="CIPP WHITE" xmlns="http://www.w3.org/2000/svg" viewBox="0 0 48 48">
  <defs>
    <style>
      .cls-1 {
        fill: #fff;
      }

      .cls-2 {
        fill: #f47f20;
      }
    </style>
  </defs>
  <path class="cls-2" d="M39.8,20.49c-.5,0-.95-.35-1.06-.85-.66-3.09-3.18-4.86-6.92-4.86-1.61,0-3.13.51-4.4,1.49-.24.18-.54.26-.84.21-.3-.05-.56-.23-.72-.48-2.02-3.14-5.46-5.01-9.19-5.01-5.23,0-9.63,3.47-10.7,8.45-.13.58-.7.96-1.28.83-.58-.13-.96-.7-.83-1.28,1.28-5.98,6.55-10.16,12.81-10.16,4.1,0,7.9,1.89,10.37,5.1,1.44-.85,3.08-1.3,4.78-1.3,4.7,0,8.16,2.52,9.03,6.57.13.58-.25,1.16-.83,1.28-.08.02-.15.02-.23.02Z"/>
  <g>
    <g>
      <path class="cls-1" d="M6.59,34.58c-1.88,0-3.45-.63-4.71-1.88-1.26-1.25-1.88-2.81-1.88-4.66s.63-3.4,1.88-4.66,2.82-1.88,4.71-1.88c1.22,0,2.33.28,3.33.85,1,.57,1.77,1.35,2.32,2.34l-3.52,2.03c-.45-.81-1.16-1.21-2.15-1.21-.69,0-1.27.24-1.73.71-.46.47-.69,1.08-.69,1.82s.23,1.35.69,1.82c.46.47,1.04.71,1.73.71,1.01,0,1.73-.41,2.15-1.24l3.52,2.03c-.54.99-1.32,1.78-2.32,2.35-1,.58-2.11.87-3.33.87Z"/>
      <rect class="cls-1" x="13.55" y="21.84" width="4.11" height="12.38"/>
      <path class="cls-1" d="M27.27,21.5c1.65,0,3.03.63,4.14,1.88,1.12,1.26,1.68,2.81,1.68,4.66s-.56,3.41-1.68,4.68c-1.12,1.24-2.5,1.86-4.14,1.86-1.5,0-2.68-.5-3.52-1.49v6.09h-4.11v-17.34h4.11v1.14c.84-.99,2.01-1.49,3.52-1.49ZM24.47,29.99c.48.5,1.11.74,1.88.74s1.4-.25,1.88-.74c.48-.51.72-1.16.72-1.96s-.24-1.44-.72-1.96c-.48-.5-1.11-.74-1.88-.74s-1.4.25-1.88.74c-.48.51-.72,1.16-.72,1.96s.24,1.45.72,1.96Z"/>
      <path class="cls-1" d="M42.18,21.5c1.65,0,3.03.63,4.14,1.88,1.12,1.26,1.68,2.81,1.68,4.66s-.56,3.41-1.68,4.68c-1.12,1.24-2.5,1.86-4.14,1.86-1.5,0-2.68-.5-3.52-1.49v6.09h-4.11v-17.34h4.11v1.14c.84-.99,2.01-1.49,3.52-1.49ZM39.38,29.99c.48.5,1.11.74,1.88.74s1.4-.25,1.88-.74c.48-.51.72-1.16.72-1.96s-.24-1.44-.72-1.96c-.48-.5-1.11-.74-1.88-.74s-1.4.25-1.88.74c-.48.51-.72,1.16-.72,1.96s.24,1.45.72,1.96Z"/>
    </g>
    <circle class="cls-2" cx="15.62" cy="18.45" r="2.37"/>
  </g>
</svg>