<?xml version="1.0" encoding="UTF-8"?>
<svg id="CIPP_WHITE" data-name="CIPP WHITE" xmlns="http://www.w3.org/2000/svg" viewBox="0 0 125 125">
  <defs>
    <style>
      .cls-1 {
        fill: #fff;
      }

      .cls-2 {
        fill: #f47f20;
      }
    </style>
  </defs>
  <path class="cls-2" d="M103.64,53.37c-1.3,0-2.47-.9-2.75-2.23-1.72-8.05-8.29-12.66-18.02-12.66-4.18,0-8.14,1.34-11.45,3.87-.62.48-1.42.67-2.19.54-.77-.13-1.46-.59-1.88-1.25-5.27-8.17-14.21-13.05-23.92-13.05-13.63,0-25.08,9.05-27.86,22-.33,1.52-1.82,2.49-3.34,2.16-1.52-.33-2.49-1.82-2.16-3.34,3.34-15.58,17.05-26.45,33.36-26.45,10.67,0,20.56,4.92,27,13.28,3.76-2.23,8.01-3.39,12.45-3.39,12.25,0,21.26,6.56,23.52,17.11.33,1.52-.64,3.02-2.16,3.34-.2.04-.4.06-.59.06Z"/>
  <g>
    <g>
      <path class="cls-1" d="M17.16,90.04c-4.9,0-8.99-1.63-12.26-4.9-3.27-3.27-4.9-7.31-4.9-12.13s1.63-8.86,4.9-12.13,7.35-4.9,12.26-4.9c3.18,0,6.07.74,8.68,2.23,2.6,1.48,4.61,3.52,6.03,6.1l-9.16,5.29c-1.16-2.11-3.03-3.16-5.61-3.16-1.81,0-3.31.61-4.52,1.84-1.2,1.23-1.81,2.81-1.81,4.74s.6,3.52,1.81,4.74c1.2,1.23,2.71,1.84,4.52,1.84,2.62,0,4.49-1.07,5.61-3.23l9.16,5.29c-1.42,2.58-3.43,4.62-6.03,6.13-2.6,1.5-5.49,2.26-8.68,2.26Z"/>
      <rect class="cls-1" x="35.28" y="56.89" width="10.71" height="32.25"/>
      <path class="cls-1" d="M71.01,55.98c4.3,0,7.89,1.63,10.77,4.9,2.92,3.27,4.39,7.31,4.39,12.13s-1.46,8.88-4.39,12.19c-2.92,3.22-6.52,4.84-10.77,4.84-3.91,0-6.97-1.29-9.16-3.87v15.87h-10.71v-45.15h10.71v2.97c2.19-2.58,5.25-3.87,9.16-3.87ZM63.72,78.11c1.25,1.29,2.88,1.94,4.9,1.94s3.65-.65,4.9-1.94c1.25-1.33,1.87-3.03,1.87-5.1s-.62-3.76-1.87-5.1c-1.25-1.29-2.88-1.93-4.9-1.93s-3.66.64-4.9,1.93c-1.25,1.33-1.87,3.03-1.87,5.1s.62,3.76,1.87,5.1Z"/>
      <path class="cls-1" d="M109.84,55.98c4.3,0,7.89,1.63,10.77,4.9,2.92,3.27,4.39,7.31,4.39,12.13s-1.46,8.88-4.39,12.19c-2.92,3.22-6.52,4.84-10.77,4.84-3.91,0-6.97-1.29-9.16-3.87v15.87h-10.71v-45.15h10.71v2.97c2.19-2.58,5.25-3.87,9.16-3.87ZM102.55,78.11c1.25,1.29,2.88,1.94,4.9,1.94s3.65-.65,4.9-1.94c1.25-1.33,1.87-3.03,1.87-5.1s-.62-3.76-1.87-5.1c-1.25-1.29-2.88-1.93-4.9-1.93s-3.66.64-4.9,1.93c-1.25,1.33-1.87,3.03-1.87,5.1s.62,3.76,1.87,5.1Z"/>
    </g>
    <circle class="cls-2" cx="40.67" cy="48.05" r="6.16"/>
  </g>
</svg>