<?xml version="1.0" encoding="UTF-8"?>
<svg id="Design" xmlns="http://www.w3.org/2000/svg" viewBox="0 0 820 312">
  <g>
    <g>
      <path d="M127.25,135.74v32.76c0,18.68-10.74,36.36-30.24,49.82l-10.87,7.52-3.22,2.22h-50.09c-1.7,0-3.24-.66-4.36-1.74-1.11-1.06-1.8-2.53-1.8-4.16,0-2.91,2.19-5.31,5.07-5.79.36-.07.74-.1,1.1-.1h54.56c1.5,0,2.85-.59,3.83-1.51.99-.95,1.6-2.25,1.6-3.68,0-2.86-2.43-5.18-5.43-5.18h-20.24c-1.78,0-3.37-.68-4.54-1.79-1.16-1.11-1.89-2.65-1.89-4.33,0-3.37,2.88-6.12,6.42-6.12h16.79c1.5,0,2.85-.58,3.83-1.53.99-.92,1.6-2.22,1.6-3.65,0-2.88-2.43-5.19-5.43-5.19h-42.71c-2.39,0-4.54-.91-6.1-2.41-1.58-1.49-2.54-3.56-2.54-5.83,0-4.57,3.86-8.26,8.64-8.26h18.52c2.04,0,3.9-.79,5.23-2.05,1.33-1.29,2.17-3.05,2.17-5.01,0-3.9-3.33-7.06-7.4-7.06H8.89c-2.45,0-4.68-.94-6.28-2.49-1.62-1.52-2.6-3.65-2.6-5.98,0-4.7,3.97-8.49,8.89-8.49h118.37Z"/>
      <polygon points="102.56 232.49 77.79 249.59 53.04 232.49 102.56 232.49"/>
      <path d="M50.23,211.84h-17.41c-.65,0-1.27.05-1.88.16-.29.05-.59.11-.87.18-10.7-13.12-16.55-28.24-16.55-43.69v-11.36h14.81v11.36c0,1.23.04,2.45.14,3.68v.03c.03.4.07.8.11,1.2.04.41.09.82.14,1.24.11.81.23,1.64.38,2.45.14.81.31,1.63.5,2.44.17.79.38,1.58.61,2.37,0,.02.01.03.01.05,3.09,10.83,9.91,21.03,20,29.87Z"/>
      <path d="M142.06,114.76v53.75c0,21.16-10.97,41.71-30.35,57.34-.93.75-1.89,1.5-2.86,2.22h-25.92l3.22-2.22,10.87-7.52c19.5-13.46,30.24-31.14,30.24-49.82v-38.92H28.34v1.71h-14.81v-16.54h128.52Z"/>
      <path d="M28.5,172.18c.03.41.07.82.1,1.24-.04-.4-.08-.8-.11-1.2,0-.01.01-.02.01-.03Z"/>
      <path d="M30.24,181.96s-.02-.03-.02-.04c-.23-.78-.43-1.57-.61-2.37.18.8.4,1.61.63,2.41Z"/>
    </g>
    <path d="M75.16,62.41c-26.72,0-49.34,18.82-56.51,44.53h15.05c6.52-17.66,22.64-30.2,41.46-30.2s34.94,12.54,41.46,30.2h15.05c-7.17-25.71-29.79-44.53-56.51-44.53Z"/>
  </g>
  <g>
    <path d="M192.1,148.69c0-25.09,18.63-44.33,44.33-44.33,15.47,0,29.11,7.67,36.54,19.73l-16.81,9.74c-3.78-6.58-11.08-10.47-19.73-10.47-15.1,0-24.84,10.11-24.84,25.33s9.74,25.33,24.84,25.33c8.65,0,16.08-3.9,19.73-10.47l16.81,9.74c-7.31,12.06-20.95,19.73-36.54,19.73-25.7,0-44.33-19.24-44.33-44.33Z"/>
    <path d="M340.55,130.42l-20.82,59.06c-6.82,19.36-17.66,27.04-34.71,26.18v-17.05c8.53,0,12.54-2.68,15.22-10.11l-24.23-58.09h20.09l13.52,37.27,11.45-37.27h19.49Z"/>
    <path d="M412.77,160.87c0,18.15-13.15,32.15-29.11,32.15-8.16,0-14.13-2.8-18.15-7.43v5.72h-18.27v-85.25h18.27v30.08c4.02-4.63,9.99-7.43,18.15-7.43,15.95,0,29.11,14.01,29.11,32.15ZM394.5,160.87c0-9.13-6.09-14.86-14.49-14.86s-14.49,5.72-14.49,14.86,6.09,14.86,14.49,14.86,14.49-5.72,14.49-14.86Z"/>
    <path d="M454.05,176.7c4.99,0,9.26-1.95,11.69-4.63l14.61,8.4c-5.97,8.28-14.98,12.54-26.55,12.54-20.82,0-33.73-14.01-33.73-32.15s13.15-32.15,32.39-32.15c17.78,0,30.93,13.76,30.93,32.15,0,2.56-.24,4.99-.73,7.31h-43.23c2.31,6.33,7.92,8.52,14.61,8.52ZM465.26,154.54c-1.95-7.06-7.43-9.62-12.91-9.62-6.94,0-11.57,3.41-13.27,9.62h26.18Z"/>
    <path d="M530.29,129.21v20.7c-7.55-1.22-18.27,1.83-18.27,13.88v27.52h-18.27v-60.89h18.27v10.84c2.44-8.16,10.59-12.06,18.27-12.06Z"/>
    <path d="M614.92,148.69c0,23.5-16.68,42.62-40.19,42.62h-32.03v-85.25h32.03c23.5,0,40.19,19.12,40.19,42.62ZM608.59,148.69c0-20.22-13.76-36.53-33.86-36.53h-25.57v73.07h25.57c20.09,0,33.86-16.32,33.86-36.54Z"/>
    <path d="M656.45,129.57v5.85c-10.47,0-20.34,6.45-20.34,22.04v33.86h-6.09v-60.89h6.09v11.93c4.14-9.62,12.06-12.79,20.34-12.79Z"/>
    <path d="M724.89,130.42v60.89h-6.21v-13.76c-5.12,9.13-14.49,15.1-26.18,15.1-17.29,0-31.54-13.76-31.54-31.78s14.25-31.79,31.54-31.79c11.69,0,21.07,5.97,26.18,15.1v-13.76h6.21ZM718.68,160.87c0-14.49-11.2-25.94-25.7-25.94s-25.82,11.45-25.82,25.94,11.33,25.94,25.82,25.94,25.7-11.45,25.7-25.94Z"/>
    <path d="M741.82,110.82c0-2.56,2.19-4.75,4.87-4.75s4.87,2.19,4.87,4.75-2.19,4.87-4.87,4.87-4.87-2.19-4.87-4.87ZM743.64,130.42h6.09v60.89h-6.09v-60.89Z"/>
    <path d="M820,153.44v37.87h-6.21v-37.87c0-11.2-6.45-18.51-17.9-18.51s-21.31,7.79-21.31,24.24v32.15h-6.09v-60.89h6.09v11.57c4.63-9.01,12.42-12.91,21.8-12.91,14.49,0,23.63,9.62,23.63,24.36Z"/>
  </g>
</svg>