<?xml version="1.0" encoding="UTF-8"?>
<svg id="Design" xmlns="http://www.w3.org/2000/svg" viewBox="0 0 48 48">
  <g>
    <g>
      <path d="M7.45,22.81v1.92c0,1.09-.63,2.13-1.77,2.92l-.64.44-.19.13H1.92c-.1,0-.19-.04-.26-.1-.06-.06-.11-.15-.11-.24,0-.17.13-.31.3-.34.02,0,.04,0,.06,0h3.19c.09,0,.17-.03.22-.09.06-.06.09-.13.09-.22,0-.17-.14-.3-.32-.3h-1.18c-.1,0-.2-.04-.27-.1-.07-.06-.11-.15-.11-.25,0-.2.17-.36.38-.36h.98c.09,0,.17-.03.22-.09.06-.05.09-.13.09-.21,0-.17-.14-.3-.32-.3h-2.5c-.14,0-.27-.05-.36-.14-.09-.09-.15-.21-.15-.34,0-.27.23-.48.51-.48h1.08c.12,0,.23-.05.31-.12.08-.08.13-.18.13-.29,0-.23-.2-.41-.43-.41H.52c-.14,0-.27-.06-.37-.15-.09-.09-.15-.21-.15-.35,0-.28.23-.5.52-.5h6.93Z"/>
      <polygon points="6 28.48 4.55 29.48 3.1 28.48 6 28.48"/>
      <path d="M2.94,27.27h-1.02s-.07,0-.11,0c-.02,0-.03,0-.05.01-.63-.77-.97-1.65-.97-2.56v-.67h.87v.67c0,.07,0,.14,0,.22h0s0,.05,0,.07c0,.02,0,.05,0,.07,0,.05.01.1.02.14,0,.05.02.1.03.14.01.05.02.09.04.14,0,0,0,0,0,0,.18.63.58,1.23,1.17,1.75Z"/>
      <path d="M8.32,21.59v3.15c0,1.24-.64,2.44-1.78,3.36-.05.04-.11.09-.17.13h-1.52l.19-.13.64-.44c1.14-.79,1.77-1.82,1.77-2.92v-2.28H1.66v.1h-.87v-.97h7.52Z"/>
      <path d="M1.67,24.95s0,.05,0,.07c0-.02,0-.05,0-.07,0,0,0,0,0,0Z"/>
      <path d="M1.77,25.52s0,0,0,0c-.01-.05-.03-.09-.04-.14.01.05.02.09.04.14Z"/>
    </g>
    <path d="M4.4,18.52c-1.56,0-2.89,1.1-3.31,2.61h.88c.38-1.03,1.33-1.77,2.43-1.77s2.05.73,2.43,1.77h.88c-.42-1.51-1.74-2.61-3.31-2.61Z"/>
  </g>
  <g>
    <path d="M11.24,23.57c0-1.47,1.09-2.59,2.59-2.59.91,0,1.7.45,2.14,1.15l-.98.57c-.22-.38-.65-.61-1.15-.61-.88,0-1.45.59-1.45,1.48s.57,1.48,1.45,1.48c.51,0,.94-.23,1.15-.61l.98.57c-.43.71-1.23,1.15-2.14,1.15-1.5,0-2.59-1.13-2.59-2.59Z"/>
    <path d="M19.93,22.5l-1.22,3.46c-.4,1.13-1.03,1.58-2.03,1.53v-1c.5,0,.73-.16.89-.59l-1.42-3.4h1.18l.79,2.18.67-2.18h1.14Z"/>
    <path d="M24.16,24.29c0,1.06-.77,1.88-1.7,1.88-.48,0-.83-.16-1.06-.43v.34h-1.07v-4.99h1.07v1.76c.24-.27.58-.43,1.06-.43.93,0,1.7.82,1.7,1.88ZM23.09,24.29c0-.53-.36-.87-.85-.87s-.85.34-.85.87.36.87.85.87.85-.34.85-.87Z"/>
    <path d="M26.58,25.21c.29,0,.54-.11.68-.27l.86.49c-.35.48-.88.73-1.55.73-1.22,0-1.97-.82-1.97-1.88s.77-1.88,1.9-1.88c1.04,0,1.81.81,1.81,1.88,0,.15-.01.29-.04.43h-2.53c.14.37.46.5.86.5ZM27.23,23.91c-.11-.41-.43-.56-.76-.56-.41,0-.68.2-.78.56h1.53Z"/>
    <path d="M31.04,22.43v1.21c-.44-.07-1.07.11-1.07.81v1.61h-1.07v-3.56h1.07v.63c.14-.48.62-.71,1.07-.71Z"/>
    <path d="M36,23.57c0,1.38-.98,2.5-2.35,2.5h-1.87v-4.99h1.87c1.38,0,2.35,1.12,2.35,2.5ZM35.62,23.57c0-1.18-.81-2.14-1.98-2.14h-1.5v4.28h1.5c1.18,0,1.98-.96,1.98-2.14Z"/>
    <path d="M38.43,22.45v.34c-.61,0-1.19.38-1.19,1.29v1.98h-.36v-3.56h.36v.7c.24-.56.71-.75,1.19-.75Z"/>
    <path d="M42.43,22.5v3.56h-.36v-.81c-.3.53-.85.88-1.53.88-1.01,0-1.85-.81-1.85-1.86s.83-1.86,1.85-1.86c.68,0,1.23.35,1.53.88v-.81h.36ZM42.07,24.29c0-.85-.66-1.52-1.5-1.52s-1.51.67-1.51,1.52.66,1.52,1.51,1.52,1.5-.67,1.5-1.52Z"/>
    <path d="M43.42,21.36c0-.15.13-.28.29-.28s.29.13.29.28-.13.29-.29.29-.29-.13-.29-.29ZM43.53,22.5h.36v3.56h-.36v-3.56Z"/>
    <path d="M48,23.85v2.22h-.36v-2.22c0-.66-.38-1.08-1.05-1.08s-1.25.46-1.25,1.42v1.88h-.36v-3.56h.36v.68c.27-.53.73-.76,1.28-.76.85,0,1.38.56,1.38,1.43Z"/>
  </g>
</svg>