<?xml version="1.0" encoding="UTF-8"?>
<svg id="Design" xmlns="http://www.w3.org/2000/svg" viewBox="0 0 300 100">
  <g>
    <g>
      <path d="M46.56,42.59v11.99c0,6.83-3.93,13.3-11.06,18.23l-3.98,2.75-1.18.81H12.01c-.62,0-1.19-.24-1.6-.64-.4-.39-.66-.93-.66-1.52,0-1.06.8-1.94,1.85-2.12.13-.02.27-.04.4-.04h19.96c.55,0,1.04-.21,1.4-.55.36-.35.58-.82.58-1.35,0-1.05-.89-1.89-1.99-1.89h-7.4c-.65,0-1.23-.25-1.66-.66-.42-.4-.69-.97-.69-1.58,0-1.23,1.05-2.24,2.35-2.24h6.14c.55,0,1.04-.21,1.4-.56.36-.34.58-.81.58-1.33,0-1.05-.89-1.9-1.99-1.9h-15.63c-.87,0-1.66-.33-2.23-.88-.58-.54-.93-1.3-.93-2.13,0-1.67,1.41-3.02,3.16-3.02h6.78c.75,0,1.43-.29,1.91-.75.49-.47.79-1.12.79-1.83,0-1.43-1.22-2.58-2.71-2.58H3.25c-.9,0-1.71-.35-2.3-.91-.59-.56-.95-1.33-.95-2.19,0-1.72,1.45-3.1,3.25-3.1h43.3Z"/>
      <polygon points="37.52 77.99 28.46 84.24 19.41 77.99 37.52 77.99"/>
      <path d="M18.38,70.43h-6.37c-.24,0-.46.02-.69.06-.11.02-.21.04-.32.07-3.91-4.8-6.05-10.33-6.05-15.98v-4.16h5.42v4.16c0,.45.02.9.05,1.35h0c.01.16.02.31.04.45.02.15.03.3.05.45.04.3.08.6.14.9.05.3.12.6.18.89.06.29.14.58.22.87,0,0,0,.01,0,.02,1.13,3.96,3.62,7.69,7.32,10.93Z"/>
      <path d="M51.97,34.91v19.66c0,7.74-4.01,15.26-11.1,20.98-.34.27-.69.55-1.05.81h-9.48l1.18-.81,3.98-2.75c7.13-4.92,11.06-11.39,11.06-18.23v-14.24H10.37v.63h-5.42v-6.05h47.02Z"/>
      <path d="M10.43,55.92c.01.15.02.3.04.45-.02-.15-.03-.29-.04-.44,0,0,0,0,0-.01Z"/>
      <path d="M11.06,59.5s0-.01,0-.02c-.08-.29-.16-.58-.22-.87.07.29.15.59.23.88Z"/>
    </g>
    <path d="M27.5,15.76c-9.77,0-18.05,6.89-20.67,16.29h5.51c2.38-6.46,8.28-11.05,15.17-11.05s12.78,4.59,15.17,11.05h5.51c-2.62-9.41-10.9-16.29-20.67-16.29Z"/>
  </g>
  <g>
    <path d="M70.28,47.33c0-9.18,6.82-16.22,16.22-16.22,5.66,0,10.65,2.81,13.37,7.22l-6.15,3.56c-1.38-2.41-4.05-3.83-7.22-3.83-5.52,0-9.09,3.7-9.09,9.27s3.56,9.27,9.09,9.27c3.16,0,5.88-1.43,7.22-3.83l6.15,3.56c-2.67,4.41-7.66,7.22-13.37,7.22-9.4,0-16.22-7.04-16.22-16.22Z"/>
    <path d="M124.59,40.64l-7.62,21.61c-2.5,7.08-6.46,9.89-12.7,9.58v-6.24c3.12,0,4.59-.98,5.57-3.7l-8.87-21.25h7.35l4.95,13.63,4.19-13.63h7.13Z"/>
    <path d="M151.01,51.78c0,6.64-4.81,11.76-10.65,11.76-2.99,0-5.17-1.02-6.64-2.72v2.09h-6.68v-31.19h6.68v11c1.47-1.69,3.65-2.72,6.64-2.72,5.84,0,10.65,5.12,10.65,11.76ZM144.33,51.78c0-3.34-2.23-5.44-5.3-5.44s-5.3,2.09-5.3,5.44,2.23,5.44,5.3,5.44,5.3-2.09,5.3-5.44Z"/>
    <path d="M166.12,57.57c1.83,0,3.39-.71,4.28-1.69l5.35,3.07c-2.18,3.03-5.48,4.59-9.71,4.59-7.62,0-12.34-5.12-12.34-11.76s4.81-11.76,11.85-11.76c6.5,0,11.32,5.03,11.32,11.76,0,.94-.09,1.83-.27,2.67h-15.82c.85,2.32,2.9,3.12,5.35,3.12ZM170.22,49.47c-.71-2.58-2.72-3.52-4.72-3.52-2.54,0-4.23,1.25-4.86,3.52h9.58Z"/>
    <path d="M194.01,40.2v7.57c-2.76-.45-6.68.67-6.68,5.08v10.07h-6.68v-22.28h6.68v3.97c.89-2.99,3.88-4.41,6.68-4.41Z"/>
    <path d="M224.97,47.33c0,8.6-6.1,15.59-14.7,15.59h-11.72v-31.19h11.72c8.6,0,14.7,6.99,14.7,15.59ZM222.66,47.33c0-7.4-5.03-13.37-12.39-13.37h-9.36v26.73h9.36c7.35,0,12.39-5.97,12.39-13.37Z"/>
    <path d="M240.16,40.33v2.14c-3.83,0-7.44,2.36-7.44,8.06v12.39h-2.23v-22.28h2.23v4.37c1.51-3.52,4.41-4.68,7.44-4.68Z"/>
    <path d="M265.2,40.64v22.28h-2.27v-5.03c-1.87,3.34-5.3,5.52-9.58,5.52-6.33,0-11.54-5.03-11.54-11.63s5.21-11.63,11.54-11.63c4.28,0,7.71,2.18,9.58,5.52v-5.03h2.27ZM262.93,51.78c0-5.3-4.1-9.49-9.4-9.49s-9.45,4.19-9.45,9.49,4.14,9.49,9.45,9.49,9.4-4.19,9.4-9.49Z"/>
    <path d="M271.4,33.47c0-.94.8-1.74,1.78-1.74s1.78.8,1.78,1.74-.8,1.78-1.78,1.78-1.78-.8-1.78-1.78ZM272.06,40.64h2.23v22.28h-2.23v-22.28Z"/>
    <path d="M300,49.06v13.86h-2.27v-13.86c0-4.1-2.36-6.77-6.55-6.77s-7.8,2.85-7.8,8.87v11.76h-2.23v-22.28h2.23v4.23c1.69-3.3,4.54-4.72,7.98-4.72,5.3,0,8.64,3.52,8.64,8.91Z"/>
  </g>
</svg>