<?xml version="1.0" encoding="UTF-8"?>
<svg id="Design" xmlns="http://www.w3.org/2000/svg" viewBox="0 0 180 180">
  <g>
    <g>
      <path d="M27.93,85.55v7.19c0,4.1-2.36,7.98-6.64,10.94l-2.39,1.65-.71.49H7.21c-.37,0-.71-.15-.96-.38-.24-.23-.4-.56-.4-.91,0-.64.48-1.16,1.11-1.27.08-.01.16-.02.24-.02h11.98c.33,0,.63-.13.84-.33.22-.21.35-.49.35-.81,0-.63-.53-1.14-1.19-1.14h-4.44c-.39,0-.74-.15-1-.39-.25-.24-.41-.58-.41-.95,0-.74.63-1.34,1.41-1.34h3.68c.33,0,.63-.13.84-.34.22-.2.35-.49.35-.8,0-.63-.53-1.14-1.19-1.14h-9.38c-.52,0-1-.2-1.34-.53-.35-.33-.56-.78-.56-1.28,0-1,.85-1.81,1.9-1.81h4.07c.45,0,.86-.17,1.15-.45.29-.28.48-.67.48-1.1,0-.86-.73-1.55-1.62-1.55H1.95c-.54,0-1.03-.21-1.38-.55-.35-.33-.57-.8-.57-1.31,0-1.03.87-1.86,1.95-1.86h25.98Z"/>
      <polygon points="22.51 106.79 17.08 110.55 11.64 106.79 22.51 106.79"/>
      <path d="M11.03,102.26h-3.82c-.14,0-.28.01-.41.04-.06.01-.13.02-.19.04-2.35-2.88-3.63-6.2-3.63-9.59v-2.49h3.25v2.49c0,.27,0,.54.03.81h0c0,.1.01.18.02.27,0,.09.02.18.03.27.02.18.05.36.08.54.03.18.07.36.11.54.04.17.08.35.13.52,0,0,0,0,0,.01.68,2.38,2.17,4.62,4.39,6.56Z"/>
      <path d="M31.18,80.95v11.8c0,4.64-2.41,9.16-6.66,12.59-.2.16-.41.33-.63.49h-5.69l.71-.49,2.39-1.65c4.28-2.95,6.64-6.84,6.64-10.94v-8.54H6.22v.38h-3.25v-3.63h28.21Z"/>
      <path d="M6.26,93.55c0,.09.01.18.02.27,0-.09-.02-.18-.02-.26,0,0,0,0,0,0Z"/>
      <path d="M6.64,95.7s0,0,0,0c-.05-.17-.1-.35-.13-.52.04.18.09.35.14.53Z"/>
    </g>
    <path d="M16.5,69.45c-5.86,0-10.83,4.13-12.4,9.78h3.3c1.43-3.88,4.97-6.63,9.1-6.63s7.67,2.75,9.1,6.63h3.3c-1.57-5.64-6.54-9.78-12.4-9.78Z"/>
  </g>
  <g>
    <path d="M42.17,88.4c0-5.51,4.09-9.73,9.73-9.73,3.4,0,6.39,1.68,8.02,4.33l-3.69,2.14c-.83-1.44-2.43-2.3-4.33-2.3-3.31,0-5.45,2.22-5.45,5.56s2.14,5.56,5.45,5.56c1.9,0,3.53-.86,4.33-2.3l3.69,2.14c-1.6,2.65-4.6,4.33-8.02,4.33-5.64,0-9.73-4.22-9.73-9.73Z"/>
    <path d="M74.76,84.39l-4.57,12.97c-1.5,4.25-3.88,5.93-7.62,5.75v-3.74c1.87,0,2.75-.59,3.34-2.22l-5.32-12.75h4.41l2.97,8.18,2.51-8.18h4.28Z"/>
    <path d="M90.61,91.07c0,3.98-2.89,7.06-6.39,7.06-1.79,0-3.1-.61-3.98-1.63v1.26h-4.01v-18.71h4.01v6.6c.88-1.02,2.19-1.63,3.98-1.63,3.5,0,6.39,3.07,6.39,7.06ZM86.6,91.07c0-2.01-1.34-3.26-3.18-3.26s-3.18,1.26-3.18,3.26,1.34,3.26,3.18,3.26,3.18-1.26,3.18-3.26Z"/>
    <path d="M99.67,94.54c1.1,0,2.03-.43,2.57-1.02l3.21,1.84c-1.31,1.82-3.29,2.75-5.83,2.75-4.57,0-7.41-3.07-7.41-7.06s2.89-7.06,7.11-7.06c3.9,0,6.79,3.02,6.79,7.06,0,.56-.05,1.1-.16,1.6h-9.49c.51,1.39,1.74,1.87,3.21,1.87ZM102.13,89.68c-.43-1.55-1.63-2.11-2.83-2.11-1.52,0-2.54.75-2.91,2.11h5.75Z"/>
    <path d="M116.4,84.12v4.54c-1.66-.27-4.01.4-4.01,3.05v6.04h-4.01v-13.37h4.01v2.38c.53-1.79,2.33-2.65,4.01-2.65Z"/>
    <path d="M134.98,88.4c0,5.16-3.66,9.36-8.82,9.36h-7.03v-18.71h7.03c5.16,0,8.82,4.2,8.82,9.36ZM133.59,88.4c0-4.44-3.02-8.02-7.43-8.02h-5.61v16.04h5.61c4.41,0,7.43-3.58,7.43-8.02Z"/>
    <path d="M144.1,84.2v1.28c-2.3,0-4.46,1.42-4.46,4.84v7.43h-1.34v-13.37h1.34v2.62c.91-2.11,2.65-2.81,4.46-2.81Z"/>
    <path d="M159.12,84.39v13.37h-1.36v-3.02c-1.12,2-3.18,3.31-5.75,3.31-3.8,0-6.92-3.02-6.92-6.98s3.13-6.98,6.92-6.98c2.57,0,4.62,1.31,5.75,3.31v-3.02h1.36ZM157.76,91.07c0-3.18-2.46-5.69-5.64-5.69s-5.67,2.51-5.67,5.69,2.49,5.69,5.67,5.69,5.64-2.51,5.64-5.69Z"/>
    <path d="M162.84,80.08c0-.56.48-1.04,1.07-1.04s1.07.48,1.07,1.04-.48,1.07-1.07,1.07-1.07-.48-1.07-1.07ZM163.24,84.39h1.34v13.37h-1.34v-13.37Z"/>
    <path d="M180,89.44v8.31h-1.36v-8.31c0-2.46-1.42-4.06-3.93-4.06s-4.68,1.71-4.68,5.32v7.06h-1.34v-13.37h1.34v2.54c1.02-1.98,2.73-2.83,4.79-2.83,3.18,0,5.19,2.11,5.19,5.35Z"/>
  </g>
</svg>