<?xml version="1.0" encoding="UTF-8"?>
<svg id="Design" xmlns="http://www.w3.org/2000/svg" viewBox="0 0 1000 1000">
  <g>
    <g>
      <path d="M155.19,475.29v39.95c0,22.77-13.1,44.35-36.88,60.75l-13.26,9.17-3.93,2.71h-61.09c-2.08,0-3.96-.81-5.32-2.12-1.35-1.3-2.2-3.08-2.2-5.07,0-3.55,2.67-6.47,6.18-7.07.44-.08.9-.12,1.34-.12h66.54c1.83,0,3.48-.71,4.67-1.84,1.2-1.16,1.95-2.74,1.95-4.49,0-3.49-2.96-6.31-6.62-6.31h-24.68c-2.17,0-4.12-.83-5.53-2.18-1.42-1.35-2.3-3.23-2.3-5.28,0-4.12,3.51-7.46,7.83-7.46h20.47c1.83,0,3.48-.7,4.67-1.87,1.2-1.12,1.95-2.71,1.95-4.45,0-3.51-2.96-6.33-6.62-6.33h-52.09c-2.91,0-5.53-1.11-7.44-2.94-1.93-1.81-3.1-4.34-3.1-7.11,0-5.57,4.71-10.07,10.53-10.07h22.59c2.49,0,4.75-.97,6.38-2.5,1.63-1.57,2.65-3.72,2.65-6.11,0-4.75-4.06-8.61-9.03-8.61H10.84c-2.99,0-5.7-1.15-7.66-3.03-1.97-1.85-3.18-4.45-3.18-7.29,0-5.73,4.84-10.35,10.84-10.35h144.35Z"/>
      <polygon points="125.07 593.28 94.87 614.14 64.68 593.28 125.07 593.28"/>
      <path d="M61.26,568.1h-21.23c-.79,0-1.55.07-2.29.2-.36.07-.71.13-1.06.22-13.05-16-20.18-34.43-20.18-53.28v-13.86h18.06v13.86c0,1.5.05,2.99.17,4.49v.04c.04.49.08.98.13,1.47.05.5.11,1.01.17,1.51.13.99.28,2,.46,2.99.17.99.38,1.99.61,2.98.21.97.46,1.93.74,2.88,0,.03.01.04.01.07,3.77,13.21,12.08,25.65,24.39,36.43Z"/>
      <path d="M173.24,449.7v65.54c0,25.81-13.38,50.87-37.01,69.93-1.14.91-2.3,1.83-3.49,2.71h-31.61l3.93-2.71,13.26-9.17c23.78-16.41,36.88-37.98,36.88-60.75v-47.47H34.57v2.09h-18.06v-20.17h156.74Z"/>
      <path d="M34.75,519.73c.04.5.08,1.01.12,1.51-.05-.49-.09-.98-.13-1.47,0-.01.01-.03.01-.04Z"/>
      <path d="M36.88,531.66s-.03-.04-.03-.05c-.28-.95-.53-1.92-.74-2.88.22.98.49,1.96.77,2.94Z"/>
    </g>
    <path d="M91.66,385.86c-32.58,0-60.17,22.95-68.91,54.31h18.36c7.95-21.54,27.61-36.83,50.56-36.83s42.61,15.29,50.56,36.83h18.36c-8.74-31.36-36.33-54.31-68.91-54.31Z"/>
  </g>
  <g>
    <path d="M234.27,491.09c0-30.59,22.72-54.06,54.06-54.06,18.86,0,35.5,9.36,44.56,24.06l-20.5,11.88c-4.6-8.02-13.52-12.77-24.06-12.77-18.42,0-30.3,12.33-30.3,30.89s11.88,30.89,30.3,30.89c10.54,0,19.6-4.75,24.06-12.77l20.5,11.88c-8.91,14.7-25.55,24.06-44.56,24.06-31.34,0-54.06-23.47-54.06-54.06Z"/>
    <path d="M415.31,468.81l-25.4,72.03c-8.32,23.61-21.53,32.97-42.33,31.93v-20.79c10.4,0,15.3-3.27,18.56-12.33l-29.55-70.84h24.51l16.49,45.45,13.96-45.45h23.76Z"/>
    <path d="M503.38,505.94c0,22.13-16.04,39.21-35.49,39.21-9.95,0-17.23-3.42-22.13-9.06v6.98h-22.28v-103.96h22.28v36.68c4.9-5.64,12.18-9.06,22.13-9.06,19.46,0,35.49,17.08,35.49,39.21ZM481.1,505.94c0-11.14-7.43-18.12-17.67-18.12s-17.67,6.98-17.67,18.12,7.43,18.12,17.67,18.12,17.67-6.98,17.67-18.12Z"/>
    <path d="M553.72,525.25c6.09,0,11.29-2.38,14.26-5.64l17.82,10.25c-7.28,10.1-18.27,15.3-32.38,15.3-25.4,0-41.14-17.08-41.14-39.21s16.04-39.21,39.51-39.21c21.68,0,37.72,16.78,37.72,39.21,0,3.12-.3,6.09-.89,8.91h-52.72c2.82,7.72,9.65,10.4,17.82,10.4ZM567.38,498.22c-2.38-8.61-9.06-11.73-15.74-11.73-8.47,0-14.11,4.16-16.19,11.73h31.93Z"/>
    <path d="M646.69,467.33v25.25c-9.21-1.49-22.28,2.23-22.28,16.93v33.56h-22.28v-74.26h22.28v13.22c2.97-9.95,12.92-14.7,22.28-14.7Z"/>
    <path d="M749.91,491.09c0,28.66-20.35,51.98-49.01,51.98h-39.06v-103.96h39.06c28.66,0,49.01,23.32,49.01,51.98ZM742.18,491.09c0-24.65-16.78-44.55-41.29-44.55h-31.19v89.11h31.19c24.51,0,41.29-19.9,41.29-44.56Z"/>
    <path d="M800.55,467.77v7.13c-12.77,0-24.8,7.87-24.8,26.88v41.29h-7.43v-74.26h7.43v14.55c5.05-11.73,14.7-15.59,24.8-15.59Z"/>
    <path d="M884.01,468.81v74.26h-7.57v-16.78c-6.24,11.14-17.67,18.42-31.93,18.42-21.09,0-38.46-16.78-38.46-38.76s17.38-38.76,38.46-38.76c14.26,0,25.69,7.28,31.93,18.42v-16.78h7.57ZM876.44,505.94c0-17.67-13.66-31.63-31.34-31.63s-31.48,13.96-31.48,31.63,13.81,31.63,31.48,31.63,31.34-13.96,31.34-31.63Z"/>
    <path d="M904.65,444.9c0-3.12,2.67-5.79,5.94-5.79s5.94,2.67,5.94,5.79-2.67,5.94-5.94,5.94-5.94-2.67-5.94-5.94ZM906.88,468.81h7.43v74.26h-7.43v-74.26Z"/>
    <path d="M1000,496.88v46.19h-7.57v-46.19c0-13.66-7.87-22.57-21.83-22.57s-25.99,9.51-25.99,29.56v39.21h-7.43v-74.26h7.43v14.11c5.64-10.99,15.15-15.74,26.58-15.74,17.67,0,28.81,11.73,28.81,29.7Z"/>
  </g>
</svg>