<?xml version="1.0" encoding="UTF-8"?>
<svg id="Design" xmlns="http://www.w3.org/2000/svg" viewBox="0 0 512 512">
  <g>
    <g>
      <path d="M79.46,243.35v20.46c0,11.66-6.71,22.7-18.88,31.11l-6.79,4.7-2.01,1.39h-31.28c-1.06,0-2.03-.41-2.72-1.08-.69-.66-1.12-1.58-1.12-2.6,0-1.82,1.37-3.31,3.16-3.62.22-.04.46-.06.68-.06h34.07c.94,0,1.78-.37,2.39-.94.62-.6,1-1.4,1-2.3,0-1.79-1.52-3.23-3.39-3.23h-12.64c-1.11,0-2.11-.43-2.83-1.12-.72-.69-1.18-1.65-1.18-2.7,0-2.11,1.8-3.82,4.01-3.82h10.48c.94,0,1.78-.36,2.39-.96.62-.58,1-1.39,1-2.28,0-1.8-1.52-3.24-3.39-3.24h-26.67c-1.49,0-2.83-.57-3.81-1.5-.99-.93-1.59-2.22-1.59-3.64,0-2.85,2.41-5.16,5.39-5.16h11.57c1.27,0,2.43-.49,3.27-1.28.83-.81,1.36-1.9,1.36-3.13,0-2.43-2.08-4.41-4.62-4.41H5.55c-1.53,0-2.92-.59-3.92-1.55-1.01-.95-1.63-2.28-1.63-3.73,0-2.93,2.48-5.3,5.55-5.3h73.91Z"/>
      <polygon points="64.04 303.76 48.57 314.44 33.12 303.76 64.04 303.76"/>
      <path d="M31.36,290.87h-10.87c-.41,0-.79.03-1.17.1-.18.03-.37.07-.54.12-6.68-8.19-10.33-17.63-10.33-27.28v-7.09h9.25v7.09c0,.77.03,1.53.09,2.3v.02c.02.25.04.5.07.75.03.26.05.51.09.77.07.51.14,1.02.24,1.53.09.51.2,1.02.31,1.52.11.49.24.99.38,1.48,0,.01,0,.02,0,.03,1.93,6.76,6.19,13.13,12.49,18.65Z"/>
      <path d="M88.7,230.25v33.56c0,13.21-6.85,26.05-18.95,35.8-.58.47-1.18.94-1.79,1.39h-16.19l2.01-1.39,6.79-4.7c12.18-8.4,18.88-19.45,18.88-31.11v-24.3H17.7v1.07h-9.25v-10.33h80.25Z"/>
      <path d="M17.79,266.1c.02.26.04.51.06.77-.03-.25-.05-.5-.07-.75,0,0,0-.01,0-.02Z"/>
      <path d="M18.88,272.21s-.01-.02-.01-.03c-.14-.49-.27-.98-.38-1.48.12.5.25,1,.39,1.5Z"/>
    </g>
    <path d="M46.93,197.56c-16.68,0-30.81,11.75-35.28,27.81h9.4c4.07-11.03,14.13-18.85,25.89-18.85s21.82,7.83,25.89,18.85h9.4c-4.48-16.06-18.6-27.81-35.28-27.81Z"/>
  </g>
  <g>
    <path d="M119.95,251.44c0-15.66,11.63-27.68,27.68-27.68,9.66,0,18.17,4.79,22.81,12.32l-10.49,6.08c-2.36-4.11-6.92-6.54-12.32-6.54-9.43,0-15.51,6.31-15.51,15.82s6.08,15.82,15.51,15.82c5.4,0,10.04-2.43,12.32-6.54l10.49,6.08c-4.56,7.53-13.08,12.32-22.81,12.32-16.04,0-27.68-12.01-27.68-27.68Z"/>
    <path d="M212.64,240.03l-13,36.88c-4.26,12.09-11.03,16.88-21.67,16.35v-10.65c5.32,0,7.83-1.67,9.51-6.31l-15.13-36.27h12.55l8.44,23.27,7.15-23.27h12.17Z"/>
    <path d="M257.73,259.04c0,11.33-8.21,20.07-18.17,20.07-5.09,0-8.82-1.75-11.33-4.64v3.57h-11.41v-53.23h11.41v18.78c2.51-2.89,6.24-4.64,11.33-4.64,9.96,0,18.17,8.74,18.17,20.08ZM246.32,259.04c0-5.7-3.8-9.28-9.05-9.28s-9.05,3.57-9.05,9.28,3.8,9.28,9.05,9.28,9.05-3.57,9.05-9.28Z"/>
    <path d="M283.51,268.93c3.12,0,5.78-1.22,7.3-2.89l9.12,5.25c-3.73,5.17-9.35,7.83-16.58,7.83-13,0-21.06-8.74-21.06-20.07s8.21-20.08,20.23-20.08c11.1,0,19.31,8.59,19.31,20.08,0,1.6-.15,3.12-.46,4.56h-26.99c1.44,3.95,4.94,5.32,9.13,5.32ZM290.5,255.09c-1.22-4.41-4.64-6.01-8.06-6.01-4.33,0-7.22,2.13-8.29,6.01h16.35Z"/>
    <path d="M331.11,239.27v12.93c-4.71-.76-11.41,1.14-11.41,8.67v17.18h-11.41v-38.02h11.41v6.77c1.52-5.09,6.62-7.53,11.41-7.53Z"/>
    <path d="M383.95,251.44c0,14.68-10.42,26.61-25.09,26.61h-20v-53.23h20c14.68,0,25.09,11.94,25.09,26.61ZM380,251.44c0-12.62-8.59-22.81-21.14-22.81h-15.97v45.62h15.97c12.55,0,21.14-10.19,21.14-22.81Z"/>
    <path d="M409.88,239.5v3.65c-6.54,0-12.7,4.03-12.7,13.76v21.14h-3.8v-38.02h3.8v7.45c2.59-6.01,7.53-7.98,12.7-7.98Z"/>
    <path d="M452.61,240.03v38.02h-3.88v-8.59c-3.19,5.7-9.05,9.43-16.35,9.43-10.8,0-19.69-8.59-19.69-19.85s8.9-19.85,19.69-19.85c7.3,0,13.16,3.73,16.35,9.43v-8.59h3.88ZM448.74,259.04c0-9.05-7-16.2-16.04-16.2s-16.12,7.15-16.12,16.2,7.07,16.2,16.12,16.2,16.04-7.15,16.04-16.2Z"/>
    <path d="M463.18,227.79c0-1.6,1.37-2.97,3.04-2.97s3.04,1.37,3.04,2.97-1.37,3.04-3.04,3.04-3.04-1.37-3.04-3.04ZM464.32,240.03h3.8v38.02h-3.8v-38.02Z"/>
    <path d="M512,254.4v23.65h-3.88v-23.65c0-7-4.03-11.56-11.18-11.56s-13.31,4.87-13.31,15.13v20.07h-3.8v-38.02h3.8v7.22c2.89-5.63,7.76-8.06,13.61-8.06,9.05,0,14.75,6.01,14.75,15.21Z"/>
  </g>
</svg>