<?xml version="1.0" encoding="UTF-8"?>
<svg id="Design" xmlns="http://www.w3.org/2000/svg" viewBox="0 0 100 100">
  <g>
    <g>
      <path d="M15.52,47.53v4c0,2.28-1.31,4.43-3.69,6.08l-1.33.92-.39.27h-6.11c-.21,0-.4-.08-.53-.21-.13-.13-.22-.31-.22-.51,0-.35.27-.65.62-.71.04,0,.09-.01.13-.01h6.65c.18,0,.35-.07.47-.18.12-.12.19-.27.19-.45,0-.35-.3-.63-.66-.63h-2.47c-.22,0-.41-.08-.55-.22-.14-.13-.23-.32-.23-.53,0-.41.35-.75.78-.75h2.05c.18,0,.35-.07.47-.19.12-.11.19-.27.19-.44,0-.35-.3-.63-.66-.63h-5.21c-.29,0-.55-.11-.74-.29-.19-.18-.31-.43-.31-.71,0-.56.47-1.01,1.05-1.01h2.26c.25,0,.48-.1.64-.25.16-.16.26-.37.26-.61,0-.48-.41-.86-.9-.86H1.08c-.3,0-.57-.12-.77-.3-.2-.19-.32-.44-.32-.73,0-.57.48-1.03,1.08-1.03h14.43Z"/>
      <polygon points="12.51 59.33 9.49 61.41 6.47 59.33 12.51 59.33"/>
      <path d="M6.13,56.81h-2.12c-.08,0-.15,0-.23.02-.04,0-.07.01-.11.02-1.3-1.6-2.02-3.44-2.02-5.33v-1.39h1.81v1.39c0,.15,0,.3.02.45h0c0,.05,0,.1.01.15,0,.05.01.1.02.15.01.1.03.2.05.3.02.1.04.2.06.3.02.1.05.19.07.29,0,0,0,0,0,0,.38,1.32,1.21,2.56,2.44,3.64Z"/>
      <path d="M17.32,44.97v6.55c0,2.58-1.34,5.09-3.7,6.99-.11.09-.23.18-.35.27h-3.16l.39-.27,1.33-.92c2.38-1.64,3.69-3.8,3.69-6.08v-4.75H3.46v.21h-1.81v-2.02h15.67Z"/>
      <path d="M3.48,51.97c0,.05,0,.1.01.15,0-.05,0-.1-.01-.15,0,0,0,0,0,0Z"/>
      <path d="M3.69,53.17s0,0,0,0c-.03-.1-.05-.19-.07-.29.02.1.05.2.08.29Z"/>
    </g>
    <path d="M9.17,38.59c-3.26,0-6.02,2.3-6.89,5.43h1.84c.79-2.15,2.76-3.68,5.06-3.68s4.26,1.53,5.06,3.68h1.84c-.87-3.14-3.63-5.43-6.89-5.43Z"/>
  </g>
  <g>
    <path d="M23.43,49.11c0-3.06,2.27-5.41,5.41-5.41,1.89,0,3.55.94,4.46,2.41l-2.05,1.19c-.46-.8-1.35-1.28-2.41-1.28-1.84,0-3.03,1.23-3.03,3.09s1.19,3.09,3.03,3.09c1.05,0,1.96-.48,2.41-1.28l2.05,1.19c-.89,1.47-2.55,2.41-4.46,2.41-3.13,0-5.41-2.35-5.41-5.41Z"/>
    <path d="M41.53,46.88l-2.54,7.2c-.83,2.36-2.15,3.3-4.23,3.19v-2.08c1.04,0,1.53-.33,1.86-1.23l-2.96-7.08h2.45l1.65,4.54,1.4-4.54h2.38Z"/>
    <path d="M50.34,50.59c0,2.21-1.6,3.92-3.55,3.92-1,0-1.72-.34-2.21-.91v.7h-2.23v-10.4h2.23v3.67c.49-.56,1.22-.91,2.21-.91,1.95,0,3.55,1.71,3.55,3.92ZM48.11,50.59c0-1.11-.74-1.81-1.77-1.81s-1.77.7-1.77,1.81.74,1.81,1.77,1.81,1.77-.7,1.77-1.81Z"/>
    <path d="M55.37,52.52c.61,0,1.13-.24,1.43-.56l1.78,1.02c-.73,1.01-1.83,1.53-3.24,1.53-2.54,0-4.11-1.71-4.11-3.92s1.6-3.92,3.95-3.92c2.17,0,3.77,1.68,3.77,3.92,0,.31-.03.61-.09.89h-5.27c.28.77.97,1.04,1.78,1.04ZM56.74,49.82c-.24-.86-.91-1.17-1.57-1.17-.85,0-1.41.42-1.62,1.17h3.19Z"/>
    <path d="M64.67,46.73v2.52c-.92-.15-2.23.22-2.23,1.69v3.36h-2.23v-7.43h2.23v1.32c.3-1,1.29-1.47,2.23-1.47Z"/>
    <path d="M74.99,49.11c0,2.87-2.03,5.2-4.9,5.2h-3.91v-10.4h3.91c2.87,0,4.9,2.33,4.9,5.2ZM74.22,49.11c0-2.47-1.68-4.46-4.13-4.46h-3.12v8.91h3.12c2.45,0,4.13-1.99,4.13-4.46Z"/>
    <path d="M80.05,46.78v.71c-1.28,0-2.48.79-2.48,2.69v4.13h-.74v-7.43h.74v1.46c.5-1.17,1.47-1.56,2.48-1.56Z"/>
    <path d="M88.4,46.88v7.43h-.76v-1.68c-.62,1.11-1.77,1.84-3.19,1.84-2.11,0-3.85-1.68-3.85-3.88s1.74-3.88,3.85-3.88c1.43,0,2.57.73,3.19,1.84v-1.68h.76ZM87.64,50.59c0-1.77-1.37-3.16-3.13-3.16s-3.15,1.4-3.15,3.16,1.38,3.16,3.15,3.16,3.13-1.4,3.13-3.16Z"/>
    <path d="M90.47,44.49c0-.31.27-.58.59-.58s.59.27.59.58-.27.59-.59.59-.59-.27-.59-.59ZM90.69,46.88h.74v7.43h-.74v-7.43Z"/>
    <path d="M100,49.69v4.62h-.76v-4.62c0-1.37-.79-2.26-2.18-2.26s-2.6.95-2.6,2.96v3.92h-.74v-7.43h.74v1.41c.56-1.1,1.51-1.57,2.66-1.57,1.77,0,2.88,1.17,2.88,2.97Z"/>
  </g>
</svg>