<?xml version="1.0" encoding="UTF-8"?>
<svg id="Design" xmlns="http://www.w3.org/2000/svg" viewBox="0 0 500 500">
  <g>
    <g>
      <path d="M77.59,237.65v19.98c0,11.39-6.55,22.17-18.44,30.38l-6.63,4.59-1.97,1.36h-30.54c-1.04,0-1.98-.4-2.66-1.06-.67-.65-1.1-1.54-1.1-2.53,0-1.77,1.34-3.24,3.09-3.53.22-.04.45-.06.67-.06h33.27c.91,0,1.74-.36,2.34-.92.6-.58.97-1.37.97-2.24,0-1.75-1.48-3.16-3.31-3.16h-12.34c-1.09,0-2.06-.42-2.77-1.09-.71-.67-1.15-1.61-1.15-2.64,0-2.06,1.75-3.73,3.92-3.73h10.24c.91,0,1.74-.35,2.34-.93.6-.56.97-1.36.97-2.22,0-1.75-1.48-3.16-3.31-3.16h-26.04c-1.46,0-2.77-.56-3.72-1.47-.97-.91-1.55-2.17-1.55-3.55,0-2.79,2.36-5.04,5.27-5.04h11.29c1.24,0,2.38-.48,3.19-1.25.81-.79,1.32-1.86,1.32-3.06,0-2.38-2.03-4.31-4.51-4.31H5.42c-1.5,0-2.85-.58-3.83-1.52-.99-.93-1.59-2.22-1.59-3.65,0-2.87,2.42-5.17,5.42-5.17h72.17Z"/>
      <polygon points="62.53 296.64 47.44 307.07 32.34 296.64 62.53 296.64"/>
      <path d="M30.63,284.05h-10.61c-.4,0-.77.03-1.14.1-.18.03-.36.07-.53.11-6.52-8-10.09-17.22-10.09-26.64v-6.93h9.03v6.93c0,.75.03,1.5.09,2.24v.02c.02.24.04.49.07.73.03.25.05.5.09.75.07.5.14,1,.23,1.5.09.5.19.99.3,1.49.11.48.23.97.37,1.44,0,.01,0,.02,0,.03,1.89,6.6,6.04,12.82,12.19,18.22Z"/>
      <path d="M86.62,224.85v32.77c0,12.9-6.69,25.43-18.51,34.96-.57.46-1.15.91-1.75,1.36h-15.81l1.97-1.36,6.63-4.59c11.89-8.2,18.44-18.99,18.44-30.38v-23.73H17.28v1.05h-9.03v-10.08h78.37Z"/>
      <path d="M17.38,259.87c.02.25.04.5.06.75-.03-.24-.05-.49-.07-.73,0,0,0-.01,0-.02Z"/>
      <path d="M18.44,265.83s-.01-.02-.01-.03c-.14-.48-.26-.96-.37-1.44.11.49.24.98.38,1.47Z"/>
    </g>
    <path d="M45.83,192.93c-16.29,0-30.09,11.48-34.46,27.15h9.18c3.97-10.77,13.8-18.41,25.28-18.41s21.31,7.64,25.28,18.41h9.18c-4.37-15.68-18.17-27.15-34.46-27.15Z"/>
  </g>
  <g>
    <path d="M117.13,245.54c0-15.3,11.36-27.03,27.03-27.03,9.43,0,17.75,4.68,22.28,12.03l-10.25,5.94c-2.3-4.01-6.76-6.39-12.03-6.39-9.21,0-15.15,6.16-15.15,15.45s5.94,15.45,15.15,15.45c5.27,0,9.8-2.38,12.03-6.39l10.25,5.94c-4.46,7.35-12.77,12.03-22.28,12.03-15.67,0-27.03-11.73-27.03-27.03Z"/>
    <path d="M207.65,234.41l-12.7,36.02c-4.16,11.81-10.77,16.49-21.16,15.97v-10.4c5.2,0,7.65-1.63,9.28-6.16l-14.78-35.42h12.25l8.24,22.72,6.98-22.72h11.88Z"/>
    <path d="M251.69,252.97c0,11.06-8.02,19.6-17.75,19.6-4.98,0-8.61-1.71-11.06-4.53v3.49h-11.14v-51.98h11.14v18.34c2.45-2.82,6.09-4.53,11.06-4.53,9.73,0,17.75,8.54,17.75,19.6ZM240.55,252.97c0-5.57-3.71-9.06-8.84-9.06s-8.84,3.49-8.84,9.06,3.71,9.06,8.84,9.06,8.84-3.49,8.84-9.06Z"/>
    <path d="M276.86,262.62c3.04,0,5.64-1.19,7.13-2.82l8.91,5.12c-3.64,5.05-9.13,7.65-16.19,7.65-12.7,0-20.57-8.54-20.57-19.6s8.02-19.6,19.75-19.6c10.84,0,18.86,8.39,18.86,19.6,0,1.56-.15,3.04-.45,4.46h-26.36c1.41,3.86,4.83,5.2,8.91,5.2ZM283.69,249.11c-1.19-4.31-4.53-5.87-7.87-5.87-4.23,0-7.05,2.08-8.09,5.87h15.97Z"/>
    <path d="M323.34,233.66v12.62c-4.6-.74-11.14,1.11-11.14,8.47v16.78h-11.14v-37.13h11.14v6.61c1.49-4.98,6.46-7.35,11.14-7.35Z"/>
    <path d="M374.95,245.54c0,14.33-10.17,25.99-24.51,25.99h-19.53v-51.98h19.53c14.33,0,24.51,11.66,24.51,25.99ZM371.09,245.54c0-12.33-8.39-22.28-20.64-22.28h-15.59v44.55h15.59c12.25,0,20.64-9.95,20.64-22.28Z"/>
    <path d="M400.27,233.89v3.56c-6.39,0-12.4,3.94-12.4,13.44v20.64h-3.71v-37.13h3.71v7.28c2.52-5.87,7.35-7.8,12.4-7.8Z"/>
    <path d="M442.01,234.41v37.13h-3.79v-8.39c-3.12,5.57-8.84,9.21-15.97,9.21-10.54,0-19.23-8.39-19.23-19.38s8.69-19.38,19.23-19.38c7.13,0,12.85,3.64,15.97,9.21v-8.39h3.79ZM438.22,252.97c0-8.84-6.83-15.82-15.67-15.82s-15.74,6.98-15.74,15.82,6.91,15.82,15.74,15.82,15.67-6.98,15.67-15.82Z"/>
    <path d="M452.33,222.45c0-1.56,1.34-2.9,2.97-2.9s2.97,1.34,2.97,2.9-1.34,2.97-2.97,2.97-2.97-1.34-2.97-2.97ZM453.44,234.41h3.71v37.13h-3.71v-37.13Z"/>
    <path d="M500,248.44v23.09h-3.79v-23.09c0-6.83-3.94-11.29-10.92-11.29s-12.99,4.75-12.99,14.78v19.6h-3.71v-37.13h3.71v7.05c2.82-5.5,7.57-7.87,13.29-7.87,8.84,0,14.41,5.87,14.41,14.85Z"/>
  </g>
</svg>