<?xml version="1.0" encoding="UTF-8"?>
<svg id="Design" xmlns="http://www.w3.org/2000/svg" viewBox="0 0 64 64">
  <defs>
    <style>
      .cls-1 {
        fill: #fff;
      }

      .cls-2 {
        fill: #003049;
      }
    </style>
  </defs>
  <g>
    <path class="cls-1" d="M51.22,25.07v11.2c0,6.39-3.67,12.43-10.34,17.03l-3.72,2.57-1.1.76h-17.13c-.58,0-1.11-.23-1.49-.59-.38-.36-.62-.86-.62-1.42,0-.99.75-1.81,1.73-1.98.12-.02.25-.03.37-.03h18.65c.51,0,.98-.2,1.31-.52.34-.33.55-.77.55-1.26,0-.98-.83-1.77-1.86-1.77h-6.92c-.61,0-1.15-.23-1.55-.61-.4-.38-.65-.91-.65-1.48,0-1.15.98-2.09,2.2-2.09h5.74c.51,0,.98-.2,1.31-.52.34-.32.55-.76.55-1.25,0-.98-.83-1.77-1.86-1.77h-14.6c-.82,0-1.55-.31-2.09-.82-.54-.51-.87-1.22-.87-1.99,0-1.56,1.32-2.82,2.95-2.82h6.33c.7,0,1.33-.27,1.79-.7.46-.44.74-1.04.74-1.71,0-1.33-1.14-2.42-2.53-2.42H10.75c-.84,0-1.6-.32-2.15-.85-.55-.52-.89-1.25-.89-2.04,0-1.61,1.36-2.9,3.04-2.9h40.47Z"/>
    <polygon class="cls-2" points="42.78 58.15 34.31 64 25.85 58.15 42.78 58.15"/>
    <path class="cls-2" d="M24.89,51.09h-5.95c-.22,0-.43.02-.64.06-.1.02-.2.04-.3.06-3.66-4.49-5.66-9.65-5.66-14.94v-3.88h5.06v3.88c0,.42.01.84.05,1.26h0c.01.15.02.29.04.42.01.14.03.28.05.42.04.28.08.56.13.84.05.28.11.56.17.83.06.27.13.54.21.81,0,0,0,.01,0,.02,1.06,3.7,3.39,7.19,6.84,10.21Z"/>
    <path class="cls-2" d="M56.28,17.9v18.38c0,7.23-3.75,14.26-10.38,19.6-.32.26-.65.51-.98.76h-8.86l1.1-.76,3.72-2.57c6.67-4.6,10.34-10.65,10.34-17.03v-13.31H17.41v.59h-5.06v-5.65h43.94Z"/>
    <path class="cls-2" d="M17.46,37.53c.01.14.02.28.03.42-.01-.14-.03-.27-.04-.41,0,0,0,0,0-.01Z"/>
    <path class="cls-2" d="M18.06,40.87s0-.01,0-.01c-.08-.27-.15-.54-.21-.81.06.27.14.55.22.82Z"/>
  </g>
  <path class="cls-1" d="M33.41,0c-9.13,0-16.87,6.43-19.32,15.23h5.15c2.23-6.04,7.74-10.32,14.17-10.32s11.95,4.29,14.17,10.32h5.15C50.28,6.43,42.55,0,33.41,0Z"/>
</svg>