<?xml version="1.0" encoding="UTF-8"?>
<svg id="Design" xmlns="http://www.w3.org/2000/svg" viewBox="0 0 48 48">
  <defs>
    <style>
      .cls-1 {
        fill: #fff;
      }

      .cls-2 {
        fill: #003049;
      }
    </style>
  </defs>
  <g>
    <path class="cls-1" d="M38.42,18.81v8.4c0,4.79-2.75,9.32-7.76,12.77l-2.79,1.93-.83.57h-12.84c-.44,0-.83-.17-1.12-.45-.28-.27-.46-.65-.46-1.07,0-.75.56-1.36,1.3-1.49.09-.02.19-.03.28-.03h13.99c.38,0,.73-.15.98-.39.25-.24.41-.58.41-.94,0-.73-.62-1.33-1.39-1.33h-5.19c-.46,0-.87-.18-1.16-.46-.3-.28-.48-.68-.48-1.11,0-.87.74-1.57,1.65-1.57h4.3c.38,0,.73-.15.98-.39.25-.24.41-.57.41-.93,0-.74-.62-1.33-1.39-1.33h-10.95c-.61,0-1.16-.23-1.56-.62-.41-.38-.65-.91-.65-1.49,0-1.17.99-2.12,2.21-2.12h4.75c.52,0,1-.2,1.34-.53.34-.33.56-.78.56-1.29,0-1-.85-1.81-1.9-1.81h-13.04c-.63,0-1.2-.24-1.61-.64-.41-.39-.67-.93-.67-1.53,0-1.2,1.02-2.18,2.28-2.18h30.35Z"/>
    <polygon class="cls-2" points="32.08 43.61 25.73 48 19.39 43.61 32.08 43.61"/>
    <path class="cls-2" d="M18.67,38.32h-4.46c-.17,0-.33.01-.48.04-.08.01-.15.03-.22.05-2.74-3.36-4.24-7.24-4.24-11.2v-2.91h3.8v2.91c0,.31.01.63.04.94h0c0,.11.02.21.03.32.01.11.02.21.04.32.03.21.06.42.1.63.04.21.08.42.13.63.04.2.1.41.16.61,0,0,0,0,0,.01.79,2.78,2.54,5.39,5.13,7.66Z"/>
    <path class="cls-2" d="M42.21,13.42v13.78c0,5.43-2.81,10.7-7.78,14.7-.24.19-.48.38-.73.57h-6.65l.83-.57,2.79-1.93c5-3.45,7.76-7.99,7.76-12.77v-9.98H13.05v.44h-3.8v-4.24h32.96Z"/>
    <path class="cls-2" d="M13.09,28.15c0,.11.02.21.03.32-.01-.1-.02-.21-.03-.31,0,0,0,0,0,0Z"/>
    <path class="cls-2" d="M13.54,30.66s0,0,0-.01c-.06-.2-.11-.4-.16-.61.05.21.1.41.16.62Z"/>
  </g>
  <path class="cls-1" d="M25.06,0c-6.85,0-12.65,4.83-14.49,11.42h3.86c1.67-4.53,5.8-7.74,10.63-7.74s8.96,3.21,10.63,7.74h3.86c-1.84-6.59-7.64-11.42-14.49-11.42Z"/>
</svg>