<?xml version="1.0" encoding="UTF-8"?>
<svg id="Design" xmlns="http://www.w3.org/2000/svg" viewBox="0 0 3840 2160">
  <defs>
    <style>
      .cls-1 {
        fill: #fff;
      }

      .cls-2 {
        fill: #003049;
      }
    </style>
  </defs>
  <g>
    <path class="cls-1" d="M2568.81,846.24v378.03c0,215.5-123.96,419.6-348.98,574.87l-125.47,86.77-37.19,25.67h-578c-19.66,0-37.44-7.64-50.34-20.03-12.77-12.27-20.79-29.18-20.79-47.96,0-33.56,25.29-61.23,58.48-66.87,4.13-.75,8.51-1.13,12.65-1.13h629.58c17.28,0,32.93-6.76,44.2-17.41,11.39-11.02,18.41-25.92,18.41-42.45,0-33.06-28.05-59.73-62.61-59.73h-233.53c-20.54,0-38.94-7.89-52.34-20.66-13.4-12.77-21.79-30.55-21.79-49.96,0-38.94,33.18-70.62,74.13-70.62h193.71c17.28,0,32.93-6.64,44.2-17.66,11.39-10.64,18.41-25.67,18.41-42.07,0-33.18-28.05-59.85-62.61-59.85h-492.85c-27.55,0-52.34-10.52-70.37-27.8-18.28-17.16-29.3-41.07-29.3-67.24,0-52.72,44.58-95.29,99.67-95.29h213.74c23.54,0,44.95-9.14,60.35-23.67,15.4-14.9,25.04-35.19,25.04-57.85,0-44.95-38.44-81.51-85.4-81.51h-586.89c-28.3,0-53.97-10.89-72.5-28.67-18.66-17.53-30.05-42.07-30.05-68.99,0-54.22,45.83-97.92,102.55-97.92h1365.85Z"/>
    <polygon class="cls-2" points="2283.81 1962.66 1998.07 2160 1712.46 1962.66 2283.81 1962.66"/>
    <path class="cls-2" d="M1680.02,1724.37h-200.85c-7.51,0-14.65.63-21.66,1.88-3.38.63-6.76,1.25-10.02,2.13-123.46-151.39-190.95-325.81-190.95-504.12v-131.1h170.92v131.1c0,14.15.5,28.3,1.63,42.45v.38c.38,4.63.75,9.27,1.25,13.9.5,4.76,1,9.52,1.63,14.27,1.25,9.39,2.63,18.91,4.38,28.3,1.63,9.39,3.63,18.78,5.76,28.17,2,9.14,4.38,18.28,7.01,27.3,0,.25.13.38.13.63,35.69,124.97,114.32,242.67,230.77,344.72Z"/>
    <path class="cls-2" d="M2739.6,604.07v620.19c0,244.17-126.59,481.33-350.23,661.64-10.77,8.64-21.79,17.28-33.06,25.67h-299.14l37.19-25.67,125.47-86.77c225.01-155.27,348.98-359.37,348.98-574.87v-449.15h-1141.34v19.78h-170.92v-190.83h1483.06Z"/>
    <path class="cls-2" d="M1429.22,1266.71c.38,4.76.75,9.52,1.13,14.27-.5-4.63-.88-9.27-1.25-13.9,0-.13.13-.25.13-.38Z"/>
    <path class="cls-2" d="M1449.38,1379.53c-.13-.13-.25-.38-.25-.5-2.63-9.02-5.01-18.16-7.01-27.3,2.13,9.27,4.63,18.53,7.26,27.8Z"/>
  </g>
  <path class="cls-1" d="M1967.68,0c-308.29,0-569.37,217.16-652.08,513.87h173.7c75.19-203.77,261.22-348.45,478.38-348.45s403.19,144.67,478.38,348.45h173.7C2537.05,217.16,2275.98,0,1967.68,0Z"/>
</svg>