<?xml version="1.0" encoding="UTF-8"?>
<svg id="Design" xmlns="http://www.w3.org/2000/svg" viewBox="0 0 820 312">
  <defs>
    <style>
      .cls-1 {
        fill: #fff;
      }

      .cls-2 {
        fill: #003049;
      }
    </style>
  </defs>
  <g>
    <path class="cls-1" d="M503.72,122.23v54.6c0,31.13-17.91,60.61-50.41,83.04l-18.12,12.53-5.37,3.71h-83.49c-2.84,0-5.41-1.1-7.27-2.89-1.84-1.77-3-4.21-3-6.93,0-4.85,3.65-8.84,8.45-9.66.6-.11,1.23-.16,1.83-.16h90.94c2.5,0,4.76-.98,6.38-2.51,1.65-1.59,2.66-3.74,2.66-6.13,0-4.77-4.05-8.63-9.04-8.63h-33.73c-2.97,0-5.63-1.14-7.56-2.98-1.94-1.84-3.15-4.41-3.15-7.22,0-5.62,4.79-10.2,10.71-10.2h27.98c2.5,0,4.76-.96,6.38-2.55,1.65-1.54,2.66-3.71,2.66-6.08,0-4.79-4.05-8.65-9.04-8.65h-71.19c-3.98,0-7.56-1.52-10.16-4.02-2.64-2.48-4.23-5.93-4.23-9.71,0-7.61,6.44-13.76,14.4-13.76h30.87c3.4,0,6.49-1.32,8.72-3.42,2.22-2.15,3.62-5.08,3.62-8.36,0-6.49-5.55-11.77-12.34-11.77h-84.77c-4.09,0-7.8-1.57-10.47-4.14-2.69-2.53-4.34-6.08-4.34-9.97,0-7.83,6.62-14.14,14.81-14.14h197.29Z"/>
    <polygon class="cls-2" points="462.55 283.5 421.28 312 380.02 283.5 462.55 283.5"/>
    <path class="cls-2" d="M375.34,249.08h-29.01c-1.09,0-2.12.09-3.13.27-.49.09-.98.18-1.45.31-17.83-21.87-27.58-47.06-27.58-72.82v-18.94h24.69v18.94c0,2.04.07,4.09.24,6.13v.05c.05.67.11,1.34.18,2.01.07.69.14,1.37.24,2.06.18,1.36.38,2.73.63,4.09.24,1.36.52,2.71.83,4.07.29,1.32.63,2.64,1.01,3.94,0,.04.02.05.02.09,5.15,18.05,16.51,35.05,33.33,49.79Z"/>
    <path class="cls-2" d="M528.39,87.25v89.58c0,35.27-18.29,69.53-50.59,95.57-1.56,1.25-3.15,2.5-4.77,3.71h-43.21l5.37-3.71,18.12-12.53c32.5-22.43,50.41-51.91,50.41-83.04v-64.88h-164.86v2.86h-24.69v-27.56h214.22Z"/>
    <path class="cls-2" d="M339.11,182.97c.05.69.11,1.37.16,2.06-.07-.67-.13-1.34-.18-2.01,0-.02.02-.04.02-.05Z"/>
    <path class="cls-2" d="M342.02,199.27s-.04-.05-.04-.07c-.38-1.3-.72-2.62-1.01-3.94.31,1.34.67,2.68,1.05,4.02Z"/>
  </g>
  <path class="cls-1" d="M416.89,0c-44.53,0-82.24,31.37-94.19,74.23h25.09c10.86-29.43,37.73-50.33,69.1-50.33s58.24,20.9,69.1,50.33h25.09C499.13,31.37,461.42,0,416.89,0Z"/>
</svg>