<?xml version="1.0" encoding="UTF-8"?>
<svg id="Design" xmlns="http://www.w3.org/2000/svg" viewBox="0 0 1280 1024">
  <defs>
    <style>
      .cls-1 {
        fill: #fff;
      }

      .cls-2 {
        fill: #003049;
      }

      .cls-3 {
        fill: #f47f20;
      }
    </style>
  </defs>
  <path class="cls-1" d="M1227.42,468.34c-32.94-37.35-74.01-57.58-122.07-60.66-2.14-14.95-4.12-24.41-4.12-24.41-25.67-119.84-130.29-197.26-266.53-197.26-37.4,0-74.21,7.51-108.18,21.92-69.37-74.42-165.54-116.47-268.85-116.47-176.14,0-324.41,117.83-360.55,286.55,0,0-7.14,33.91-9.76,65.05-9.81,6.86-19.2,14.54-28.01,23.35C19.97,505.77,0,554.92,0,612.47s19.97,106.7,59.34,146.06c39.36,39.38,88.92,59.35,147.3,59.35,37.85,0,72.93-9.19,104.28-27.31,9.4-5.44,18.13-11.57,26.31-18.22v36.9h151.54v123.31h187.65v-120.11c14.04,3.6,29.05,5.44,44.89,5.44,53.03,0,98.3-20.27,134.94-60.66,1.31-1.48,2.42-3.06,3.68-4.57v179.91h187.65v-120.11c14.04,3.6,29.05,5.44,44.89,5.44,53.03,0,98.3-20.27,134.94-60.66,34.89-39.54,52.59-88.23,52.59-144.75s-17.76-105.18-52.58-144.12Z"/>
  <g>
    <path class="cls-3" d="M1033.18,424.74c-12.41,0-23.57-8.64-26.28-21.27-16.47-76.9-79.24-121-172.21-121-39.95,0-77.8,12.79-109.46,36.98-5.96,4.57-13.56,6.42-20.96,5.13-7.4-1.29-13.92-5.61-17.99-11.92-50.37-78.11-135.84-124.74-228.63-124.74-130.23,0-239.71,86.48-266.23,210.3-3.11,14.53-17.43,23.79-31.94,20.67-14.53-3.11-23.78-17.41-20.67-31.94,31.89-148.86,163-252.83,318.84-252.83,101.96,0,196.53,46.99,258.03,126.96,35.9-21.28,76.54-32.41,119-32.41,117.06,0,203.22,62.66,224.83,163.54,3.11,14.53-6.14,28.83-20.67,31.94-1.9.4-3.8.6-5.66.6Z"/>
    <g>
      <g>
        <path class="cls-2" d="M206.64,775.22c-46.85,0-85.9-15.61-117.13-46.85-31.24-31.23-46.85-69.87-46.85-115.9s15.61-84.66,46.85-115.91c31.23-31.23,70.28-46.85,117.13-46.85,30.41,0,58.05,7.09,82.92,21.27,24.86,14.18,44.08,33.6,57.64,58.26l-87.54,50.55c-11.1-20.13-28.98-30.21-53.64-30.21-17.26,0-31.65,5.86-43.16,17.57-11.51,11.71-17.26,26.81-17.26,45.31s5.75,33.6,17.26,45.31c11.5,11.71,25.89,17.57,43.16,17.57,25.06,0,42.94-10.27,53.64-30.83l87.54,50.55c-13.56,24.66-32.78,44.19-57.64,58.57-24.87,14.38-52.51,21.57-82.92,21.57Z"/>
        <rect class="cls-2" x="379.89" y="458.33" width="102.34" height="308.25"/>
        <path class="cls-2" d="M721.31,449.7c41.09,0,75.42,15.62,102.96,46.85,27.94,31.24,41.92,69.88,41.92,115.91s-13.98,84.87-41.92,116.52c-27.95,30.82-62.27,46.23-102.96,46.23-37.4,0-66.59-12.33-87.54-36.99v151.66h-102.34v-431.56h102.34v28.36c20.96-24.66,50.14-36.99,87.54-36.99ZM651.64,661.17c11.92,12.33,27.53,18.5,46.85,18.5s34.93-6.17,46.85-18.5c11.92-12.73,17.88-28.98,17.88-48.7s-5.96-35.96-17.88-48.71c-11.92-12.33-27.54-18.49-46.85-18.49s-34.94,6.16-46.85,18.49c-11.92,12.74-17.88,28.98-17.88,48.71s5.96,35.97,17.88,48.7Z"/>
        <path class="cls-2" d="M1092.47,449.7c41.09,0,75.42,15.62,102.96,46.85,27.94,31.24,41.92,69.88,41.92,115.91s-13.98,84.87-41.92,116.52c-27.95,30.82-62.27,46.23-102.96,46.23-37.4,0-66.59-12.33-87.54-36.99v151.66h-102.34v-431.56h102.34v28.36c20.96-24.66,50.14-36.99,87.54-36.99ZM1022.8,661.17c11.92,12.33,27.53,18.5,46.85,18.5s34.93-6.17,46.85-18.5c11.92-12.73,17.88-28.98,17.88-48.7s-5.96-35.96-17.88-48.71c-11.92-12.33-27.54-18.49-46.85-18.49s-34.94,6.16-46.85,18.49c-11.92,12.74-17.88,28.98-17.88,48.71s5.96,35.97,17.88,48.7Z"/>
      </g>
      <circle class="cls-3" cx="431.38" cy="373.88" r="58.86"/>
    </g>
  </g>
</svg>