<?xml version="1.0" encoding="UTF-8"?>
<svg id="Design" xmlns="http://www.w3.org/2000/svg" viewBox="0 0 100 100">
  <defs>
    <style>
      .cls-1 {
        fill: #fff;
      }

      .cls-2 {
        fill: #003049;
      }

      .cls-3 {
        fill: #f47f20;
      }
    </style>
  </defs>
  <path class="cls-1" d="M95.89,46.59c-2.57-2.92-5.78-4.5-9.54-4.74-.17-1.17-.32-1.91-.32-1.91-2.01-9.36-10.18-15.41-20.82-15.41-2.92,0-5.8.59-8.45,1.71-5.42-5.81-12.93-9.1-21-9.1-13.76,0-25.34,9.21-28.17,22.39,0,0-.56,2.65-.76,5.08-.77.54-1.5,1.14-2.19,1.82-3.08,3.08-4.64,6.92-4.64,11.41s1.56,8.34,4.64,11.41c3.08,3.08,6.95,4.64,11.51,4.64,2.96,0,5.7-.72,8.15-2.13.73-.43,1.42-.9,2.06-1.42v2.88h11.84v9.63h14.66v-9.38c1.1.28,2.27.42,3.51.42,4.14,0,7.68-1.58,10.54-4.74.1-.12.19-.24.29-.36v14.06h14.66v-9.38c1.1.28,2.27.42,3.51.42,4.14,0,7.68-1.58,10.54-4.74,2.73-3.09,4.11-6.89,4.11-11.31s-1.39-8.22-4.11-11.26Z"/>
  <g>
    <path class="cls-3" d="M80.72,43.18c-.97,0-1.84-.68-2.05-1.66-1.29-6.01-6.19-9.45-13.45-9.45-3.12,0-6.08,1-8.55,2.89-.47.36-1.06.5-1.64.4-.58-.1-1.09-.44-1.41-.93-3.94-6.1-10.61-9.75-17.86-9.75-10.17,0-18.73,6.76-20.8,16.43-.24,1.14-1.36,1.86-2.5,1.61-1.13-.24-1.86-1.36-1.61-2.5,2.49-11.63,12.73-19.75,24.91-19.75,7.97,0,15.35,3.67,20.16,9.92,2.81-1.66,5.98-2.53,9.3-2.53,9.15,0,15.88,4.9,17.56,12.78.24,1.13-.48,2.25-1.61,2.5-.15.03-.3.05-.44.05Z"/>
    <g>
      <g>
        <path class="cls-2" d="M16.14,70.56c-3.66,0-6.71-1.22-9.15-3.66-2.44-2.44-3.66-5.46-3.66-9.05s1.22-6.61,3.66-9.06,5.49-3.66,9.15-3.66c2.38,0,4.54.55,6.48,1.66,1.94,1.11,3.44,2.62,4.5,4.55l-6.84,3.95c-.87-1.57-2.26-2.36-4.19-2.36-1.35,0-2.47.46-3.37,1.37-.9.91-1.35,2.09-1.35,3.54s.45,2.62,1.35,3.54c.9.91,2.02,1.37,3.37,1.37,1.96,0,3.35-.8,4.19-2.41l6.84,3.95c-1.06,1.93-2.56,3.45-4.5,4.58-1.94,1.12-4.1,1.69-6.48,1.69Z"/>
        <rect class="cls-2" x="29.68" y="45.81" width="8" height="24.08"/>
        <path class="cls-2" d="M56.35,45.13c3.21,0,5.89,1.22,8.04,3.66,2.18,2.44,3.27,5.46,3.27,9.06s-1.09,6.63-3.27,9.1c-2.18,2.41-4.86,3.61-8.04,3.61-2.92,0-5.2-.96-6.84-2.89v11.85h-8v-33.72h8v2.22c1.64-1.93,3.92-2.89,6.84-2.89ZM50.91,61.65c.93.96,2.15,1.45,3.66,1.45s2.73-.48,3.66-1.45c.93-.99,1.4-2.26,1.4-3.8s-.47-2.81-1.4-3.81c-.93-.96-2.15-1.44-3.66-1.44s-2.73.48-3.66,1.44c-.93,1-1.4,2.26-1.4,3.81s.47,2.81,1.4,3.8Z"/>
        <path class="cls-2" d="M85.35,45.13c3.21,0,5.89,1.22,8.04,3.66,2.18,2.44,3.27,5.46,3.27,9.06s-1.09,6.63-3.27,9.1c-2.18,2.41-4.86,3.61-8.04,3.61-2.92,0-5.2-.96-6.84-2.89v11.85h-8v-33.72h8v2.22c1.64-1.93,3.92-2.89,6.84-2.89ZM79.91,61.65c.93.96,2.15,1.45,3.66,1.45s2.73-.48,3.66-1.45c.93-.99,1.4-2.26,1.4-3.8s-.47-2.81-1.4-3.81c-.93-.96-2.15-1.44-3.66-1.44s-2.73.48-3.66,1.44c-.93,1-1.4,2.26-1.4,3.81s.47,2.81,1.4,3.8Z"/>
      </g>
      <circle class="cls-3" cx="33.7" cy="39.21" r="4.6"/>
    </g>
  </g>
</svg>