<?xml version="1.0" encoding="UTF-8"?>
<svg id="Design" xmlns="http://www.w3.org/2000/svg" viewBox="0 0 250 250">
  <defs>
    <style>
      .cls-1 {
        fill: #fff;
      }

      .cls-2 {
        fill: #003049;
      }

      .cls-3 {
        fill: #f47f20;
      }
    </style>
  </defs>
  <path class="cls-1" d="M239.73,116.47c-6.43-7.29-14.46-11.25-23.84-11.85-.42-2.92-.8-4.77-.8-4.77-5.01-23.41-25.45-38.53-52.06-38.53-7.31,0-14.49,1.47-21.13,4.28-13.55-14.53-32.33-22.75-52.51-22.75-34.4,0-63.36,23.01-70.42,55.97,0,0-1.39,6.62-1.91,12.7-1.92,1.34-3.75,2.84-5.47,4.56-7.69,7.69-11.59,17.29-11.59,28.53s3.9,20.84,11.59,28.53c7.69,7.69,17.37,11.59,28.77,11.59,7.39,0,14.24-1.79,20.37-5.33,1.84-1.06,3.54-2.26,5.14-3.56v7.21h29.6v24.08h36.65v-23.46c2.74.7,5.67,1.06,8.77,1.06,10.36,0,19.2-3.96,26.36-11.85.26-.29.47-.6.72-.89v35.14h36.65v-23.46c2.74.7,5.67,1.06,8.77,1.06,10.36,0,19.2-3.96,26.36-11.85,6.81-7.72,10.27-17.23,10.27-28.27s-3.47-20.54-10.27-28.15Z"/>
  <g>
    <path class="cls-3" d="M201.79,107.96c-2.42,0-4.6-1.69-5.13-4.15-3.22-15.02-15.48-23.63-33.64-23.63-7.8,0-15.2,2.5-21.38,7.22-1.17.89-2.65,1.25-4.09,1-1.45-.25-2.72-1.1-3.51-2.33-9.84-15.26-26.53-24.36-44.65-24.36-25.43,0-46.82,16.89-52,41.07-.61,2.84-3.4,4.65-6.24,4.04-2.84-.61-4.65-3.4-4.04-6.24,6.23-29.07,31.84-49.38,62.27-49.38,19.91,0,38.39,9.18,50.4,24.8,7.01-4.16,14.95-6.33,23.24-6.33,22.86,0,39.69,12.24,43.91,31.94.61,2.84-1.2,5.63-4.04,6.24-.37.08-.74.12-1.11.12Z"/>
    <g>
      <g>
        <path class="cls-2" d="M40.36,176.41c-9.15,0-16.78-3.05-22.88-9.15-6.1-6.1-9.15-13.65-9.15-22.64s3.05-16.54,9.15-22.64,13.73-9.15,22.88-9.15c5.94,0,11.34,1.38,16.2,4.15,4.86,2.77,8.61,6.56,11.26,11.38l-17.1,9.87c-2.17-3.93-5.66-5.9-10.48-5.9-3.37,0-6.18,1.14-8.43,3.43-2.25,2.29-3.37,5.24-3.37,8.85s1.12,6.56,3.37,8.85c2.25,2.29,5.06,3.43,8.43,3.43,4.89,0,8.39-2.01,10.48-6.02l17.1,9.87c-2.65,4.82-6.4,8.63-11.26,11.44-4.86,2.81-10.26,4.21-16.2,4.21Z"/>
        <rect class="cls-2" x="74.2" y="114.52" width="19.99" height="60.21"/>
        <path class="cls-2" d="M140.88,112.83c8.03,0,14.73,3.05,20.11,9.15,5.46,6.1,8.19,13.65,8.19,22.64s-2.73,16.58-8.19,22.76c-5.46,6.02-12.16,9.03-20.11,9.03-7.31,0-13-2.41-17.1-7.22v29.62h-19.99v-84.29h19.99v5.54c4.09-4.82,9.79-7.22,17.1-7.22ZM127.27,154.13c2.33,2.41,5.38,3.61,9.15,3.61s6.82-1.2,9.15-3.61c2.33-2.49,3.49-5.66,3.49-9.51s-1.16-7.02-3.49-9.51c-2.33-2.41-5.38-3.61-9.15-3.61s-6.82,1.2-9.15,3.61c-2.33,2.49-3.49,5.66-3.49,9.51s1.16,7.03,3.49,9.51Z"/>
        <path class="cls-2" d="M213.37,112.83c8.03,0,14.73,3.05,20.11,9.15,5.46,6.1,8.19,13.65,8.19,22.64s-2.73,16.58-8.19,22.76c-5.46,6.02-12.16,9.03-20.11,9.03-7.31,0-13-2.41-17.1-7.22v29.62h-19.99v-84.29h19.99v5.54c4.09-4.82,9.79-7.22,17.1-7.22ZM199.77,154.13c2.33,2.41,5.38,3.61,9.15,3.61s6.82-1.2,9.15-3.61c2.33-2.49,3.49-5.66,3.49-9.51s-1.16-7.02-3.49-9.51c-2.33-2.41-5.38-3.61-9.15-3.61s-6.82,1.2-9.15,3.61c-2.33,2.49-3.49,5.66-3.49,9.51s1.16,7.03,3.49,9.51Z"/>
      </g>
      <circle class="cls-3" cx="84.25" cy="98.02" r="11.5"/>
    </g>
  </g>
</svg>