<?xml version="1.0" encoding="UTF-8"?>
<svg id="Design" xmlns="http://www.w3.org/2000/svg" viewBox="0 0 32 32">
  <defs>
    <style>
      .cls-1 {
        fill: #fff;
      }

      .cls-2 {
        fill: #003049;
      }

      .cls-3 {
        fill: #f47f20;
      }
    </style>
  </defs>
  <path class="cls-1" d="M30.69,14.91c-.82-.93-1.85-1.44-3.05-1.52-.05-.37-.1-.61-.1-.61-.64-3-3.26-4.93-6.66-4.93-.94,0-1.86.19-2.7.55-1.73-1.86-4.14-2.91-6.72-2.91-4.4,0-8.11,2.95-9.01,7.16,0,0-.18.85-.24,1.63-.25.17-.48.36-.7.58-.98.98-1.48,2.21-1.48,3.65s.5,2.67,1.48,3.65c.98.98,2.22,1.48,3.68,1.48.95,0,1.82-.23,2.61-.68.24-.14.45-.29.66-.46v.92h3.79v3.08h4.69v-3c.35.09.73.14,1.12.14,1.33,0,2.46-.51,3.37-1.52.03-.04.06-.08.09-.11v4.5h4.69v-3c.35.09.73.14,1.12.14,1.33,0,2.46-.51,3.37-1.52.87-.99,1.31-2.21,1.31-3.62s-.44-2.63-1.31-3.6Z"/>
  <g>
    <path class="cls-3" d="M25.83,13.82c-.31,0-.59-.22-.66-.53-.41-1.92-1.98-3.03-4.31-3.03-1,0-1.95.32-2.74.92-.15.11-.34.16-.52.13-.18-.03-.35-.14-.45-.3-1.26-1.95-3.4-3.12-5.72-3.12-3.26,0-5.99,2.16-6.66,5.26-.08.36-.44.59-.8.52-.36-.08-.59-.44-.52-.8.8-3.72,4.08-6.32,7.97-6.32,2.55,0,4.91,1.17,6.45,3.17.9-.53,1.91-.81,2.97-.81,2.93,0,5.08,1.57,5.62,4.09.08.36-.15.72-.52.8-.05.01-.09.02-.14.02Z"/>
    <g>
      <g>
        <path class="cls-2" d="M5.17,22.58c-1.17,0-2.15-.39-2.93-1.17-.78-.78-1.17-1.75-1.17-2.9s.39-2.12,1.17-2.9,1.76-1.17,2.93-1.17c.76,0,1.45.18,2.07.53.62.35,1.1.84,1.44,1.46l-2.19,1.26c-.28-.5-.72-.76-1.34-.76-.43,0-.79.15-1.08.44-.29.29-.43.67-.43,1.13s.14.84.43,1.13c.29.29.65.44,1.08.44.63,0,1.07-.26,1.34-.77l2.19,1.26c-.34.62-.82,1.1-1.44,1.46-.62.36-1.31.54-2.07.54Z"/>
        <rect class="cls-2" x="9.5" y="14.66" width="2.56" height="7.71"/>
        <path class="cls-2" d="M18.03,14.44c1.03,0,1.89.39,2.57,1.17.7.78,1.05,1.75,1.05,2.9s-.35,2.12-1.05,2.91c-.7.77-1.56,1.16-2.57,1.16-.94,0-1.66-.31-2.19-.92v3.79h-2.56v-10.79h2.56v.71c.52-.62,1.25-.92,2.19-.92ZM16.29,19.73c.3.31.69.46,1.17.46s.87-.15,1.17-.46c.3-.32.45-.72.45-1.22s-.15-.9-.45-1.22c-.3-.31-.69-.46-1.17-.46s-.87.15-1.17.46c-.3.32-.45.72-.45,1.22s.15.9.45,1.22Z"/>
        <path class="cls-2" d="M27.31,14.44c1.03,0,1.89.39,2.57,1.17.7.78,1.05,1.75,1.05,2.9s-.35,2.12-1.05,2.91c-.7.77-1.56,1.16-2.57,1.16-.94,0-1.66-.31-2.19-.92v3.79h-2.56v-10.79h2.56v.71c.52-.62,1.25-.92,2.19-.92ZM25.57,19.73c.3.31.69.46,1.17.46s.87-.15,1.17-.46c.3-.32.45-.72.45-1.22s-.15-.9-.45-1.22c-.3-.31-.69-.46-1.17-.46s-.87.15-1.17.46c-.3.32-.45.72-.45,1.22s.15.9.45,1.22Z"/>
      </g>
      <circle class="cls-3" cx="10.78" cy="12.55" r="1.47"/>
    </g>
  </g>
</svg>