<?xml version="1.0" encoding="UTF-8"?>
<svg id="Design" xmlns="http://www.w3.org/2000/svg" viewBox="0 0 48 48">
  <defs>
    <style>
      .cls-1 {
        fill: #fff;
      }

      .cls-2 {
        fill: #003049;
      }

      .cls-3 {
        fill: #f47f20;
      }
    </style>
  </defs>
  <path class="cls-1" d="M46.03,22.36c-1.24-1.4-2.78-2.16-4.58-2.27-.08-.56-.15-.92-.15-.92-.96-4.49-4.89-7.4-9.99-7.4-1.4,0-2.78.28-4.06.82-2.6-2.79-6.21-4.37-10.08-4.37-6.61,0-12.17,4.42-13.52,10.75,0,0-.27,1.27-.37,2.44-.37.26-.72.55-1.05.88-1.48,1.48-2.23,3.32-2.23,5.48s.75,4,2.23,5.48c1.48,1.48,3.33,2.23,5.52,2.23,1.42,0,2.73-.34,3.91-1.02.35-.2.68-.43.99-.68v1.38h5.68v4.62h7.04v-4.5c.53.14,1.09.2,1.68.2,1.99,0,3.69-.76,5.06-2.27.05-.06.09-.11.14-.17v6.75h7.04v-4.5c.53.14,1.09.2,1.68.2,1.99,0,3.69-.76,5.06-2.27,1.31-1.48,1.97-3.31,1.97-5.43s-.67-3.94-1.97-5.4Z"/>
  <g>
    <path class="cls-3" d="M38.74,20.73c-.47,0-.88-.32-.99-.8-.62-2.88-2.97-4.54-6.46-4.54-1.5,0-2.92.48-4.1,1.39-.22.17-.51.24-.79.19-.28-.05-.52-.21-.67-.45-1.89-2.93-5.09-4.68-8.57-4.68-4.88,0-8.99,3.24-9.98,7.89-.12.54-.65.89-1.2.78-.54-.12-.89-.65-.78-1.2,1.2-5.58,6.11-9.48,11.96-9.48,3.82,0,7.37,1.76,9.68,4.76,1.35-.8,2.87-1.22,4.46-1.22,4.39,0,7.62,2.35,8.43,6.13.12.54-.23,1.08-.78,1.2-.07.02-.14.02-.21.02Z"/>
    <g>
      <g>
        <path class="cls-2" d="M7.75,33.87c-1.76,0-3.22-.59-4.39-1.76-1.17-1.17-1.76-2.62-1.76-4.35s.59-3.17,1.76-4.35c1.17-1.17,2.64-1.76,4.39-1.76,1.14,0,2.18.27,3.11.8.93.53,1.65,1.26,2.16,2.18l-3.28,1.9c-.42-.75-1.09-1.13-2.01-1.13-.65,0-1.19.22-1.62.66-.43.44-.65,1.01-.65,1.7s.22,1.26.65,1.7c.43.44.97.66,1.62.66.94,0,1.61-.39,2.01-1.16l3.28,1.9c-.51.92-1.23,1.66-2.16,2.2-.93.54-1.97.81-3.11.81Z"/>
        <rect class="cls-2" x="14.25" y="21.99" width="3.84" height="11.56"/>
        <path class="cls-2" d="M27.05,21.66c1.54,0,2.83.59,3.86,1.76,1.05,1.17,1.57,2.62,1.57,4.35s-.52,3.18-1.57,4.37c-1.05,1.16-2.34,1.73-3.86,1.73-1.4,0-2.5-.46-3.28-1.39v5.69h-3.84v-16.18h3.84v1.06c.79-.92,1.88-1.39,3.28-1.39ZM24.44,29.59c.45.46,1.03.69,1.76.69s1.31-.23,1.76-.69c.45-.48.67-1.09.67-1.83s-.22-1.35-.67-1.83c-.45-.46-1.03-.69-1.76-.69s-1.31.23-1.76.69c-.45.48-.67,1.09-.67,1.83s.22,1.35.67,1.83Z"/>
        <path class="cls-2" d="M40.97,21.66c1.54,0,2.83.59,3.86,1.76,1.05,1.17,1.57,2.62,1.57,4.35s-.52,3.18-1.57,4.37c-1.05,1.16-2.34,1.73-3.86,1.73-1.4,0-2.5-.46-3.28-1.39v5.69h-3.84v-16.18h3.84v1.06c.79-.92,1.88-1.39,3.28-1.39ZM38.36,29.59c.45.46,1.03.69,1.76.69s1.31-.23,1.76-.69c.45-.48.67-1.09.67-1.83s-.22-1.35-.67-1.83c-.45-.46-1.03-.69-1.76-.69s-1.31.23-1.76.69c-.45.48-.67,1.09-.67,1.83s.22,1.35.67,1.83Z"/>
      </g>
      <circle class="cls-3" cx="16.18" cy="18.82" r="2.21"/>
    </g>
  </g>
</svg>