<?xml version="1.0" encoding="UTF-8"?>
<svg id="Design" xmlns="http://www.w3.org/2000/svg" viewBox="0 0 500 500">
  <defs>
    <style>
      .cls-1 {
        fill: #fff;
      }

      .cls-2 {
        fill: #003049;
      }

      .cls-3 {
        fill: #f47f20;
      }
    </style>
  </defs>
  <path class="cls-1" d="M479.46,232.95c-12.87-14.59-28.91-22.49-47.68-23.7-.84-5.84-1.61-9.54-1.61-9.54-10.03-46.81-50.89-77.06-104.11-77.06-14.61,0-28.99,2.93-42.26,8.56-27.1-29.07-64.66-45.5-105.02-45.5-68.8,0-126.72,46.03-140.84,111.93,0,0-2.79,13.25-3.81,25.41-3.83,2.68-7.5,5.68-10.94,9.12C7.8,247.57,0,266.76,0,289.24s7.8,41.68,23.18,57.05c15.38,15.38,34.74,23.19,57.54,23.19,14.78,0,28.49-3.59,40.74-10.67,3.67-2.13,7.08-4.52,10.28-7.12v14.41h59.2v48.17h73.3v-46.92c5.48,1.41,11.35,2.12,17.54,2.12,20.71,0,38.4-7.92,52.71-23.7.51-.58.95-1.2,1.44-1.79v70.28h73.3v-46.92c5.48,1.41,11.35,2.12,17.54,2.12,20.71,0,38.4-7.92,52.71-23.7,13.63-15.44,20.54-34.47,20.54-56.54s-6.94-41.09-20.54-56.3Z"/>
  <g>
    <path class="cls-3" d="M403.59,215.92c-4.85,0-9.21-3.38-10.26-8.31-6.43-30.04-30.95-47.27-67.27-47.27-15.61,0-30.39,4.99-42.76,14.45-2.33,1.79-5.3,2.51-8.19,2-2.89-.5-5.44-2.19-7.03-4.66-19.68-30.51-53.06-48.73-89.31-48.73-50.87,0-93.64,33.78-103.99,82.15-1.22,5.68-6.81,9.29-12.48,8.07-5.67-1.22-9.29-6.8-8.07-12.48,12.46-58.15,63.67-98.76,124.55-98.76,39.83,0,76.77,18.36,100.79,49.6,14.03-8.31,29.9-12.66,46.48-12.66,45.73,0,79.38,24.48,87.82,63.88,1.22,5.67-2.4,11.26-8.07,12.48-.74.16-1.48.24-2.21.24Z"/>
    <g>
      <g>
        <path class="cls-2" d="M80.72,352.82c-18.3,0-33.56-6.1-45.76-18.3-12.2-12.2-18.3-27.29-18.3-45.27s6.1-33.07,18.3-45.28c12.2-12.2,27.45-18.3,45.76-18.3,11.88,0,22.68,2.77,32.39,8.31,9.71,5.54,17.22,13.12,22.52,22.76l-34.2,19.75c-4.33-7.86-11.32-11.8-20.95-11.8-6.74,0-12.37,2.29-16.86,6.86-4.5,4.57-6.74,10.47-6.74,17.7s2.25,13.12,6.74,17.7c4.49,4.57,10.11,6.86,16.86,6.86,9.79,0,16.77-4.01,20.95-12.04l34.2,19.75c-5.3,9.63-12.81,17.26-22.52,22.88-9.72,5.62-20.51,8.43-32.39,8.43Z"/>
        <rect class="cls-2" x="148.39" y="229.04" width="39.98" height="120.41"/>
        <path class="cls-2" d="M281.76,225.67c16.05,0,29.46,6.1,40.22,18.3,10.91,12.2,16.37,27.3,16.37,45.28s-5.46,33.15-16.37,45.52c-10.92,12.04-24.32,18.06-40.22,18.06-14.61,0-26.01-4.82-34.2-14.45v59.24h-39.98v-168.58h39.98v11.08c8.19-9.63,19.59-14.45,34.2-14.45ZM254.55,308.27c4.66,4.82,10.75,7.23,18.3,7.23s13.64-2.41,18.3-7.23c4.66-4.97,6.98-11.32,6.98-19.02s-2.33-14.05-6.98-19.03c-4.66-4.82-10.76-7.22-18.3-7.22s-13.65,2.41-18.3,7.22c-4.66,4.98-6.98,11.32-6.98,19.03s2.33,14.05,6.98,19.02Z"/>
        <path class="cls-2" d="M426.75,225.67c16.05,0,29.46,6.1,40.22,18.3,10.91,12.2,16.37,27.3,16.37,45.28s-5.46,33.15-16.37,45.52c-10.92,12.04-24.32,18.06-40.22,18.06-14.61,0-26.01-4.82-34.2-14.45v59.24h-39.98v-168.58h39.98v11.08c8.19-9.63,19.59-14.45,34.2-14.45ZM399.53,308.27c4.66,4.82,10.75,7.23,18.3,7.23s13.64-2.41,18.3-7.23c4.66-4.97,6.98-11.32,6.98-19.02s-2.33-14.05-6.98-19.03c-4.66-4.82-10.76-7.22-18.3-7.22s-13.65,2.41-18.3,7.22c-4.66,4.98-6.98,11.32-6.98,19.03s2.33,14.05,6.98,19.02Z"/>
      </g>
      <circle class="cls-3" cx="168.51" cy="196.05" r="22.99"/>
    </g>
  </g>
</svg>