<?xml version="1.0" encoding="UTF-8"?>
<svg id="Design" xmlns="http://www.w3.org/2000/svg" viewBox="0 0 125 125">
  <defs>
    <style>
      .cls-1 {
        fill: #fff;
      }

      .cls-2 {
        fill: #003049;
      }

      .cls-3 {
        fill: #f47f20;
      }
    </style>
  </defs>
  <path class="cls-1" d="M119.86,58.24c-3.22-3.65-7.23-5.62-11.92-5.92-.21-1.46-.4-2.38-.4-2.38-2.51-11.7-12.72-19.26-26.03-19.26-3.65,0-7.25.73-10.56,2.14-6.77-7.27-16.17-11.37-26.26-11.37-17.2,0-31.68,11.51-35.21,27.98,0,0-.7,3.31-.95,6.35-.96.67-1.88,1.42-2.74,2.28-3.85,3.85-5.8,8.64-5.8,14.26s1.95,10.42,5.8,14.26c3.84,3.85,8.68,5.8,14.38,5.8,3.7,0,7.12-.9,10.18-2.67.92-.53,1.77-1.13,2.57-1.78v3.6h14.8v12.04h18.32v-11.73c1.37.35,2.84.53,4.38.53,5.18,0,9.6-1.98,13.18-5.92.13-.14.24-.3.36-.45v17.57h18.32v-11.73c1.37.35,2.84.53,4.38.53,5.18,0,9.6-1.98,13.18-5.92,3.41-3.86,5.14-8.62,5.14-14.14s-1.73-10.27-5.14-14.07Z"/>
  <g>
    <path class="cls-3" d="M100.9,53.98c-1.21,0-2.3-.84-2.57-2.08-1.61-7.51-7.74-11.82-16.82-11.82-3.9,0-7.6,1.25-10.69,3.61-.58.45-1.32.63-2.05.5-.72-.13-1.36-.55-1.76-1.16-4.92-7.63-13.27-12.18-22.33-12.18-12.72,0-23.41,8.44-26,20.54-.3,1.42-1.7,2.32-3.12,2.02-1.42-.3-2.32-1.7-2.02-3.12,3.11-14.54,15.92-24.69,31.14-24.69,9.96,0,19.19,4.59,25.2,12.4,3.51-2.08,7.47-3.17,11.62-3.17,11.43,0,19.85,6.12,21.96,15.97.3,1.42-.6,2.82-2.02,3.12-.19.04-.37.06-.55.06Z"/>
    <g>
      <g>
        <path class="cls-2" d="M20.18,88.2c-4.58,0-8.39-1.52-11.44-4.58-3.05-3.05-4.58-6.82-4.58-11.32s1.52-8.27,4.58-11.32,6.86-4.58,11.44-4.58c2.97,0,5.67.69,8.1,2.08,2.43,1.38,4.3,3.28,5.63,5.69l-8.55,4.94c-1.08-1.97-2.83-2.95-5.24-2.95-1.69,0-3.09.57-4.21,1.72-1.12,1.14-1.69,2.62-1.69,4.43s.56,3.28,1.69,4.43c1.12,1.14,2.53,1.72,4.21,1.72,2.45,0,4.19-1,5.24-3.01l8.55,4.94c-1.32,2.41-3.2,4.32-5.63,5.72-2.43,1.4-5.13,2.11-8.1,2.11Z"/>
        <rect class="cls-2" x="37.1" y="57.26" width="9.99" height="30.1"/>
        <path class="cls-2" d="M70.44,56.42c4.01,0,7.36,1.53,10.05,4.58,2.73,3.05,4.09,6.82,4.09,11.32s-1.36,8.29-4.09,11.38c-2.73,3.01-6.08,4.52-10.05,4.52-3.65,0-6.5-1.2-8.55-3.61v14.81h-9.99v-42.14h9.99v2.77c2.05-2.41,4.9-3.61,8.55-3.61ZM63.64,77.07c1.16,1.2,2.69,1.81,4.58,1.81s3.41-.6,4.58-1.81c1.16-1.24,1.75-2.83,1.75-4.76s-.58-3.51-1.75-4.76c-1.16-1.2-2.69-1.81-4.58-1.81s-3.41.6-4.58,1.81c-1.16,1.24-1.75,2.83-1.75,4.76s.58,3.51,1.75,4.76Z"/>
        <path class="cls-2" d="M106.69,56.42c4.01,0,7.36,1.53,10.05,4.58,2.73,3.05,4.09,6.82,4.09,11.32s-1.36,8.29-4.09,11.38c-2.73,3.01-6.08,4.52-10.05,4.52-3.65,0-6.5-1.2-8.55-3.61v14.81h-9.99v-42.14h9.99v2.77c2.05-2.41,4.9-3.61,8.55-3.61ZM99.88,77.07c1.16,1.2,2.69,1.81,4.58,1.81s3.41-.6,4.58-1.81c1.16-1.24,1.75-2.83,1.75-4.76s-.58-3.51-1.75-4.76c-1.16-1.2-2.69-1.81-4.58-1.81s-3.41.6-4.58,1.81c-1.16,1.24-1.75,2.83-1.75,4.76s.58,3.51,1.75,4.76Z"/>
      </g>
      <circle class="cls-3" cx="42.13" cy="49.01" r="5.75"/>
    </g>
  </g>
</svg>