<?xml version="1.0" encoding="UTF-8"?>
<svg id="Design" xmlns="http://www.w3.org/2000/svg" viewBox="0 0 1200 682">
  <defs>
    <style>
      .cls-1 {
        fill: #fff;
      }

      .cls-2 {
        fill: #003049;
      }

      .cls-3 {
        fill: #f47f20;
      }
    </style>
  </defs>
  <path class="cls-1" d="M1076.3,305.6c-26.71-30.28-60.01-46.68-98.98-49.19-1.73-12.13-3.34-19.8-3.34-19.8-20.81-97.17-105.64-159.95-216.12-159.95-30.33,0-60.17,6.09-87.72,17.77C613.9,34.1,535.93,0,452.15,0,309.33,0,189.11,95.54,159.81,232.35c0,0-5.79,27.5-7.91,52.74-7.95,5.56-15.57,11.79-22.71,18.93-31.93,31.93-48.12,71.77-48.12,118.44s16.19,86.52,48.12,118.43c31.92,31.93,72.1,48.13,119.44,48.13,30.69,0,59.14-7.45,84.56-22.14,7.62-4.41,14.7-9.38,21.33-14.78v29.92h122.88v99.98h152.15v-97.39c11.39,2.92,23.56,4.41,36.4,4.41,43,0,79.71-16.43,109.42-49.19,1.06-1.2,1.96-2.48,2.98-3.71v145.88h152.15v-97.39c11.39,2.92,23.56,4.41,36.4,4.41,43,0,79.71-16.43,109.42-49.19,28.29-32.06,42.64-71.54,42.64-117.37s-14.4-85.29-42.64-116.86Z"/>
  <g>
    <path class="cls-3" d="M918.81,270.25c-10.06,0-19.11-7.01-21.31-17.25-13.36-62.35-64.25-98.12-139.64-98.12-32.4,0-63.09,10.37-88.75,29.99-4.84,3.71-10.99,5.21-17,4.16-6-1.05-11.29-4.55-14.58-9.67-40.84-63.34-110.14-101.15-185.38-101.15-105.59,0-194.36,70.12-215.87,170.52-2.52,11.78-14.13,19.29-25.9,16.76-11.78-2.52-19.29-14.12-16.76-25.9,25.86-120.7,132.17-205.01,258.53-205.01,82.67,0,159.36,38.1,209.23,102.95,29.11-17.25,62.06-26.28,96.49-26.28,94.92,0,164.78,50.81,182.3,132.6,2.52,11.78-4.98,23.38-16.76,25.9-1.54.33-3.08.49-4.59.49Z"/>
    <g>
      <g>
        <path class="cls-2" d="M248.61,554.43c-37.99,0-69.65-12.66-94.98-37.99-25.33-25.32-37.99-56.65-37.99-93.98s12.66-68.65,37.99-93.98c25.32-25.32,56.99-37.99,94.98-37.99,24.66,0,47.07,5.75,67.24,17.25,20.16,11.5,35.74,27.24,46.74,47.24l-70.99,40.99c-9-16.32-23.49-24.49-43.49-24.49-14,0-25.67,4.75-34.99,14.25-9.33,9.5-13.99,21.74-13.99,36.74s4.66,27.24,13.99,36.74c9.33,9.5,21,14.25,34.99,14.25,20.32,0,34.82-8.33,43.49-25l70.99,40.99c-11,20-26.58,35.83-46.74,47.49-20.17,11.66-42.58,17.49-67.24,17.49Z"/>
        <rect class="cls-2" x="389.09" y="297.49" width="82.98" height="249.95"/>
        <path class="cls-2" d="M665.93,290.49c33.32,0,61.15,12.67,83.48,37.99,22.66,25.33,33.99,56.66,33.99,93.98s-11.33,68.82-33.99,94.48c-22.67,24.99-50.49,37.49-83.48,37.49-30.33,0-53.99-10-70.99-29.99v122.98h-82.98v-349.93h82.98v23c16.99-20,40.66-29.99,70.99-29.99ZM609.44,461.95c9.66,10,22.32,15,37.99,15s28.32-5,37.99-15c9.66-10.32,14.5-23.49,14.5-39.49s-4.83-29.16-14.5-39.49c-9.67-10-22.33-14.99-37.99-14.99s-28.33,5-37.99,14.99c-9.67,10.33-14.5,23.49-14.5,39.49s4.83,29.17,14.5,39.49Z"/>
        <path class="cls-2" d="M966.88,290.49c33.32,0,61.15,12.67,83.48,37.99,22.66,25.33,33.99,56.66,33.99,93.98s-11.33,68.82-33.99,94.48c-22.67,24.99-50.49,37.49-83.48,37.49-30.33,0-53.99-10-70.99-29.99v122.98h-82.98v-349.93h82.98v23c16.99-20,40.66-29.99,70.99-29.99ZM910.39,461.95c9.66,10,22.32,15,37.99,15s28.32-5,37.99-15c9.66-10.32,14.5-23.49,14.5-39.49s-4.83-29.16-14.5-39.49c-9.67-10-22.33-14.99-37.99-14.99s-28.33,5-37.99,14.99c-9.67,10.33-14.5,23.49-14.5,39.49s4.83,29.17,14.5,39.49Z"/>
      </g>
      <circle class="cls-3" cx="430.84" cy="229" r="47.73"/>
    </g>
  </g>
</svg>