<?xml version="1.0" encoding="UTF-8"?>
<svg id="Design" xmlns="http://www.w3.org/2000/svg" viewBox="0 0 820 312">
  <defs>
    <style>
      .cls-1 {
        fill: #fff;
      }

      .cls-2 {
        fill: #003049;
      }

      .cls-3 {
        fill: #f47f20;
      }
    </style>
  </defs>
  <path class="cls-1" d="M627.9,139.81c-12.22-13.85-27.46-21.36-45.28-22.5-.79-5.55-1.53-9.06-1.53-9.06-9.52-44.45-48.33-73.17-98.87-73.17-13.87,0-27.53,2.79-40.13,8.13C416.36,15.6,380.69,0,342.36,0c-65.34,0-120.34,43.71-133.74,106.29,0,0-2.65,12.58-3.62,24.13-3.64,2.54-7.12,5.39-10.39,8.66-14.61,14.61-22.01,32.84-22.01,54.18s7.41,39.58,22.01,54.18c14.6,14.61,32.99,22.02,54.64,22.02,14.04,0,27.05-3.41,38.68-10.13,3.49-2.02,6.72-4.29,9.76-6.76v13.69h56.21v45.74h69.61v-44.56c5.21,1.34,10.78,2.02,16.65,2.02,19.67,0,36.46-7.52,50.06-22.5.48-.55.9-1.14,1.36-1.7v66.74h69.61v-44.56c5.21,1.34,10.78,2.02,16.65,2.02,19.67,0,36.46-7.52,50.06-22.5,12.94-14.67,19.51-32.73,19.51-53.69s-6.59-39.02-19.51-53.46Z"/>
  <g>
    <path class="cls-3" d="M555.85,123.63c-4.6,0-8.74-3.21-9.75-7.89-6.11-28.53-29.39-44.89-63.88-44.89-14.82,0-28.86,4.74-40.6,13.72-2.21,1.7-5.03,2.38-7.78,1.9-2.74-.48-5.16-2.08-6.67-4.42-18.68-28.97-50.39-46.27-84.81-46.27-48.31,0-88.92,32.08-98.75,78.01-1.15,5.39-6.46,8.82-11.85,7.67-5.39-1.15-8.82-6.46-7.67-11.85,11.83-55.22,60.46-93.79,118.27-93.79,37.82,0,72.9,17.43,95.72,47.1,13.32-7.89,28.39-12.02,44.14-12.02,43.42,0,75.38,23.24,83.4,60.66,1.15,5.39-2.28,10.69-7.67,11.85-.7.15-1.41.22-2.1.22Z"/>
    <g>
      <g>
        <path class="cls-2" d="M249.25,253.64c-17.38,0-31.87-5.79-43.45-17.38-11.59-11.58-17.38-25.92-17.38-42.99s5.79-31.41,17.38-42.99c11.58-11.58,26.07-17.38,43.45-17.38,11.28,0,21.53,2.63,30.76,7.89,9.22,5.26,16.35,12.46,21.38,21.61l-32.47,18.75c-4.12-7.47-10.75-11.21-19.9-11.21-6.4,0-11.74,2.17-16.01,6.52-4.27,4.34-6.4,9.95-6.4,16.81s2.13,12.46,6.4,16.81c4.27,4.34,9.61,6.52,16.01,6.52,9.3,0,15.93-3.81,19.9-11.44l32.47,18.75c-5.03,9.15-12.16,16.39-21.38,21.73-9.23,5.33-19.48,8-30.76,8Z"/>
        <rect class="cls-2" x="313.51" y="136.09" width="37.96" height="114.35"/>
        <path class="cls-2" d="M440.16,132.89c15.24,0,27.97,5.8,38.19,17.38,10.36,11.59,15.55,25.92,15.55,42.99s-5.18,31.48-15.55,43.22c-10.37,11.43-23.1,17.15-38.19,17.15-13.87,0-24.7-4.57-32.47-13.72v56.26h-37.96v-160.08h37.96v10.52c7.77-9.15,18.6-13.72,32.47-13.72ZM414.32,211.33c4.42,4.57,10.21,6.86,17.38,6.86s12.96-2.29,17.38-6.86c4.42-4.72,6.63-10.75,6.63-18.07s-2.21-13.34-6.63-18.07c-4.42-4.57-10.22-6.86-17.38-6.86s-12.96,2.29-17.38,6.86c-4.42,4.73-6.63,10.75-6.63,18.07s2.21,13.34,6.63,18.07Z"/>
        <path class="cls-2" d="M577.84,132.89c15.24,0,27.97,5.8,38.19,17.38,10.36,11.59,15.55,25.92,15.55,42.99s-5.18,31.48-15.55,43.22c-10.37,11.43-23.1,17.15-38.19,17.15-13.87,0-24.7-4.57-32.47-13.72v56.26h-37.96v-160.08h37.96v10.52c7.77-9.15,18.6-13.72,32.47-13.72ZM552,211.33c4.42,4.57,10.21,6.86,17.38,6.86s12.96-2.29,17.38-6.86c4.42-4.72,6.63-10.75,6.63-18.07s-2.21-13.34-6.63-18.07c-4.42-4.57-10.22-6.86-17.38-6.86s-12.96,2.29-17.38,6.86c-4.42,4.73-6.63,10.75-6.63,18.07s2.21,13.34,6.63,18.07Z"/>
      </g>
      <circle class="cls-3" cx="332.61" cy="104.76" r="21.84"/>
    </g>
  </g>
</svg>