<?xml version="1.0" encoding="UTF-8"?>
<svg id="Design" xmlns="http://www.w3.org/2000/svg" viewBox="0 0 512 512">
  <defs>
    <style>
      .cls-1 {
        fill: #fff;
      }

      .cls-2 {
        fill: #003049;
      }

      .cls-3 {
        fill: #f47f20;
      }
    </style>
  </defs>
  <path class="cls-1" d="M490.97,238.54c-13.18-14.94-29.61-23.03-48.83-24.26-.86-5.98-1.65-9.77-1.65-9.77-10.27-47.93-52.12-78.91-106.61-78.91-14.96,0-29.68,3-43.27,8.77-27.75-29.77-66.21-46.59-107.54-46.59-70.46,0-129.76,47.13-144.22,114.62,0,0-2.86,13.57-3.9,26.02-3.92,2.74-7.68,5.82-11.2,9.34C7.99,253.51,0,273.17,0,296.19s7.99,42.68,23.74,58.42c15.75,15.75,35.57,23.74,58.92,23.74,15.14,0,29.17-3.67,41.71-10.92,3.76-2.18,7.25-4.63,10.52-7.29v14.76h60.62v49.32h75.06v-48.05c5.62,1.44,11.62,2.18,17.96,2.18,21.21,0,39.32-8.11,53.98-24.26.52-.59.97-1.23,1.47-1.83v71.96h75.06v-48.05c5.62,1.44,11.62,2.18,17.96,2.18,21.21,0,39.32-8.11,53.98-24.26,13.96-15.82,21.04-35.29,21.04-57.9s-7.1-42.07-21.03-57.65Z"/>
  <g>
    <path class="cls-3" d="M413.27,221.1c-4.96,0-9.43-3.46-10.51-8.51-6.59-30.76-31.7-48.4-68.88-48.4-15.98,0-31.12,5.11-43.78,14.79-2.39,1.83-5.42,2.57-8.38,2.05-2.96-.52-5.57-2.24-7.19-4.77-20.15-31.24-54.34-49.9-91.45-49.9-52.09,0-95.88,34.59-106.49,84.12-1.25,5.81-6.97,9.52-12.78,8.27-5.81-1.25-9.51-6.97-8.27-12.78,12.76-59.54,65.2-101.13,127.54-101.13,40.78,0,78.61,18.8,103.21,50.79,14.36-8.51,30.62-12.96,47.6-12.96,46.83,0,81.29,25.07,89.93,65.42,1.25,5.81-2.46,11.53-8.27,12.78-.76.16-1.52.24-2.27.24Z"/>
    <g>
      <g>
        <path class="cls-2" d="M82.66,361.29c-18.74,0-34.36-6.24-46.85-18.74-12.5-12.49-18.74-27.95-18.74-46.36s6.24-33.87,18.74-46.36c12.49-12.49,28.11-18.74,46.85-18.74,12.16,0,23.22,2.84,33.17,8.51,9.94,5.67,17.63,13.44,23.06,23.3l-35.02,20.22c-4.44-8.05-11.59-12.08-21.45-12.08-6.91,0-12.66,2.34-17.26,7.03-4.6,4.68-6.9,10.73-6.9,18.13s2.3,13.44,6.9,18.13c4.6,4.68,10.36,7.03,17.26,7.03,10.02,0,17.18-4.11,21.45-12.33l35.02,20.22c-5.43,9.86-13.11,17.67-23.06,23.43-9.95,5.75-21.01,8.63-33.17,8.63Z"/>
        <rect class="cls-2" x="151.96" y="234.53" width="40.93" height="123.3"/>
        <path class="cls-2" d="M288.52,231.08c16.44,0,30.17,6.25,41.18,18.74,11.18,12.5,16.77,27.95,16.77,46.36s-5.59,33.95-16.77,46.61c-11.18,12.33-24.91,18.49-41.18,18.49-14.96,0-26.63-4.93-35.02-14.8v60.67h-40.93v-172.62h40.93v11.34c8.38-9.86,20.06-14.8,35.02-14.8ZM260.66,315.67c4.77,4.93,11.01,7.4,18.74,7.4s13.97-2.47,18.74-7.4c4.77-5.09,7.15-11.59,7.15-19.48s-2.38-14.39-7.15-19.48c-4.77-4.93-11.02-7.4-18.74-7.4s-13.97,2.46-18.74,7.4c-4.77,5.1-7.15,11.59-7.15,19.48s2.38,14.39,7.15,19.48Z"/>
        <path class="cls-2" d="M436.99,231.08c16.44,0,30.17,6.25,41.18,18.74,11.18,12.5,16.77,27.95,16.77,46.36s-5.59,33.95-16.77,46.61c-11.18,12.33-24.91,18.49-41.18,18.49-14.96,0-26.63-4.93-35.02-14.8v60.67h-40.93v-172.62h40.93v11.34c8.38-9.86,20.06-14.8,35.02-14.8ZM409.12,315.67c4.77,4.93,11.01,7.4,18.74,7.4s13.97-2.47,18.74-7.4c4.77-5.09,7.15-11.59,7.15-19.48s-2.38-14.39-7.15-19.48c-4.77-4.93-11.02-7.4-18.74-7.4s-13.97,2.46-18.74,7.4c-4.77,5.1-7.15,11.59-7.15,19.48s2.38,14.39,7.15,19.48Z"/>
      </g>
      <circle class="cls-3" cx="172.55" cy="200.75" r="23.55"/>
    </g>
  </g>
</svg>