<?xml version="1.0" encoding="UTF-8"?>
<svg id="Design" xmlns="http://www.w3.org/2000/svg" viewBox="0 0 1546 423">
  <defs>
    <style>
      .cls-1 {
        fill: #fff;
      }

      .cls-2 {
        fill: #003049;
      }

      .cls-3 {
        fill: #f47f20;
      }
    </style>
  </defs>
  <path class="cls-1" d="M1068.42,189.54c-16.57-18.78-37.22-28.96-61.39-30.51-1.08-7.52-2.07-12.28-2.07-12.28-12.91-60.27-65.52-99.21-134.04-99.21-18.81,0-37.32,3.78-54.4,11.02C781.62,21.15,733.26,0,681.3,0c-88.58,0-163.15,59.26-181.32,144.11,0,0-3.59,17.06-4.91,32.71-4.93,3.45-9.66,7.31-14.09,11.74-19.81,19.8-29.85,44.52-29.85,73.46s10.04,53.66,29.84,73.45c19.8,19.81,44.72,29.85,74.08,29.85,19.03,0,36.68-4.62,52.45-13.73,4.73-2.74,9.12-5.82,13.23-9.17v18.56h76.21v62.01h94.37v-60.41c7.06,1.81,14.61,2.74,22.58,2.74,26.67,0,49.44-10.19,67.86-30.51.66-.74,1.22-1.54,1.85-2.3v90.48h94.37v-60.41c7.06,1.81,14.61,2.74,22.58,2.74,26.67,0,49.44-10.19,67.86-30.51,17.55-19.88,26.45-44.37,26.45-72.8s-8.93-52.9-26.45-72.48Z"/>
  <g>
    <path class="cls-3" d="M970.74,167.62c-6.24,0-11.85-4.35-13.22-10.7-8.28-38.67-39.85-60.85-86.61-60.85-20.09,0-39.13,6.43-55.05,18.6-3,2.3-6.82,3.23-10.54,2.58-3.72-.65-7-2.82-9.05-6-25.33-39.28-68.31-62.73-114.98-62.73-65.49,0-120.55,43.49-133.89,105.76-1.57,7.31-8.76,11.96-16.06,10.4-7.31-1.57-11.96-8.76-10.4-16.06,16.04-74.86,81.98-127.15,160.35-127.15,51.28,0,98.84,23.63,129.77,63.85,18.06-10.7,38.49-16.3,59.84-16.3,58.87,0,102.2,31.51,113.07,82.25,1.57,7.31-3.09,14.5-10.4,16.06-.95.2-1.91.3-2.85.3Z"/>
    <g>
      <g>
        <path class="cls-2" d="M555.06,343.88c-23.56,0-43.2-7.85-58.91-23.56-15.71-15.71-23.56-35.14-23.56-58.29s7.85-42.58,23.56-58.29c15.71-15.71,35.34-23.56,58.91-23.56,15.29,0,29.19,3.57,41.7,10.7,12.5,7.13,22.17,16.9,28.99,29.3l-44.03,25.42c-5.58-10.13-14.57-15.19-26.97-15.19-8.68,0-15.92,2.94-21.71,8.84-5.79,5.89-8.68,13.49-8.68,22.79s2.89,16.9,8.68,22.79c5.79,5.89,13.02,8.84,21.71,8.84,12.6,0,21.6-5.17,26.97-15.5l44.03,25.42c-6.82,12.4-16.49,22.22-28.99,29.46-12.51,7.23-26.41,10.85-41.7,10.85Z"/>
        <rect class="cls-2" x="642.19" y="184.51" width="51.47" height="155.03"/>
        <path class="cls-2" d="M813.89,180.17c20.67,0,37.93,7.86,51.78,23.56,14.05,15.71,21.08,35.14,21.08,58.29s-7.03,42.68-21.08,58.6c-14.06,15.5-31.32,23.25-51.78,23.25-18.81,0-33.49-6.2-44.03-18.6v76.27h-51.47v-217.04h51.47v14.26c10.54-12.4,25.22-18.6,44.03-18.6ZM778.86,286.52c5.99,6.2,13.84,9.3,23.56,9.3s17.57-3.1,23.56-9.3c5.99-6.4,8.99-14.57,8.99-24.49s-3-18.09-8.99-24.5c-6-6.2-13.85-9.3-23.56-9.3s-17.57,3.1-23.56,9.3c-6,6.41-8.99,14.57-8.99,24.5s3,18.09,8.99,24.49Z"/>
        <path class="cls-2" d="M1000.55,180.17c20.67,0,37.93,7.86,51.78,23.56,14.05,15.71,21.08,35.14,21.08,58.29s-7.03,42.68-21.08,58.6c-14.06,15.5-31.32,23.25-51.78,23.25-18.81,0-33.49-6.2-44.03-18.6v76.27h-51.47v-217.04h51.47v14.26c10.54-12.4,25.22-18.6,44.03-18.6ZM965.52,286.52c5.99,6.2,13.84,9.3,23.56,9.3s17.57-3.1,23.56-9.3c5.99-6.4,8.99-14.57,8.99-24.49s-3-18.09-8.99-24.5c-6-6.2-13.85-9.3-23.56-9.3s-17.57,3.1-23.56,9.3c-6,6.41-8.99,14.57-8.99,24.5s3,18.09,8.99,24.49Z"/>
      </g>
      <circle class="cls-3" cx="668.08" cy="142.04" r="29.6"/>
    </g>
  </g>
</svg>