<?xml version="1.0" encoding="UTF-8"?>
<svg id="Design" xmlns="http://www.w3.org/2000/svg" viewBox="0 0 1000 1000">
  <defs>
    <style>
      .cls-1 {
        fill: #fff;
      }

      .cls-2 {
        fill: #003049;
      }

      .cls-3 {
        fill: #f47f20;
      }
    </style>
  </defs>
  <path class="cls-1" d="M958.92,465.89c-25.74-29.18-57.82-44.98-95.36-47.39-1.67-11.68-3.22-19.07-3.22-19.07-20.05-93.62-101.79-154.11-208.23-154.11-29.22,0-57.97,5.87-84.51,17.12-54.2-58.14-129.32-90.99-210.04-90.99-137.61,0-253.44,92.06-281.68,223.87,0,0-5.58,26.5-7.62,50.82-7.66,5.36-15,11.36-21.88,18.24C15.6,495.14,0,533.53,0,578.49s15.6,83.36,46.36,114.11c30.75,30.77,69.47,46.37,115.08,46.37,29.57,0,56.98-7.18,81.47-21.33,7.35-4.25,14.16-9.04,20.55-14.24v28.83h118.39v96.33h146.6v-93.84c10.97,2.82,22.7,4.25,35.07,4.25,41.43,0,76.8-15.83,105.42-47.39,1.02-1.16,1.89-2.39,2.87-3.57v140.55h146.6v-93.84c10.97,2.82,22.7,4.25,35.07,4.25,41.43,0,76.8-15.83,105.42-47.39,27.26-30.89,41.09-68.93,41.09-113.08s-13.87-82.17-41.08-112.6Z"/>
  <g>
    <path class="cls-3" d="M807.17,431.83c-9.7,0-18.41-6.75-20.53-16.62-12.87-60.08-61.91-94.53-134.54-94.53-31.21,0-60.78,9.99-85.51,28.89-4.66,3.57-10.59,5.02-16.38,4.01-5.78-1.01-10.87-4.38-14.05-9.32-39.35-61.02-106.12-97.45-178.61-97.45-101.74,0-187.27,67.56-207.99,164.3-2.43,11.35-13.61,18.59-24.95,16.15-11.35-2.43-18.58-13.61-16.15-24.95,24.91-116.3,127.34-197.53,249.09-197.53,79.65,0,153.54,36.71,201.59,99.19,28.05-16.62,59.8-25.32,92.97-25.32,91.46,0,158.76,48.96,175.64,127.77,2.43,11.35-4.8,22.52-16.15,24.95-1.48.32-2.97.47-4.43.47Z"/>
    <g>
      <g>
        <path class="cls-2" d="M161.44,705.64c-36.6,0-67.11-12.2-91.51-36.6-24.41-24.4-36.6-54.58-36.6-90.55s12.2-66.14,36.6-90.55c24.4-24.4,54.91-36.6,91.51-36.6,23.76,0,45.35,5.54,64.78,16.62,19.42,11.08,34.44,26.25,45.03,45.51l-68.39,39.5c-8.67-15.73-22.64-23.6-41.9-23.6-13.49,0-24.73,4.57-33.72,13.73-8.99,9.15-13.48,20.95-13.48,35.4s4.49,26.25,13.48,35.4c8.99,9.15,20.23,13.73,33.72,13.73,19.58,0,33.55-8.02,41.9-24.08l68.39,39.5c-10.6,19.27-25.61,34.52-45.03,45.76-19.43,11.23-41.03,16.85-64.78,16.85Z"/>
        <rect class="cls-2" x="296.79" y="458.07" width="79.95" height="240.82"/>
        <path class="cls-2" d="M563.52,451.33c32.1,0,58.92,12.21,80.43,36.6,21.83,24.41,32.75,54.59,32.75,90.55s-10.92,66.31-32.75,91.03c-21.84,24.08-48.65,36.12-80.43,36.12-29.22,0-52.02-9.63-68.39-28.9v118.49h-79.95v-337.15h79.95v22.16c16.37-19.27,39.17-28.9,68.39-28.9ZM509.1,616.54c9.31,9.63,21.51,14.45,36.6,14.45s27.29-4.82,36.6-14.45c9.31-9.95,13.97-22.64,13.97-38.05s-4.66-28.1-13.97-38.05c-9.31-9.63-21.52-14.45-36.6-14.45s-27.29,4.81-36.6,14.45c-9.31,9.96-13.97,22.64-13.97,38.05s4.65,28.1,13.97,38.05Z"/>
        <path class="cls-2" d="M853.49,451.33c32.1,0,58.92,12.21,80.43,36.6,21.83,24.41,32.75,54.59,32.75,90.55s-10.92,66.31-32.75,91.03c-21.84,24.08-48.65,36.12-80.43,36.12-29.22,0-52.02-9.63-68.39-28.9v118.49h-79.95v-337.15h79.95v22.16c16.37-19.27,39.17-28.9,68.39-28.9ZM799.06,616.54c9.31,9.63,21.51,14.45,36.6,14.45s27.29-4.82,36.6-14.45c9.31-9.95,13.97-22.64,13.97-38.05s-4.66-28.1-13.97-38.05c-9.31-9.63-21.52-14.45-36.6-14.45s-27.29,4.81-36.6,14.45c-9.31,9.96-13.97,22.64-13.97,38.05s4.65,28.1,13.97,38.05Z"/>
      </g>
      <circle class="cls-3" cx="337.01" cy="392.09" r="45.99"/>
    </g>
  </g>
</svg>