<?xml version="1.0" encoding="UTF-8"?>
<svg id="Design" xmlns="http://www.w3.org/2000/svg" viewBox="0 0 64 64">
  <defs>
    <style>
      .cls-1 {
        fill: #fff;
      }

      .cls-2 {
        fill: #003049;
      }

      .cls-3 {
        fill: #f47f20;
      }
    </style>
  </defs>
  <path class="cls-1" d="M61.37,29.82c-1.65-1.87-3.7-2.88-6.1-3.03-.11-.75-.21-1.22-.21-1.22-1.28-5.99-6.51-9.86-13.33-9.86-1.87,0-3.71.38-5.41,1.1-3.47-3.72-8.28-5.82-13.44-5.82-8.81,0-16.22,5.89-18.03,14.33,0,0-.36,1.7-.49,3.25-.49.34-.96.73-1.4,1.17-1.97,1.97-2.97,4.43-2.97,7.3s1,5.34,2.97,7.3c1.97,1.97,4.45,2.97,7.36,2.97,1.89,0,3.65-.46,5.21-1.37.47-.27.91-.58,1.32-.91v1.85h7.58v6.17h9.38v-6.01c.7.18,1.45.27,2.24.27,2.65,0,4.92-1.01,6.75-3.03.07-.07.12-.15.18-.23v9h9.38v-6.01c.7.18,1.45.27,2.24.27,2.65,0,4.92-1.01,6.75-3.03,1.74-1.98,2.63-4.41,2.63-7.24s-.89-5.26-2.63-7.21Z"/>
  <g>
    <path class="cls-3" d="M51.66,27.64c-.62,0-1.18-.43-1.31-1.06-.82-3.85-3.96-6.05-8.61-6.05-2,0-3.89.64-5.47,1.85-.3.23-.68.32-1.05.26-.37-.06-.7-.28-.9-.6-2.52-3.91-6.79-6.24-11.43-6.24-6.51,0-11.99,4.32-13.31,10.51-.16.73-.87,1.19-1.6,1.03-.73-.16-1.19-.87-1.03-1.6,1.59-7.44,8.15-12.64,15.94-12.64,5.1,0,9.83,2.35,12.9,6.35,1.8-1.06,3.83-1.62,5.95-1.62,5.85,0,10.16,3.13,11.24,8.18.16.73-.31,1.44-1.03,1.6-.09.02-.19.03-.28.03Z"/>
    <g>
      <g>
        <path class="cls-2" d="M10.33,45.16c-2.34,0-4.3-.78-5.86-2.34-1.56-1.56-2.34-3.49-2.34-5.8s.78-4.23,2.34-5.8c1.56-1.56,3.51-2.34,5.86-2.34,1.52,0,2.9.35,4.15,1.06,1.24.71,2.2,1.68,2.88,2.91l-4.38,2.53c-.55-1.01-1.45-1.51-2.68-1.51-.86,0-1.58.29-2.16.88-.58.59-.86,1.34-.86,2.27s.29,1.68.86,2.27c.58.59,1.29.88,2.16.88,1.25,0,2.15-.51,2.68-1.54l4.38,2.53c-.68,1.23-1.64,2.21-2.88,2.93-1.24.72-2.63,1.08-4.15,1.08Z"/>
        <rect class="cls-2" x="18.99" y="29.32" width="5.12" height="15.41"/>
        <path class="cls-2" d="M36.07,28.89c2.05,0,3.77.78,5.15,2.34,1.4,1.56,2.1,3.49,2.1,5.8s-.7,4.24-2.1,5.83c-1.4,1.54-3.11,2.31-5.15,2.31-1.87,0-3.33-.62-4.38-1.85v7.58h-5.12v-21.58h5.12v1.42c1.05-1.23,2.51-1.85,4.38-1.85ZM32.58,39.46c.6.62,1.38.92,2.34.92s1.75-.31,2.34-.92c.6-.64.89-1.45.89-2.44s-.3-1.8-.89-2.44c-.6-.62-1.38-.92-2.34-.92s-1.75.31-2.34.92c-.6.64-.89,1.45-.89,2.44s.3,1.8.89,2.44Z"/>
        <path class="cls-2" d="M54.62,28.89c2.05,0,3.77.78,5.15,2.34,1.4,1.56,2.1,3.49,2.1,5.8s-.7,4.24-2.1,5.83c-1.4,1.54-3.11,2.31-5.15,2.31-1.87,0-3.33-.62-4.38-1.85v7.58h-5.12v-21.58h5.12v1.42c1.05-1.23,2.51-1.85,4.38-1.85ZM51.14,39.46c.6.62,1.38.92,2.34.92s1.75-.31,2.34-.92c.6-.64.89-1.45.89-2.44s-.3-1.8-.89-2.44c-.6-.62-1.38-.92-2.34-.92s-1.75.31-2.34.92c-.6.64-.89,1.45-.89,2.44s.3,1.8.89,2.44Z"/>
      </g>
      <circle class="cls-3" cx="21.57" cy="25.09" r="2.94"/>
    </g>
  </g>
</svg>