<?xml version="1.0" encoding="UTF-8"?>
<svg id="Design" xmlns="http://www.w3.org/2000/svg" viewBox="0 0 3840 2160">
  <defs>
    <style>
      .cls-1 {
        fill: #fff;
      }

      .cls-2 {
        fill: #003049;
      }

      .cls-3 {
        fill: #f47f20;
      }
    </style>
  </defs>
  <path class="cls-1" d="M3428.52,967.88c-84.6-95.92-190.07-147.86-313.48-155.78-5.49-38.4-10.58-62.7-10.58-62.7-65.92-307.75-334.59-506.59-684.48-506.59-96.05,0-190.56,19.29-277.81,56.28C1964.02,107.99,1717.07,0,1451.75,0c-452.34,0-833.1,302.61-925.91,735.88,0,0-18.33,87.09-25.06,167.04-25.19,17.62-49.31,37.35-71.93,59.97-101.14,101.12-152.41,227.32-152.41,375.11s51.29,274.02,152.39,375.08c101.09,101.14,228.36,152.42,378.27,152.42,97.2,0,187.3-23.59,267.81-70.13,24.15-13.97,46.55-29.72,67.56-46.8v94.76h389.17v316.66h481.89v-308.46c36.06,9.26,74.61,13.97,115.28,13.97,136.18,0,252.45-52.05,346.54-155.78,3.36-3.8,6.22-7.87,9.45-11.74v462.01h481.89v-308.46c36.06,9.26,74.61,13.97,115.28,13.97,136.18,0,252.45-52.05,346.54-155.78,89.61-101.54,135.06-226.59,135.06-371.72s-45.6-270.11-135.04-370.12Z"/>
  <g>
    <path class="cls-3" d="M2929.72,855.92c-31.87,0-60.53-22.2-67.48-54.63-42.3-197.49-203.49-310.75-442.25-310.75-102.61,0-199.81,32.84-281.09,94.97-15.32,11.74-34.81,16.49-53.83,13.18-19-3.31-35.75-14.41-46.19-30.62-129.35-200.59-348.84-320.35-587.13-320.35-334.43,0-615.58,222.08-683.69,540.06-7.99,37.32-44.75,61.09-82.03,53.09-37.31-7.99-61.08-44.72-53.09-82.03,81.9-382.29,418.6-649.29,818.8-649.29,261.84,0,504.71,120.67,662.65,326.05,92.21-54.65,196.57-83.23,305.59-83.23,300.63,0,521.87,160.92,577.37,419.98,7.99,37.31-15.78,74.04-53.09,82.03-4.87,1.04-9.75,1.55-14.55,1.55Z"/>
    <g>
      <g>
        <path class="cls-2" d="M807.11,1755.96c-120.32,0-220.61-40.09-300.81-120.32-80.23-80.2-120.32-179.42-120.32-297.64s40.09-217.42,120.32-297.66c80.2-80.2,180.48-120.32,300.81-120.32,78.09,0,149.08,18.2,212.95,54.63,63.84,36.41,113.2,86.28,148.03,149.61l-224.82,129.83c-28.5-51.7-74.41-77.58-137.74-77.58-44.34,0-81.29,15.04-110.83,45.12-29.56,30.07-44.32,68.86-44.32,116.37s14.76,86.28,44.32,116.37c29.54,30.07,66.5,45.12,110.83,45.12,64.36,0,110.27-26.37,137.74-79.17l224.82,129.83c-34.83,63.33-84.19,113.47-148.03,150.41-63.88,36.92-134.86,55.4-212.95,55.4Z"/>
        <rect class="cls-2" x="1252.02" y="942.18" width="262.81" height="791.62"/>
        <path class="cls-2" d="M2128.81,920.02c105.53,0,193.67,40.12,264.4,120.32,71.76,80.23,107.65,179.45,107.65,297.66s-35.89,217.95-107.65,299.23c-71.79,79.15-159.92,118.73-264.4,118.73-96.06,0-171-31.66-224.82-94.99v389.48h-262.81V942.18h262.81v72.83c53.83-63.33,128.77-94.99,224.82-94.99ZM1949.9,1463.07c30.6,31.66,70.7,47.5,120.32,47.5s89.7-15.84,120.32-47.5c30.6-32.7,45.91-74.41,45.91-125.07s-15.31-92.36-45.91-125.08c-30.62-31.66-70.73-47.49-120.32-47.49s-89.72,15.82-120.32,47.49c-30.62,32.73-45.91,74.41-45.91,125.08s15.29,92.37,45.91,125.07Z"/>
        <path class="cls-2" d="M3081.97,920.02c105.53,0,193.67,40.12,264.4,120.32,71.76,80.23,107.65,179.45,107.65,297.66s-35.89,217.95-107.65,299.23c-71.79,79.15-159.92,118.73-264.4,118.73-96.06,0-171-31.66-224.82-94.99v389.48h-262.81V942.18h262.81v72.83c53.83-63.33,128.77-94.99,224.82-94.99ZM2903.06,1463.07c30.6,31.66,70.7,47.5,120.32,47.5s89.7-15.84,120.32-47.5c30.6-32.7,45.91-74.41,45.91-125.07s-15.31-92.36-45.91-125.08c-30.62-31.66-70.73-47.49-120.32-47.49s-89.72,15.82-120.32,47.49c-30.62,32.73-45.91,74.41-45.91,125.08s15.29,92.37,45.91,125.07Z"/>
      </g>
      <circle class="cls-3" cx="1384.24" cy="725.29" r="151.17"/>
    </g>
  </g>
</svg>