<?xml version="1.0" encoding="UTF-8"?>
<svg id="Design" xmlns="http://www.w3.org/2000/svg" viewBox="0 0 300 100">
  <defs>
    <style>
      .cls-1 {
        fill: #fff;
      }

      .cls-2 {
        fill: #003049;
      }

      .cls-3 {
        fill: #f47f20;
      }
    </style>
  </defs>
  <path class="cls-1" d="M219.84,44.81c-3.92-4.44-8.8-6.85-14.51-7.21-.25-1.78-.49-2.9-.49-2.9-3.05-14.25-15.49-23.45-31.69-23.45-4.45,0-8.82.89-12.86,2.61-8.25-8.85-19.68-13.85-31.96-13.85-20.94,0-38.57,14.01-42.87,34.07,0,0-.85,4.03-1.16,7.73-1.17.82-2.28,1.73-3.33,2.78-4.68,4.68-7.06,10.52-7.06,17.37s2.37,12.69,7.06,17.36c4.68,4.68,10.57,7.06,17.51,7.06,4.5,0,8.67-1.09,12.4-3.25,1.12-.65,2.16-1.38,3.13-2.17v4.39h18.02v14.66h22.31v-14.28c1.67.43,3.45.65,5.34.65,6.3,0,11.69-2.41,16.04-7.21.16-.18.29-.36.44-.54v21.39h22.31v-14.28c1.67.43,3.45.65,5.34.65,6.3,0,11.69-2.41,16.04-7.21,4.15-4.7,6.25-10.49,6.25-17.21s-2.11-12.51-6.25-17.14Z"/>
  <g>
    <path class="cls-3" d="M196.75,39.63c-1.48,0-2.8-1.03-3.12-2.53-1.96-9.14-9.42-14.39-20.47-14.39-4.75,0-9.25,1.52-13.01,4.4-.71.54-1.61.76-2.49.61-.88-.15-1.65-.67-2.14-1.42-5.99-9.29-16.15-14.83-27.18-14.83-15.48,0-28.5,10.28-31.65,25-.37,1.73-2.07,2.83-3.8,2.46-1.73-.37-2.83-2.07-2.46-3.8,3.79-17.7,19.38-30.06,37.91-30.06,12.12,0,23.37,5.59,30.68,15.09,4.27-2.53,9.1-3.85,14.15-3.85,13.92,0,24.16,7.45,26.73,19.44.37,1.73-.73,3.43-2.46,3.8-.23.05-.45.07-.67.07Z"/>
    <g>
      <g>
        <path class="cls-2" d="M98.48,81.29c-5.57,0-10.21-1.86-13.93-5.57-3.71-3.71-5.57-8.31-5.57-13.78s1.86-10.07,5.57-13.78c3.71-3.71,8.36-5.57,13.93-5.57,3.62,0,6.9.84,9.86,2.53,2.96,1.69,5.24,3.99,6.85,6.93l-10.41,6.01c-1.32-2.39-3.44-3.59-6.38-3.59-2.05,0-3.76.7-5.13,2.09-1.37,1.39-2.05,3.19-2.05,5.39s.68,3.99,2.05,5.39c1.37,1.39,3.08,2.09,5.13,2.09,2.98,0,5.11-1.22,6.38-3.67l10.41,6.01c-1.61,2.93-3.9,5.25-6.85,6.96-2.96,1.71-6.24,2.56-9.86,2.56Z"/>
        <rect class="cls-2" x="119.07" y="43.62" width="12.17" height="36.65"/>
        <path class="cls-2" d="M159.67,42.59c4.89,0,8.97,1.86,12.24,5.57,3.32,3.71,4.98,8.31,4.98,13.78s-1.66,10.09-4.98,13.85c-3.32,3.66-7.4,5.5-12.24,5.5-4.45,0-7.92-1.47-10.41-4.4v18.03h-12.17v-51.31h12.17v3.37c2.49-2.93,5.96-4.4,10.41-4.4ZM151.38,67.73c1.42,1.47,3.27,2.2,5.57,2.2s4.15-.73,5.57-2.2c1.42-1.51,2.13-3.44,2.13-5.79s-.71-4.28-2.13-5.79c-1.42-1.47-3.27-2.2-5.57-2.2s-4.15.73-5.57,2.2c-1.42,1.52-2.13,3.44-2.13,5.79s.71,4.28,2.13,5.79Z"/>
        <path class="cls-2" d="M203.79,42.59c4.89,0,8.97,1.86,12.24,5.57,3.32,3.71,4.98,8.31,4.98,13.78s-1.66,10.09-4.98,13.85c-3.32,3.66-7.4,5.5-12.24,5.5-4.45,0-7.92-1.47-10.41-4.4v18.03h-12.17v-51.31h12.17v3.37c2.49-2.93,5.96-4.4,10.41-4.4ZM195.51,67.73c1.42,1.47,3.27,2.2,5.57,2.2s4.15-.73,5.57-2.2c1.42-1.51,2.13-3.44,2.13-5.79s-.71-4.28-2.13-5.79c-1.42-1.47-3.27-2.2-5.57-2.2s-4.15.73-5.57,2.2c-1.42,1.52-2.13,3.44-2.13,5.79s.71,4.28,2.13,5.79Z"/>
      </g>
      <circle class="cls-3" cx="125.2" cy="33.58" r="7"/>
    </g>
  </g>
</svg>