<?xml version="1.0" encoding="UTF-8"?>
<svg id="Design" xmlns="http://www.w3.org/2000/svg" viewBox="0 0 800 800">
  <defs>
    <style>
      .cls-1 {
        fill: #fff;
      }

      .cls-2 {
        fill: #003049;
      }

      .cls-3 {
        fill: #f47f20;
      }
    </style>
  </defs>
  <path class="cls-1" d="M767.13,372.71c-20.59-23.34-46.26-35.98-76.29-37.91-1.34-9.35-2.58-15.26-2.58-15.26-16.04-74.9-81.43-123.29-166.58-123.29-23.38,0-46.38,4.69-67.61,13.7-43.36-46.51-103.46-72.79-168.03-72.79-110.09,0-202.75,73.65-225.34,179.09,0,0-4.46,21.2-6.1,40.65-6.13,4.29-12,9.09-17.51,14.59C12.48,396.11,0,426.82,0,462.79s12.48,66.69,37.09,91.28c24.6,24.61,55.58,37.1,92.06,37.1,23.66,0,45.58-5.74,65.18-17.07,5.88-3.4,11.33-7.23,16.44-11.39v23.06h94.71v77.07h117.28v-75.07c8.78,2.25,18.16,3.4,28.06,3.4,33.14,0,61.44-12.67,84.34-37.91.82-.93,1.51-1.92,2.3-2.86v112.44h117.28v-75.07c8.78,2.25,18.16,3.4,28.06,3.4,33.14,0,61.44-12.67,84.34-37.91,21.81-24.71,32.87-55.15,32.87-90.47s-11.1-65.74-32.87-90.08Z"/>
  <g>
    <path class="cls-3" d="M645.74,345.46c-7.76,0-14.73-5.4-16.42-13.3-10.29-48.06-49.52-75.63-107.63-75.63-24.97,0-48.63,7.99-68.41,23.11-3.73,2.86-8.47,4.01-13.1,3.21-4.62-.81-8.7-3.51-11.24-7.45-31.48-48.82-84.9-77.96-142.89-77.96-81.39,0-149.82,54.05-166.39,131.44-1.95,9.08-10.89,14.87-19.96,12.92-9.08-1.95-14.87-10.88-12.92-19.96,19.93-93.04,101.88-158.02,199.28-158.02,63.72,0,122.83,29.37,161.27,79.35,22.44-13.3,47.84-20.26,74.37-20.26,73.17,0,127.01,39.16,140.52,102.21,1.95,9.08-3.84,18.02-12.92,19.96-1.19.25-2.37.38-3.54.38Z"/>
    <g>
      <g>
        <path class="cls-2" d="M129.15,564.51c-29.28,0-53.69-9.76-73.21-29.28-19.53-19.52-29.28-43.67-29.28-72.44s9.76-52.92,29.28-72.44c19.52-19.52,43.93-29.28,73.21-29.28,19.01,0,36.28,4.43,51.83,13.3,15.54,8.86,27.55,21,36.03,36.41l-54.72,31.6c-6.94-12.58-18.11-18.88-33.52-18.88-10.79,0-19.78,3.66-26.97,10.98-7.19,7.32-10.79,16.76-10.79,28.32s3.59,21,10.79,28.32c7.19,7.32,16.18,10.98,26.97,10.98,15.66,0,26.84-6.42,33.52-19.27l54.72,31.6c-8.48,15.41-20.49,27.62-36.03,36.61-15.55,8.99-32.82,13.48-51.83,13.48Z"/>
        <rect class="cls-2" x="237.43" y="366.46" width="63.96" height="192.66"/>
        <path class="cls-2" d="M450.82,361.07c25.68,0,47.13,9.76,64.35,29.28,17.46,19.53,26.2,43.67,26.2,72.44s-8.74,53.04-26.2,72.83c-17.47,19.26-38.92,28.9-64.35,28.9-23.38,0-41.62-7.71-54.72-23.12v94.79h-63.96v-269.72h63.96v17.73c13.1-15.41,31.34-23.12,54.72-23.12ZM407.28,493.23c7.45,7.71,17.21,11.56,29.28,11.56s21.83-3.86,29.28-11.56c7.45-7.96,11.17-18.11,11.17-30.44s-3.73-22.48-11.17-30.44c-7.45-7.71-17.21-11.56-29.28-11.56s-21.84,3.85-29.28,11.56c-7.45,7.96-11.17,18.11-11.17,30.44s3.72,22.48,11.17,30.44Z"/>
        <path class="cls-2" d="M682.79,361.07c25.68,0,47.13,9.76,64.35,29.28,17.46,19.53,26.2,43.67,26.2,72.44s-8.74,53.04-26.2,72.83c-17.47,19.26-38.92,28.9-64.35,28.9-23.38,0-41.62-7.71-54.72-23.12v94.79h-63.96v-269.72h63.96v17.73c13.1-15.41,31.34-23.12,54.72-23.12ZM639.25,493.23c7.45,7.71,17.21,11.56,29.28,11.56s21.83-3.86,29.28-11.56c7.45-7.96,11.17-18.11,11.17-30.44s-3.73-22.48-11.17-30.44c-7.45-7.71-17.21-11.56-29.28-11.56s-21.84,3.85-29.28,11.56c-7.45,7.96-11.17,18.11-11.17,30.44s3.72,22.48,11.17,30.44Z"/>
      </g>
      <circle class="cls-3" cx="269.61" cy="313.67" r="36.79"/>
    </g>
  </g>
</svg>