<?xml version="1.0" encoding="UTF-8"?>
<svg id="Design" xmlns="http://www.w3.org/2000/svg" viewBox="0 0 180 180">
  <defs>
    <style>
      .cls-1 {
        fill: #fff;
      }

      .cls-2 {
        fill: #003049;
      }

      .cls-3 {
        fill: #f47f20;
      }
    </style>
  </defs>
  <path class="cls-1" d="M172.61,83.86c-4.63-5.25-10.41-8.1-17.17-8.53-.3-2.1-.58-3.43-.58-3.43-3.61-16.85-18.32-27.74-37.48-27.74-5.26,0-10.44,1.06-15.21,3.08-9.76-10.47-23.28-16.38-37.81-16.38-24.77,0-45.62,16.57-50.7,40.3,0,0-1,4.77-1.37,9.15-1.38.96-2.7,2.05-3.94,3.28-5.54,5.54-8.35,12.45-8.35,20.54s2.81,15.01,8.34,20.54c5.54,5.54,12.5,8.35,20.71,8.35,5.32,0,10.26-1.29,14.66-3.84,1.32-.77,2.55-1.63,3.7-2.56v5.19h21.31v17.34h26.39v-16.89c1.97.51,4.09.76,6.31.76,7.46,0,13.82-2.85,18.98-8.53.18-.21.34-.43.52-.64v25.3h26.39v-16.89c1.97.51,4.09.76,6.31.76,7.46,0,13.82-2.85,18.98-8.53,4.91-5.56,7.4-12.41,7.4-20.36s-2.5-14.79-7.39-20.27Z"/>
  <g>
    <path class="cls-3" d="M145.29,77.73c-1.75,0-3.31-1.22-3.7-2.99-2.32-10.81-11.14-17.02-24.22-17.02-5.62,0-10.94,1.8-15.39,5.2-.84.64-1.91.9-2.95.72-1.04-.18-1.96-.79-2.53-1.68-7.08-10.98-19.1-17.54-32.15-17.54-18.31,0-33.71,12.16-37.44,29.57-.44,2.04-2.45,3.35-4.49,2.91-2.04-.44-3.34-2.45-2.91-4.49,4.48-20.93,22.92-35.55,44.84-35.55,14.34,0,27.64,6.61,36.29,17.85,5.05-2.99,10.76-4.56,16.73-4.56,16.46,0,28.58,8.81,31.62,23,.44,2.04-.86,4.05-2.91,4.49-.27.06-.53.08-.8.08Z"/>
    <g>
      <g>
        <path class="cls-2" d="M29.06,127.02c-6.59,0-12.08-2.2-16.47-6.59-4.39-4.39-6.59-9.83-6.59-16.3s2.2-11.91,6.59-16.3,9.88-6.59,16.47-6.59c4.28,0,8.16,1,11.66,2.99,3.5,1.99,6.2,4.72,8.11,8.19l-12.31,7.11c-1.56-2.83-4.07-4.25-7.54-4.25-2.43,0-4.45.82-6.07,2.47-1.62,1.65-2.43,3.77-2.43,6.37s.81,4.72,2.43,6.37c1.62,1.65,3.64,2.47,6.07,2.47,3.52,0,6.04-1.44,7.54-4.34l12.31,7.11c-1.91,3.47-4.61,6.21-8.11,8.24-3.5,2.02-7.38,3.03-11.66,3.03Z"/>
        <rect class="cls-2" x="53.42" y="82.45" width="14.39" height="43.35"/>
        <path class="cls-2" d="M101.43,81.24c5.78,0,10.61,2.2,14.48,6.59,3.93,4.39,5.89,9.83,5.89,16.3s-1.97,11.94-5.89,16.39c-3.93,4.33-8.76,6.5-14.48,6.5-5.26,0-9.36-1.73-12.31-5.2v21.33h-14.39v-60.69h14.39v3.99c2.95-3.47,7.05-5.2,12.31-5.2ZM91.64,110.98c1.68,1.73,3.87,2.6,6.59,2.6s4.91-.87,6.59-2.6c1.68-1.79,2.51-4.07,2.51-6.85s-.84-5.06-2.51-6.85c-1.68-1.73-3.87-2.6-6.59-2.6s-4.91.87-6.59,2.6c-1.68,1.79-2.51,4.07-2.51,6.85s.84,5.06,2.51,6.85Z"/>
        <path class="cls-2" d="M153.63,81.24c5.78,0,10.61,2.2,14.48,6.59,3.93,4.39,5.89,9.83,5.89,16.3s-1.97,11.94-5.89,16.39c-3.93,4.33-8.76,6.5-14.48,6.5-5.26,0-9.36-1.73-12.31-5.2v21.33h-14.39v-60.69h14.39v3.99c2.95-3.47,7.05-5.2,12.31-5.2ZM143.83,110.98c1.68,1.73,3.87,2.6,6.59,2.6s4.91-.87,6.59-2.6c1.68-1.79,2.51-4.07,2.51-6.85s-.84-5.06-2.51-6.85c-1.68-1.73-3.87-2.6-6.59-2.6s-4.91.87-6.59,2.6c-1.68,1.79-2.51,4.07-2.51,6.85s.84,5.06,2.51,6.85Z"/>
      </g>
      <circle class="cls-3" cx="60.66" cy="70.58" r="8.28"/>
    </g>
  </g>
</svg>