<?xml version="1.0" encoding="UTF-8"?>
<svg id="Design" xmlns="http://www.w3.org/2000/svg" viewBox="0 0 500 500">
  <circle cx="387.49" cy="333.82" r="8.08"/>
  <g>
    <path d="M95.96,252.37c6.96,0,13.37,2.38,18.48,6.35,5.03-43.71,42.14-77.64,87.19-77.64,33.49,0,62.59,18.76,77.39,46.34.12-.13.22-.27.33-.39.49-.58.93-1.09,1.32-1.54,9.64-11.08,16.36-14.29,30.99-11.32,17.69,3.6,28.93,31.63,28.93,31.63,0,0,16.61-4.93,27.08-4.93s25.44,6.11,25.44,6.11c0,0,14.36-14.86,18.05-17.6,1.57-1.16,6.17-4.67,11.85-6.67,1.48-.52,3.02-.94,4.61-1.19-17.52-81.06-89.62-141.78-175.92-141.78-99.39,0-179.97,80.58-179.97,179.98,0,1.58.02,3.16.06,4.75,5.51-7.34,14.27-12.1,24.16-12.1Z"/>
    <path d="M481.6,332.41s-7.66-2.66-15.59-11.46c-5.7-6.29-24.87-29.8-35.29-42.6-1.91-2.36-3.54-4.36-4.72-5.82-1.35-1.67-2.12-2.63-2.12-2.63,0,0,.93-.73,2.42-2.02,1.4-1.2,3.28-2.87,5.35-4.9,8.92-8.72,21.33-23.89,13.15-34.42-5.16-6.66-11.43-7.95-17.18-7.04-1.59.25-3.14.67-4.61,1.19-5.68,2-10.28,5.5-11.85,6.67-3.69,2.73-18.05,17.6-18.05,17.6,0,0-14.98-6.11-25.44-6.11s-27.08,4.93-27.08,4.93c0,0-11.24-28.03-28.93-31.63-14.63-2.98-21.35.23-31,11.31-.39.45-.83.96-1.32,1.54-.11.12-.21.26-.33.39-14.8-27.58-43.89-46.34-77.39-46.34-45.04,0-82.15,33.94-87.19,77.65-5.11-3.97-11.51-6.35-18.47-6.35-9.9,0-18.65,4.76-24.16,12.1-2.8,3.71-4.76,8.11-5.6,12.88h0c-5.35-1.69-11.06-2.54-17.02-2.37-26.33.8-47.92,22-49.13,48.31-1.33,29.11,21.88,53.11,50.69,53.11h134.93v-.11c.76.05,1.55.11,2.34.11,13.52,0,21.63-8.86,25.51-21.08,2.65-12.86,15.07-11.13,33.13-11.13,16.12-.08,42.1-.33,46.95-1.08,7.11-1.09,21.19-11.32,20.57-29.33,0,0-10.94,12.07-36.11,9.87-2.93-.25-5.66-.74-8.21-1.4-16.76-4.34-25.36-16.31-27.05-20.69.74-2.4,12.75-17.98,35.81-17.98,3.4,0,9.08.34,9.72.41,16.85,1.58,25.84,5.19,25.84,5.19l8.76-11.95s-25.99-37.57-29.55-41.94c-3.55-4.38-2.18-12.44,5.07-13.41,7.25-.95,11.63,1.11,15.59,5.07,3.97,3.96,13.4,14.1,17.37,23.13,3.97,9.01,14.77,29.39,14.77,29.39l-2.18-23.66s6.57-3.84,21.89-2.73c15.31,1.09,28.44,7.93,44.58,26.8,3.58,4.18,7.91,9.19,12.51,14.46,1.42,1.64,2.87,3.3,4.34,4.96,15.04,17.24,31.03,35.3,31.03,35.3,0,0-30.36,34.65-33.37,40.3-3,5.66-11.22,19.62-3,34.94,8.19,15.32,38.83,9.83,44.31,7.67,5.46-2.21,24.62-13.81,30.63-34.39,6.01-20.62,4.37-39.76-15.32-50.71ZM417.11,265.83s-6.29-5.47-9.58-8.21c-3.28-2.73-9.85-7.38-9.85-7.38,12.79-12.52,21.09-18.11,26.62-20.31,1.86-.75,3.42-1.11,4.72-1.22,2.84-.26,4.5.67,5.67,1.35,3.29,1.92,3.76,3.49,1.85,13.33-.57,2.94-2.53,6.12-5,9.13-1.54,1.89-3.27,3.71-5,5.36-4.77,4.6-9.43,7.95-9.43,7.95ZM475.16,372.72c-5.8,0-10.49-4.7-10.49-10.49s4.69-10.49,10.49-10.49,10.49,4.7,10.49,10.49-4.71,10.49-10.49,10.49Z"/>
  </g>
</svg>