<?xml version="1.0" encoding="UTF-8"?>
<svg id="Design" xmlns="http://www.w3.org/2000/svg" viewBox="0 0 500 500">
  <defs>
    <style>
      .cls-1 {
        fill: none;
      }

      .cls-2 {
        fill: #f77f00;
      }

      .cls-3 {
        fill: #fff;
      }
    </style>
  </defs>
  <g>
    <circle class="cls-3" cx="387.49" cy="333.82" r="8.08"/>
    <g>
      <path class="cls-1" d="M431.54,252.52c2.47-3.01,4.43-6.2,5-9.13,1.91-9.84,1.44-11.41-1.85-13.33-1.16-.68-2.83-1.61-5.67-1.35-1.3.11-2.85.47-4.72,1.22-5.53,2.2-13.82,7.8-26.61,20.31,0,0,6.57,4.65,9.85,7.39,3.29,2.74,9.58,8.2,9.58,8.2,0,0,4.66-3.35,9.43-7.95,1.72-1.65,3.46-3.48,5-5.36Z"/>
      <circle class="cls-1" cx="475.16" cy="362.23" r="10.49"/>
      <path class="cls-2" d="M95.96,252.37c6.96,0,13.37,2.38,18.48,6.35,5.03-43.71,42.14-77.64,87.19-77.64,33.49,0,62.59,18.76,77.39,46.34.12-.13.22-.27.33-.39.49-.58.93-1.09,1.32-1.54,9.64-11.08,16.36-14.29,30.99-11.32,17.69,3.6,28.93,31.63,28.93,31.63,0,0,16.61-4.93,27.08-4.93s25.44,6.11,25.44,6.11c0,0,14.36-14.86,18.05-17.6,1.57-1.16,6.17-4.67,11.85-6.67,1.48-.52,3.02-.94,4.61-1.19-17.52-81.06-89.62-141.78-175.92-141.78-99.39,0-179.97,80.58-179.97,179.98,0,1.58.02,3.16.06,4.75,5.51-7.34,14.27-12.1,24.16-12.1Z"/>
      <path class="cls-3" d="M481.6,332.41s-7.66-2.67-15.59-11.47c-5.7-6.28-24.87-29.8-35.29-42.59-1.91-2.36-3.54-4.36-4.72-5.82-1.35-1.67-2.12-2.63-2.12-2.63,0,0,.93-.73,2.43-2.02,1.4-1.2,3.27-2.87,5.34-4.9,8.92-8.73,21.33-23.89,13.16-34.43-5.16-6.66-11.43-7.95-17.18-7.04-1.59.25-3.14.68-4.61,1.19-5.68,2-10.28,5.5-11.85,6.67-3.69,2.74-18.05,17.6-18.05,17.6,0,0-14.98-6.11-25.44-6.11s-27.08,4.93-27.08,4.93c0,0-11.24-28.03-28.93-31.63-14.63-2.98-21.35.23-30.99,11.32-.39.44-.84.96-1.32,1.54-.11.12-.21.26-.33.39-14.8-27.58-43.89-46.34-77.39-46.34-45.05,0-82.16,33.94-87.19,77.64-5.11-3.96-11.52-6.35-18.48-6.35-9.89,0-18.65,4.76-24.16,12.1-2.8,3.72-4.76,8.11-5.59,12.88h0c-5.34-1.69-11.06-2.54-17.01-2.36-26.33.79-47.92,22-49.13,48.31-1.33,29.1,21.88,53.11,50.68,53.11h134.93v-.12c.76.05,1.56.12,2.34.12,13.52,0,21.64-8.86,25.51-21.08,2.65-12.86,15.08-11.13,33.13-11.13,16.12-.08,42.11-.33,46.95-1.08,7.11-1.08,21.19-11.32,20.58-29.32,0,0-10.94,12.07-36.11,9.87-2.93-.25-5.66-.74-8.21-1.4-16.76-4.34-25.36-16.3-27.05-20.68.75-2.4,12.76-17.98,35.81-17.98,3.4,0,9.08.34,9.72.41,16.84,1.58,25.84,5.19,25.84,5.19l8.76-11.95s-25.99-37.57-29.55-41.95c-3.56-4.37-2.19-12.44,5.07-13.4,7.25-.95,11.63,1.1,15.59,5.07,3.97,3.96,13.4,14.1,17.37,23.13,3.97,9.01,14.77,29.4,14.77,29.4l-2.19-23.66s6.58-3.84,21.89-2.73c15.32,1.08,28.44,7.93,44.59,26.8,3.57,4.18,7.91,9.19,12.51,14.46,1.42,1.64,2.87,3.3,4.34,4.96,15.04,17.24,31.03,35.3,31.03,35.3,0,0-30.35,34.65-33.37,40.3-3,5.66-11.22,19.62-3,34.93,8.2,15.32,38.83,9.84,44.31,7.67,5.47-2.2,24.62-13.8,30.63-34.39,6.02-20.61,4.37-39.76-15.32-50.7ZM417.11,265.83s-6.29-5.47-9.58-8.2c-3.28-2.74-9.85-7.39-9.85-7.39,12.79-12.52,21.08-18.11,26.61-20.31,1.87-.75,3.42-1.11,4.72-1.22,2.84-.26,4.51.67,5.67,1.35,3.29,1.92,3.76,3.49,1.85,13.33-.57,2.93-2.52,6.12-5,9.13-1.54,1.88-3.27,3.71-5,5.36-4.77,4.6-9.43,7.95-9.43,7.95ZM475.16,372.72c-5.8,0-10.49-4.69-10.49-10.49s4.69-10.49,10.49-10.49,10.49,4.7,10.49,10.49-4.7,10.49-10.49,10.49Z"/>
    </g>
  </g>
  <g>
    <path class="cls-3" d="M223.87,374.82c0-5.71,4.24-10.09,10.09-10.09,3.52,0,6.62,1.75,8.31,4.49l-3.82,2.22c-.86-1.5-2.52-2.38-4.49-2.38-3.44,0-5.65,2.3-5.65,5.76s2.22,5.76,5.65,5.76c1.97,0,3.66-.89,4.49-2.38l3.82,2.22c-1.66,2.74-4.77,4.49-8.31,4.49-5.85,0-10.09-4.38-10.09-10.09Z"/>
    <path class="cls-3" d="M257.65,370.66l-4.74,13.44c-1.55,4.41-4.02,6.15-7.9,5.96v-3.88c1.94,0,2.85-.61,3.46-2.3l-5.51-13.22h4.57l3.08,8.48,2.61-8.48h4.43Z"/>
    <path class="cls-3" d="M274.08,377.59c0,4.13-2.99,7.32-6.62,7.32-1.86,0-3.21-.64-4.13-1.69v1.3h-4.16v-19.4h4.16v6.85c.91-1.05,2.27-1.69,4.13-1.69,3.63,0,6.62,3.19,6.62,7.32ZM269.93,377.59c0-2.08-1.39-3.38-3.3-3.38s-3.3,1.3-3.3,3.38,1.39,3.38,3.3,3.38,3.3-1.3,3.3-3.38Z"/>
    <path class="cls-3" d="M283.48,381.19c1.14,0,2.11-.44,2.66-1.05l3.33,1.91c-1.36,1.88-3.41,2.85-6.04,2.85-4.74,0-7.68-3.19-7.68-7.32s2.99-7.32,7.37-7.32c4.05,0,7.04,3.13,7.04,7.32,0,.58-.06,1.14-.17,1.66h-9.84c.53,1.44,1.8,1.94,3.33,1.94ZM286.03,376.15c-.44-1.61-1.69-2.19-2.94-2.19-1.58,0-2.63.78-3.02,2.19h5.96Z"/>
    <path class="cls-3" d="M300.82,370.39v4.71c-1.72-.28-4.16.42-4.16,3.16v6.26h-4.16v-13.86h4.16v2.47c.55-1.86,2.41-2.74,4.16-2.74Z"/>
    <path class="cls-2" d="M320.09,374.82c0,5.35-3.8,9.7-9.15,9.7h-7.29v-19.4h7.29c5.35,0,9.15,4.35,9.15,9.7ZM318.64,374.82c0-4.6-3.13-8.31-7.7-8.31h-5.82v16.63h5.82c4.57,0,7.7-3.71,7.7-8.31Z"/>
    <path class="cls-2" d="M329.54,370.47v1.33c-2.38,0-4.63,1.47-4.63,5.02v7.7h-1.39v-13.86h1.39v2.72c.94-2.19,2.74-2.91,4.63-2.91Z"/>
    <path class="cls-2" d="M345.11,370.66v13.86h-1.41v-3.13c-1.16,2.08-3.3,3.44-5.96,3.44-3.94,0-7.18-3.13-7.18-7.23s3.24-7.23,7.18-7.23c2.66,0,4.79,1.36,5.96,3.44v-3.13h1.41ZM343.7,377.59c0-3.3-2.55-5.9-5.85-5.9s-5.88,2.61-5.88,5.9,2.58,5.9,5.88,5.9,5.85-2.61,5.85-5.9Z"/>
    <path class="cls-2" d="M348.96,366.2c0-.58.5-1.08,1.11-1.08s1.11.5,1.11,1.08-.5,1.11-1.11,1.11-1.11-.5-1.11-1.11ZM349.38,370.66h1.39v13.86h-1.39v-13.86Z"/>
    <path class="cls-2" d="M366.75,375.9v8.62h-1.41v-8.62c0-2.55-1.47-4.21-4.07-4.21s-4.85,1.77-4.85,5.52v7.32h-1.39v-13.86h1.39v2.63c1.05-2.05,2.83-2.94,4.96-2.94,3.3,0,5.38,2.19,5.38,5.54Z"/>
  </g>
</svg>