<?xml version="1.0" encoding="UTF-8"?>
<svg id="Design" xmlns="http://www.w3.org/2000/svg" viewBox="0 0 32 32">
  <defs>
    <style>
      .cls-1 {
        fill: #fff;
      }

      .cls-2 {
        fill: #f77f00;
      }
    </style>
  </defs>
  <g>
    <path class="cls-2" d="M25.61,12.54v5.6c0,3.19-1.84,6.22-5.17,8.52l-1.86,1.29-.55.38h-8.56c-.29,0-.55-.11-.75-.3-.19-.18-.31-.43-.31-.71,0-.5.37-.91.87-.99.06-.01.13-.02.19-.02h9.33c.26,0,.49-.1.65-.26.17-.16.27-.38.27-.63,0-.49-.42-.88-.93-.88h-3.46c-.3,0-.58-.12-.78-.31-.2-.19-.32-.45-.32-.74,0-.58.49-1.05,1.1-1.05h2.87c.26,0,.49-.1.65-.26.17-.16.27-.38.27-.62,0-.49-.42-.89-.93-.89h-7.3c-.41,0-.78-.16-1.04-.41-.27-.25-.43-.61-.43-1,0-.78.66-1.41,1.48-1.41h3.17c.35,0,.67-.14.89-.35.23-.22.37-.52.37-.86,0-.67-.57-1.21-1.27-1.21H5.38c-.42,0-.8-.16-1.07-.42-.28-.26-.45-.62-.45-1.02,0-.8.68-1.45,1.52-1.45h20.23Z"/>
    <polygon class="cls-1" points="21.39 29.08 17.16 32 12.93 29.08 21.39 29.08"/>
    <path class="cls-1" d="M12.44,25.55h-2.98c-.11,0-.22,0-.32.03-.05,0-.1.02-.15.03-1.83-2.24-2.83-4.83-2.83-7.47v-1.94h2.53v1.94c0,.21,0,.42.02.63h0c0,.07.01.14.02.21,0,.07.01.14.02.21.02.14.04.28.06.42.02.14.05.28.09.42.03.14.06.27.1.4,0,0,0,0,0,0,.53,1.85,1.69,3.6,3.42,5.11Z"/>
    <path class="cls-1" d="M28.14,8.95v9.19c0,3.62-1.88,7.13-5.19,9.8-.16.13-.32.26-.49.38h-4.43l.55-.38,1.86-1.29c3.33-2.3,5.17-5.32,5.17-8.52v-6.65H8.7v.29h-2.53v-2.83h21.97Z"/>
    <path class="cls-1" d="M8.73,18.77c0,.07.01.14.02.21,0-.07-.01-.14-.02-.21,0,0,0,0,0,0Z"/>
    <path class="cls-1" d="M9.03,20.44s0,0,0,0c-.04-.13-.07-.27-.1-.4.03.14.07.27.11.41Z"/>
  </g>
  <path class="cls-2" d="M16.71,0c-4.57,0-8.44,3.22-9.66,7.61h2.57c1.11-3.02,3.87-5.16,7.09-5.16s5.97,2.14,7.09,5.16h2.57c-1.23-4.4-5.09-7.61-9.66-7.61Z"/>
</svg>