<?xml version="1.0" encoding="UTF-8"?>
<svg id="Design" xmlns="http://www.w3.org/2000/svg" viewBox="0 0 500 500">
  <defs>
    <style>
      .cls-1 {
        fill: #fff;
      }

      .cls-2 {
        fill: #f77f00;
      }
    </style>
  </defs>
  <g>
    <path class="cls-2" d="M400.19,195.89v87.51c0,49.88-28.7,97.13-80.78,133.07l-29.04,20.09-8.61,5.94h-133.8c-4.55,0-8.67-1.77-11.65-4.64-2.96-2.84-4.81-6.75-4.81-11.1,0-7.77,5.85-14.17,13.54-15.48.96-.17,1.97-.26,2.93-.26h145.74c4,0,7.62-1.57,10.23-4.03,2.64-2.55,4.26-6,4.26-9.83,0-7.65-6.49-13.83-14.49-13.83h-54.06c-4.75,0-9.01-1.83-12.12-4.78-3.1-2.96-5.04-7.07-5.04-11.57,0-9.01,7.68-16.35,17.16-16.35h44.84c4,0,7.62-1.54,10.23-4.09,2.64-2.46,4.26-5.94,4.26-9.74,0-7.68-6.49-13.85-14.49-13.85h-114.09c-6.38,0-12.12-2.43-16.29-6.43-4.23-3.97-6.78-9.51-6.78-15.57,0-12.2,10.32-22.06,23.07-22.06h49.48c5.45,0,10.41-2.12,13.97-5.48,3.57-3.45,5.8-8.14,5.8-13.39,0-10.41-8.9-18.87-19.77-18.87H84.02c-6.55,0-12.49-2.52-16.78-6.64-4.32-4.06-6.96-9.74-6.96-15.97,0-12.55,10.61-22.67,23.74-22.67h316.17Z"/>
    <polygon class="cls-1" points="334.22 454.32 268.07 500 201.96 454.32 334.22 454.32"/>
    <path class="cls-1" d="M194.45,399.16h-46.49c-1.74,0-3.39.15-5.01.43-.78.14-1.57.29-2.32.49-28.58-35.04-44.2-75.42-44.2-116.69v-30.35h39.56v30.35c0,3.28.12,6.55.38,9.83v.09c.09,1.07.17,2.14.29,3.22.12,1.1.23,2.2.38,3.3.29,2.17.61,4.38,1.01,6.55.38,2.17.84,4.35,1.33,6.52.46,2.12,1.01,4.23,1.62,6.32,0,.06.03.09.03.14,8.26,28.93,26.46,56.17,53.42,79.8Z"/>
    <path class="cls-1" d="M439.72,139.83v143.56c0,56.52-29.3,111.42-81.07,153.16-2.49,2-5.04,4-7.65,5.94h-69.25l8.61-5.94,29.04-20.09c52.09-35.94,80.78-83.19,80.78-133.07v-103.97H135.99v4.58h-39.56v-44.17h343.3Z"/>
    <path class="cls-1" d="M136.39,293.22c.09,1.1.17,2.2.26,3.3-.12-1.07-.2-2.14-.29-3.22,0-.03.03-.06.03-.09Z"/>
    <path class="cls-1" d="M141.06,319.34s-.06-.09-.06-.12c-.61-2.09-1.16-4.2-1.62-6.32.49,2.14,1.07,4.29,1.68,6.43Z"/>
  </g>
  <path class="cls-2" d="M261.04,0c-71.36,0-131.8,50.27-150.94,118.95h40.21c17.41-47.17,60.47-80.66,110.74-80.66s93.33,33.49,110.74,80.66h40.21C392.84,50.27,332.4,0,261.04,0Z"/>
</svg>