<?xml version="1.0" encoding="UTF-8"?>
<svg id="Design" xmlns="http://www.w3.org/2000/svg" viewBox="0 0 250 100">
  <defs>
    <style>
      .cls-1 {
        fill: #fff;
      }

      .cls-2 {
        fill: #f77f00;
      }
    </style>
  </defs>
  <g>
    <path class="cls-2" d="M155.04,39.18v17.5c0,9.98-5.74,19.43-16.16,26.61l-5.81,4.02-1.72,1.19h-26.76c-.91,0-1.73-.35-2.33-.93-.59-.57-.96-1.35-.96-2.22,0-1.55,1.17-2.83,2.71-3.1.19-.03.39-.05.59-.05h29.15c.8,0,1.52-.31,2.05-.81.53-.51.85-1.2.85-1.97,0-1.53-1.3-2.77-2.9-2.77h-10.81c-.95,0-1.8-.37-2.42-.96-.62-.59-1.01-1.41-1.01-2.31,0-1.8,1.54-3.27,3.43-3.27h8.97c.8,0,1.52-.31,2.05-.82.53-.49.85-1.19.85-1.95,0-1.54-1.3-2.77-2.9-2.77h-22.82c-1.28,0-2.42-.49-3.26-1.29-.85-.79-1.36-1.9-1.36-3.11,0-2.44,2.06-4.41,4.61-4.41h9.9c1.09,0,2.08-.42,2.79-1.1.71-.69,1.16-1.63,1.16-2.68,0-2.08-1.78-3.77-3.95-3.77h-27.17c-1.31,0-2.5-.5-3.36-1.33-.86-.81-1.39-1.95-1.39-3.19,0-2.51,2.12-4.53,4.75-4.53h63.23Z"/>
    <polygon class="cls-1" points="141.84 90.86 128.61 100 115.39 90.86 141.84 90.86"/>
    <path class="cls-1" d="M113.89,79.83h-9.3c-.35,0-.68.03-1,.09-.16.03-.31.06-.46.1-5.72-7.01-8.84-15.08-8.84-23.34v-6.07h7.91v6.07c0,.66.02,1.31.08,1.97v.02c.02.21.03.43.06.64.02.22.05.44.08.66.06.43.12.88.2,1.31.08.43.17.87.27,1.3.09.42.2.85.32,1.26,0,.01,0,.02,0,.03,1.65,5.79,5.29,11.23,10.68,15.96Z"/>
    <path class="cls-1" d="M162.94,27.97v28.71c0,11.3-5.86,22.28-16.21,30.63-.5.4-1.01.8-1.53,1.19h-13.85l1.72-1.19,5.81-4.02c10.42-7.19,16.16-16.64,16.16-26.61v-20.79h-52.84v.92h-7.91v-8.83h68.66Z"/>
    <path class="cls-1" d="M102.28,58.64c.02.22.03.44.05.66-.02-.21-.04-.43-.06-.64,0,0,0-.01,0-.02Z"/>
    <path class="cls-1" d="M103.21,63.87s-.01-.02-.01-.02c-.12-.42-.23-.84-.32-1.26.1.43.21.86.34,1.29Z"/>
  </g>
  <path class="cls-2" d="M127.21,0c-14.27,0-26.36,10.05-30.19,23.79h8.04c3.48-9.43,12.09-16.13,22.15-16.13s18.67,6.7,22.15,16.13h8.04c-3.83-13.74-15.92-23.79-30.19-23.79Z"/>
</svg>