<?xml version="1.0" encoding="UTF-8"?>
<svg id="Design" xmlns="http://www.w3.org/2000/svg" viewBox="0 0 800 800">
  <defs>
    <style>
      .cls-1 {
        fill: #fff;
      }

      .cls-2 {
        fill: #f77f00;
      }
    </style>
  </defs>
  <g>
    <path class="cls-2" d="M640.3,313.42v140.01c0,79.81-45.91,155.41-129.25,212.91l-46.47,32.14-13.77,9.51h-214.07c-7.28,0-13.87-2.83-18.64-7.42-4.73-4.55-7.7-10.81-7.7-17.76,0-12.43,9.37-22.68,21.66-24.77,1.53-.28,3.15-.42,4.68-.42h233.18c6.4,0,12.2-2.5,16.37-6.45,4.22-4.08,6.82-9.6,6.82-15.72,0-12.24-10.39-22.12-23.19-22.12h-86.49c-7.61,0-14.42-2.92-19.39-7.65-4.96-4.73-8.07-11.32-8.07-18.5,0-14.42,12.29-26.16,27.45-26.16h71.74c6.4,0,12.2-2.46,16.37-6.54,4.22-3.94,6.82-9.51,6.82-15.58,0-12.29-10.39-22.17-23.19-22.17h-182.54c-10.2,0-19.39-3.9-26.06-10.3-6.77-6.35-10.85-15.21-10.85-24.9,0-19.52,16.51-35.29,36.92-35.29h79.16c8.72,0,16.65-3.39,22.35-8.77,5.7-5.52,9.28-13.03,9.28-21.43,0-16.65-14.24-30.19-31.63-30.19h-217.37c-10.48,0-19.99-4.03-26.85-10.62-6.91-6.49-11.13-15.58-11.13-25.55,0-20.08,16.97-36.27,37.98-36.27h505.87Z"/>
    <polygon class="cls-1" points="534.75 726.91 428.92 800 323.13 726.91 534.75 726.91"/>
    <path class="cls-1" d="M311.12,638.66h-74.39c-2.78,0-5.43.23-8.02.7-1.25.23-2.5.46-3.71.79-45.73-56.07-70.72-120.67-70.72-186.71v-48.56h63.3v48.56c0,5.24.19,10.48.6,15.72v.14c.14,1.72.28,3.43.46,5.15.19,1.76.37,3.52.6,5.29.46,3.48.97,7,1.62,10.48.6,3.48,1.35,6.96,2.13,10.43.74,3.39,1.62,6.77,2.6,10.11,0,.09.05.14.05.23,13.22,46.28,42.34,89.88,85.47,127.67Z"/>
    <path class="cls-1" d="M703.56,223.73v229.7c0,90.43-46.89,178.27-129.71,245.05-3.99,3.2-8.07,6.4-12.24,9.51h-110.79l13.77-9.51,46.47-32.14c83.34-57.51,129.25-133.1,129.25-212.91v-166.35H217.58v7.33h-63.3v-70.68h549.28Z"/>
    <path class="cls-1" d="M218.23,469.15c.14,1.76.28,3.52.42,5.29-.19-1.72-.32-3.43-.46-5.15,0-.05.05-.09.05-.14Z"/>
    <path class="cls-1" d="M225.7,510.94s-.09-.14-.09-.19c-.97-3.34-1.85-6.72-2.6-10.11.79,3.43,1.72,6.86,2.69,10.3Z"/>
  </g>
  <path class="cls-2" d="M417.66,0c-114.18,0-210.88,80.43-241.51,190.32h64.33c27.85-75.47,96.75-129.05,177.18-129.05s149.33,53.58,177.18,129.05h64.33C628.54,80.43,531.84,0,417.66,0Z"/>
</svg>