<?xml version="1.0" encoding="UTF-8"?>
<svg id="Design" xmlns="http://www.w3.org/2000/svg" viewBox="0 0 800 800">
  <defs>
    <style>
      .cls-1 {
        fill: #fff;
      }

      .cls-2 {
        fill: #f77f00;
      }
    </style>
  </defs>
  <g>
    <g>
      <path class="cls-2" d="M124.15,380.24v31.96c0,18.22-10.48,35.48-29.51,48.6l-10.61,7.34-3.14,2.17h-48.87c-1.66,0-3.17-.65-4.26-1.69-1.08-1.04-1.76-2.47-1.76-4.05,0-2.84,2.14-5.18,4.94-5.65.35-.06.72-.1,1.07-.1h53.23c1.46,0,2.78-.57,3.74-1.47.96-.93,1.56-2.19,1.56-3.59,0-2.79-2.37-5.05-5.29-5.05h-19.74c-1.74,0-3.29-.67-4.43-1.75-1.13-1.08-1.84-2.58-1.84-4.22,0-3.29,2.81-5.97,6.27-5.97h16.38c1.46,0,2.78-.56,3.74-1.49.96-.9,1.56-2.17,1.56-3.56,0-2.81-2.37-5.06-5.29-5.06h-41.67c-2.33,0-4.43-.89-5.95-2.35-1.55-1.45-2.48-3.47-2.48-5.69,0-4.46,3.77-8.06,8.43-8.06h18.07c1.99,0,3.8-.77,5.1-2,1.3-1.26,2.12-2.97,2.12-4.89,0-3.8-3.25-6.89-7.22-6.89H8.67c-2.39,0-4.56-.92-6.13-2.42-1.58-1.48-2.54-3.56-2.54-5.83,0-4.58,3.87-8.28,8.67-8.28h115.48Z"/>
      <polygon class="cls-1" points="100.06 474.63 75.9 491.31 51.75 474.63 100.06 474.63"/>
      <path class="cls-1" d="M49.01,454.48h-16.98c-.64,0-1.24.05-1.83.16-.29.05-.57.11-.85.18-10.44-12.8-16.14-27.55-16.14-42.62v-11.08h14.45v11.08c0,1.2.04,2.39.14,3.59v.03c.03.39.06.78.11,1.18.04.4.08.8.14,1.21.11.79.22,1.6.37,2.39.14.79.31,1.59.49,2.38.17.77.37,1.55.59,2.31,0,.02.01.03.01.05,3.02,10.57,9.67,20.52,19.51,29.15Z"/>
      <path class="cls-1" d="M138.59,359.76v52.44c0,20.64-10.7,40.7-29.61,55.94-.91.73-1.84,1.46-2.79,2.17h-25.29l3.14-2.17,10.61-7.34c19.02-13.13,29.51-30.38,29.51-48.6v-37.97H27.65v1.67h-14.45v-16.13h125.39Z"/>
      <path class="cls-1" d="M27.8,415.79c.03.4.06.8.1,1.21-.04-.39-.07-.78-.11-1.18,0-.01.01-.02.01-.03Z"/>
      <path class="cls-1" d="M29.51,425.32s-.02-.03-.02-.04c-.22-.76-.42-1.54-.59-2.31.18.78.39,1.57.61,2.35Z"/>
    </g>
    <path class="cls-2" d="M73.33,308.69c-26.07,0-48.14,18.36-55.13,43.45h14.69c6.36-17.23,22.09-29.46,40.45-29.46s34.09,12.23,40.45,29.46h14.69c-6.99-25.09-29.07-43.45-55.13-43.45Z"/>
  </g>
  <g>
    <path class="cls-1" d="M187.42,392.87c0-24.48,18.18-43.25,43.25-43.25,15.09,0,28.4,7.49,35.64,19.25l-16.4,9.51c-3.68-6.42-10.81-10.22-19.25-10.22-14.73,0-24.24,9.86-24.24,24.71s9.51,24.71,24.24,24.71c8.44,0,15.68-3.8,19.25-10.22l16.4,9.51c-7.13,11.76-20.44,19.25-35.64,19.25-25.07,0-43.25-18.77-43.25-43.25Z"/>
    <path class="cls-1" d="M332.25,375.05l-20.32,57.62c-6.65,18.89-17.23,26.38-33.86,25.54v-16.63c8.32,0,12.24-2.61,14.85-9.86l-23.64-56.67h19.6l13.19,36.36,11.17-36.36h19.01Z"/>
    <path class="cls-1" d="M402.7,404.75c0,17.7-12.83,31.37-28.4,31.37-7.96,0-13.78-2.73-17.7-7.25v5.58h-17.82v-83.17h17.82v29.35c3.92-4.51,9.74-7.25,17.7-7.25,15.56,0,28.4,13.66,28.4,31.37ZM384.88,404.75c0-8.91-5.94-14.5-14.14-14.5s-14.14,5.58-14.14,14.5,5.94,14.49,14.14,14.49,14.14-5.58,14.14-14.49Z"/>
    <path class="cls-1" d="M442.98,420.2c4.87,0,9.03-1.9,11.41-4.51l14.26,8.2c-5.82,8.08-14.61,12.24-25.9,12.24-20.32,0-32.91-13.66-32.91-31.37s12.83-31.37,31.6-31.37c17.35,0,30.18,13.43,30.18,31.37,0,2.49-.24,4.87-.71,7.13h-42.18c2.26,6.18,7.72,8.32,14.26,8.32ZM453.91,398.57c-1.9-6.89-7.25-9.39-12.59-9.39-6.77,0-11.29,3.33-12.95,9.39h25.54Z"/>
    <path class="cls-1" d="M517.35,373.86v20.2c-7.37-1.19-17.82,1.78-17.82,13.54v26.85h-17.82v-59.41h17.82v10.57c2.38-7.96,10.34-11.76,17.82-11.76Z"/>
    <path class="cls-2" d="M599.93,392.87c0,22.93-16.28,41.58-39.21,41.58h-31.25v-83.17h31.25c22.93,0,39.21,18.65,39.21,41.58ZM593.75,392.87c0-19.72-13.43-35.64-33.03-35.64h-24.95v71.29h24.95c19.6,0,33.03-15.92,33.03-35.64Z"/>
    <path class="cls-2" d="M640.44,374.22v5.7c-10.22,0-19.84,6.3-19.84,21.51v33.03h-5.94v-59.41h5.94v11.64c4.04-9.39,11.76-12.47,19.84-12.47Z"/>
    <path class="cls-2" d="M707.21,375.05v59.41h-6.06v-13.43c-4.99,8.91-14.14,14.73-25.55,14.73-16.87,0-30.77-13.43-30.77-31.01s13.9-31.01,30.77-31.01c11.41,0,20.56,5.82,25.55,14.73v-13.43h6.06ZM701.15,404.75c0-14.14-10.93-25.31-25.07-25.31s-25.19,11.17-25.19,25.31,11.05,25.31,25.19,25.31,25.07-11.17,25.07-25.31Z"/>
    <path class="cls-2" d="M723.72,355.92c0-2.5,2.14-4.63,4.75-4.63s4.75,2.14,4.75,4.63-2.14,4.75-4.75,4.75-4.75-2.14-4.75-4.75ZM725.51,375.05h5.94v59.41h-5.94v-59.41Z"/>
    <path class="cls-2" d="M800,397.5v36.95h-6.06v-36.95c0-10.93-6.3-18.06-17.47-18.06s-20.79,7.6-20.79,23.64v31.37h-5.94v-59.41h5.94v11.29c4.51-8.79,12.12-12.59,21.27-12.59,14.14,0,23.05,9.39,23.05,23.76Z"/>
  </g>
</svg>