<?xml version="1.0" encoding="UTF-8"?>
<svg id="Design" xmlns="http://www.w3.org/2000/svg" viewBox="0 0 1546 423">
  <defs>
    <style>
      .cls-1 {
        fill: #fff;
      }

      .cls-2 {
        fill: #f77f00;
      }
    </style>
  </defs>
  <g>
    <g>
      <path class="cls-2" d="M239.92,173.31v61.77c0,35.21-20.25,68.56-57.02,93.93l-20.5,14.18-6.08,4.19H61.89c-3.21,0-6.12-1.25-8.22-3.27-2.09-2.01-3.4-4.77-3.4-7.84,0-5.48,4.13-10,9.55-10.93.68-.12,1.39-.18,2.07-.18h102.87c2.82,0,5.38-1.1,7.22-2.84,1.86-1.8,3.01-4.23,3.01-6.94,0-5.4-4.58-9.76-10.23-9.76h-38.16c-3.36,0-6.36-1.29-8.55-3.38-2.19-2.09-3.56-4.99-3.56-8.16,0-6.36,5.42-11.54,12.11-11.54h31.65c2.82,0,5.38-1.08,7.22-2.88,1.86-1.74,3.01-4.19,3.01-6.87,0-5.42-4.58-9.78-10.23-9.78h-80.53c-4.5,0-8.55-1.72-11.5-4.54-2.99-2.8-4.79-6.71-4.79-10.99,0-8.61,7.28-15.57,16.29-15.57h34.92c3.85,0,7.34-1.49,9.86-3.87,2.52-2.43,4.09-5.75,4.09-9.45,0-7.34-6.28-13.32-13.95-13.32H16.76c-4.62,0-8.82-1.78-11.85-4.69-3.05-2.86-4.91-6.87-4.91-11.27,0-8.86,7.49-16,16.76-16h223.16Z"/>
      <polygon class="cls-1" points="193.36 355.72 146.67 387.96 100 355.72 193.36 355.72"/>
      <path class="cls-1" d="M94.7,316.78h-32.82c-1.23,0-2.39.1-3.54.31-.55.1-1.1.2-1.64.35-20.17-24.73-31.2-53.23-31.2-82.37v-21.42h27.93v21.42c0,2.31.08,4.62.27,6.94v.06c.06.76.12,1.51.2,2.27.08.78.16,1.55.27,2.33.2,1.53.43,3.09.72,4.62.27,1.53.59,3.07.94,4.6.33,1.49.72,2.99,1.15,4.46,0,.04.02.06.02.1,5.83,20.42,18.68,39.65,37.71,56.32Z"/>
      <path class="cls-1" d="M267.83,133.74v101.33c0,39.89-20.68,78.64-57.22,108.1-1.76,1.41-3.56,2.82-5.4,4.19h-48.88l6.08-4.19,20.5-14.18c36.76-25.37,57.02-58.72,57.02-93.93v-73.39H53.44v3.23h-27.93v-31.18h242.31Z"/>
      <path class="cls-1" d="M53.72,242.01c.06.78.12,1.55.18,2.33-.08-.76-.14-1.51-.2-2.27,0-.02.02-.04.02-.06Z"/>
      <path class="cls-1" d="M57.02,260.44s-.04-.06-.04-.08c-.43-1.47-.82-2.97-1.15-4.46.35,1.51.76,3.03,1.19,4.54Z"/>
    </g>
    <path class="cls-2" d="M141.7,35.04c-50.37,0-93.03,35.48-106.54,83.96h28.38c12.29-33.29,42.68-56.93,78.16-56.93s65.88,23.64,78.16,56.93h28.38c-13.51-48.48-56.17-83.96-106.54-83.96Z"/>
  </g>
  <g>
    <path class="cls-1" d="M362.18,197.72c0-47.3,35.13-83.58,83.58-83.58,29.16,0,54.88,14.47,68.88,37.2l-31.69,18.37c-7.12-12.4-20.89-19.75-37.2-19.75-28.47,0-46.84,19.06-46.84,47.76s18.37,47.76,46.84,47.76c16.3,0,30.31-7.35,37.2-19.75l31.69,18.37c-13.78,22.73-39.49,37.2-68.88,37.2-48.45,0-83.58-36.28-83.58-83.58Z"/>
    <path class="cls-1" d="M642.07,163.28l-39.26,111.36c-12.86,36.51-33.29,50.97-65.44,49.36v-32.14c16.07,0,23.65-5.05,28.7-19.06l-45.69-109.52h37.88l25.49,70.26,21.58-70.26h36.74Z"/>
    <path class="cls-1" d="M778.22,220.68c0,34.21-24.8,60.62-54.88,60.62-15.38,0-26.63-5.28-34.21-14.01v10.79h-34.44V117.36h34.44v56.71c7.58-8.72,18.83-14.01,34.21-14.01,30.08,0,54.88,26.4,54.88,60.62ZM743.78,220.68c0-17.22-11.48-28.01-27.32-28.01s-27.32,10.79-27.32,28.01,11.48,28.01,27.32,28.01,27.32-10.79,27.32-28.01Z"/>
    <path class="cls-1" d="M856.05,250.53c9.41,0,17.45-3.67,22.04-8.72l27.55,15.84c-11.25,15.61-28.24,23.65-50.05,23.65-39.26,0-63.6-26.4-63.6-60.62s24.8-60.62,61.08-60.62c33.52,0,58.32,25.95,58.32,60.62,0,4.82-.46,9.41-1.38,13.78h-81.51c4.36,11.94,14.92,16.07,27.55,16.07ZM877.18,208.74c-3.67-13.32-14.01-18.14-24.34-18.14-13.09,0-21.81,6.43-25.03,18.14h49.36Z"/>
    <path class="cls-1" d="M999.78,160.99v39.03c-14.24-2.3-34.44,3.44-34.44,26.17v51.89h-34.44v-114.8h34.44v20.43c4.59-15.38,19.98-22.73,34.44-22.73Z"/>
    <path class="cls-2" d="M1159.36,197.72c0,44.31-31.46,80.36-75.77,80.36h-60.39V117.36h60.39c44.31,0,75.77,36.05,75.77,80.36ZM1147.42,197.72c0-38.11-25.95-68.88-63.83-68.88h-48.22v137.76h48.22c37.88,0,63.83-30.77,63.83-68.88Z"/>
    <path class="cls-2" d="M1237.65,161.67v11.02c-19.75,0-38.34,12.17-38.34,41.56v63.83h-11.48v-114.8h11.48v22.5c7.81-18.14,22.73-24.11,38.34-24.11Z"/>
    <path class="cls-2" d="M1366.68,163.28v114.8h-11.71v-25.95c-9.64,17.22-27.32,28.47-49.37,28.47-32.6,0-59.47-25.95-59.47-59.93s26.86-59.93,59.47-59.93c22.04,0,39.72,11.25,49.37,28.47v-25.95h11.71ZM1354.97,220.68c0-27.32-21.12-48.91-48.45-48.91s-48.68,21.58-48.68,48.91,21.35,48.91,48.68,48.91,48.45-21.58,48.45-48.91Z"/>
    <path class="cls-2" d="M1398.59,126.32c0-4.82,4.13-8.95,9.18-8.95s9.18,4.13,9.18,8.95-4.13,9.18-9.18,9.18-9.18-4.13-9.18-9.18ZM1402.04,163.28h11.48v114.8h-11.48v-114.8Z"/>
    <path class="cls-2" d="M1546,206.68v71.41h-11.71v-71.41c0-21.12-12.17-34.9-33.75-34.9s-40.18,14.69-40.18,45.69v60.62h-11.48v-114.8h11.48v21.81c8.72-16.99,23.42-24.34,41.1-24.34,27.32,0,44.54,18.14,44.54,45.92Z"/>
  </g>
</svg>