<?xml version="1.0" encoding="UTF-8"?>
<svg id="Design" xmlns="http://www.w3.org/2000/svg" viewBox="0 0 1280 1024">
  <defs>
    <style>
      .cls-1 {
        fill: #fff;
      }

      .cls-2 {
        fill: #f77f00;
      }
    </style>
  </defs>
  <g>
    <g>
      <path class="cls-2" d="M198.64,480.38v51.14c0,29.15-16.77,56.76-47.21,77.77l-16.97,11.74-5.03,3.47H51.24c-2.66,0-5.06-1.03-6.81-2.71-1.73-1.66-2.81-3.95-2.81-6.49,0-4.54,3.42-8.28,7.91-9.05.56-.1,1.15-.15,1.71-.15h85.17c2.34,0,4.45-.91,5.98-2.35,1.54-1.49,2.49-3.51,2.49-5.74,0-4.47-3.79-8.08-8.47-8.08h-31.59c-2.78,0-5.27-1.07-7.08-2.79-1.81-1.73-2.95-4.13-2.95-6.76,0-5.27,4.49-9.55,10.03-9.55h26.2c2.34,0,4.45-.9,5.98-2.39,1.54-1.44,2.49-3.47,2.49-5.69,0-4.49-3.79-8.1-8.47-8.1h-66.67c-3.73,0-7.08-1.42-9.52-3.76-2.47-2.32-3.96-5.56-3.96-9.1,0-7.13,6.03-12.89,13.48-12.89h28.91c3.18,0,6.08-1.24,8.16-3.2,2.08-2.02,3.39-4.76,3.39-7.83,0-6.08-5.2-11.03-11.55-11.03H13.87c-3.83,0-7.3-1.47-9.81-3.88-2.52-2.37-4.07-5.69-4.07-9.33,0-7.33,6.2-13.25,13.87-13.25h184.77Z"/>
      <polygon class="cls-1" points="160.09 631.4 121.43 658.1 82.8 631.4 160.09 631.4"/>
      <path class="cls-1" d="M78.41,599.17h-27.17c-1.02,0-1.98.08-2.93.25-.46.08-.91.17-1.36.29-16.7-20.48-25.83-44.07-25.83-68.2v-17.73h23.12v17.73c0,1.91.07,3.83.22,5.74v.05c.05.63.1,1.25.17,1.88.07.64.14,1.29.22,1.93.17,1.27.36,2.56.59,3.83.22,1.27.49,2.54.78,3.81.27,1.24.59,2.47.95,3.69,0,.03.02.05.02.08,4.83,16.9,15.47,32.83,31.22,46.63Z"/>
      <path class="cls-1" d="M221.75,447.62v83.9c0,33.03-17.13,65.11-47.38,89.5-1.46,1.17-2.95,2.34-4.47,3.47h-40.47l5.03-3.47,16.97-11.74c30.44-21,47.21-48.61,47.21-77.77v-60.76H44.24v2.68h-23.12v-25.81h200.62Z"/>
      <path class="cls-1" d="M44.48,537.26c.05.64.1,1.29.15,1.93-.07-.63-.12-1.25-.17-1.88,0-.02.02-.03.02-.05Z"/>
      <path class="cls-1" d="M47.21,552.52s-.03-.05-.03-.07c-.36-1.22-.68-2.46-.95-3.69.29,1.25.63,2.51.98,3.76Z"/>
    </g>
    <path class="cls-2" d="M117.32,365.9c-41.7,0-77.02,29.38-88.21,69.52h23.5c10.17-27.57,35.34-47.14,64.71-47.14s54.54,19.57,64.71,47.14h23.5c-11.19-40.14-46.51-69.52-88.21-69.52Z"/>
  </g>
  <g>
    <path class="cls-1" d="M299.86,500.59c0-39.16,29.09-69.2,69.2-69.2,24.14,0,45.43,11.98,57.03,30.8l-26.23,15.21c-5.89-10.27-17.3-16.35-30.8-16.35-23.57,0-38.78,15.78-38.78,39.54s15.21,39.54,38.78,39.54c13.5,0,25.09-6.08,30.8-16.35l26.23,15.21c-11.41,18.82-32.7,30.8-57.03,30.8-40.11,0-69.2-30.04-69.2-69.2Z"/>
    <path class="cls-1" d="M531.59,472.08l-32.51,92.2c-10.65,30.23-27.56,42.2-54.18,40.87v-26.61c13.31,0,19.58-4.18,23.76-15.78l-37.83-90.68h31.37l21.1,58.17,17.87-58.17h30.42Z"/>
    <path class="cls-1" d="M644.32,519.6c0,28.32-20.53,50.19-45.43,50.19-12.74,0-22.05-4.37-28.33-11.6v8.93h-28.52v-133.07h28.52v46.95c6.27-7.22,15.59-11.6,28.33-11.6,24.9,0,45.43,21.86,45.43,50.19ZM615.81,519.6c0-14.26-9.5-23.19-22.62-23.19s-22.62,8.93-22.62,23.19,9.5,23.19,22.62,23.19,22.62-8.93,22.62-23.19Z"/>
    <path class="cls-1" d="M708.76,544.32c7.79,0,14.45-3.04,18.25-7.22l22.81,13.12c-9.31,12.93-23.38,19.58-41.44,19.58-32.51,0-52.66-21.86-52.66-50.19s20.53-50.19,50.57-50.19c27.75,0,48.29,21.48,48.29,50.19,0,3.99-.38,7.79-1.14,11.41h-67.49c3.61,9.89,12.36,13.31,22.81,13.31ZM726.25,509.72c-3.04-11.03-11.6-15.02-20.15-15.02-10.84,0-18.06,5.32-20.72,15.02h40.87Z"/>
    <path class="cls-1" d="M827.76,470.18v32.32c-11.79-1.9-28.52,2.85-28.52,21.67v42.96h-28.52v-95.05h28.52v16.92c3.8-12.74,16.54-18.82,28.52-18.82Z"/>
    <path class="cls-2" d="M959.88,500.59c0,36.69-26.04,66.54-62.73,66.54h-50v-133.07h50c36.69,0,62.73,29.84,62.73,66.53ZM950,500.59c0-31.56-21.48-57.03-52.85-57.03h-39.92v114.06h39.92c31.37,0,52.85-25.47,52.85-57.03Z"/>
    <path class="cls-2" d="M1024.7,470.75v9.12c-16.35,0-31.75,10.08-31.75,34.41v52.85h-9.5v-95.05h9.5v18.63c6.46-15.02,18.82-19.96,31.75-19.96Z"/>
    <path class="cls-2" d="M1131.54,472.08v95.05h-9.7v-21.48c-7.98,14.26-22.62,23.57-40.87,23.57-26.99,0-49.23-21.48-49.23-49.62s22.24-49.62,49.23-49.62c18.25,0,32.89,9.31,40.87,23.57v-21.48h9.7ZM1121.84,519.6c0-22.62-17.49-40.49-40.11-40.49s-40.3,17.87-40.3,40.49,17.68,40.49,40.3,40.49,40.11-17.87,40.11-40.49Z"/>
    <path class="cls-2" d="M1157.96,441.47c0-3.99,3.42-7.41,7.6-7.41s7.6,3.42,7.6,7.41-3.42,7.6-7.6,7.6-7.6-3.42-7.6-7.6ZM1160.81,472.08h9.5v95.05h-9.5v-95.05Z"/>
    <path class="cls-2" d="M1280,508.01v59.12h-9.7v-59.12c0-17.49-10.08-28.9-27.95-28.9s-33.27,12.17-33.27,37.83v50.19h-9.5v-95.05h9.5v18.06c7.22-14.07,19.39-20.15,34.03-20.15,22.62,0,36.88,15.02,36.88,38.02Z"/>
  </g>
</svg>