<?xml version="1.0" encoding="UTF-8"?>
<svg id="Design" xmlns="http://www.w3.org/2000/svg" viewBox="0 0 125 125">
  <defs>
    <style>
      .cls-1 {
        fill: #fff;
      }

      .cls-2 {
        fill: #f77f00;
      }
    </style>
  </defs>
  <g>
    <g>
      <path class="cls-2" d="M19.4,59.41v4.99c0,2.85-1.64,5.54-4.61,7.59l-1.66,1.15-.49.34h-7.64c-.26,0-.49-.1-.66-.26-.17-.16-.27-.39-.27-.63,0-.44.33-.81.77-.88.05,0,.11-.01.17-.01h8.32c.23,0,.44-.09.58-.23.15-.15.24-.34.24-.56,0-.44-.37-.79-.83-.79h-3.09c-.27,0-.51-.1-.69-.27-.18-.17-.29-.4-.29-.66,0-.51.44-.93.98-.93h2.56c.23,0,.44-.09.58-.23.15-.14.24-.34.24-.56,0-.44-.37-.79-.83-.79h-6.51c-.36,0-.69-.14-.93-.37-.24-.23-.39-.54-.39-.89,0-.7.59-1.26,1.32-1.26h2.82c.31,0,.59-.12.8-.31.2-.2.33-.46.33-.76,0-.59-.51-1.08-1.13-1.08H1.35c-.37,0-.71-.14-.96-.38-.25-.23-.4-.56-.4-.91,0-.72.61-1.29,1.35-1.29h18.04Z"/>
      <polygon class="cls-1" points="15.63 74.16 11.86 76.77 8.09 74.16 15.63 74.16"/>
      <path class="cls-1" d="M7.66,71.01h-2.65c-.1,0-.19,0-.29.02-.04,0-.09.02-.13.03-1.63-2-2.52-4.3-2.52-6.66v-1.73h2.26v1.73c0,.19,0,.37.02.56h0c0,.07,0,.13.02.19,0,.06.01.13.02.19.02.12.03.25.06.37.02.12.05.25.08.37.03.12.06.24.09.36,0,0,0,0,0,0,.47,1.65,1.51,3.21,3.05,4.55Z"/>
      <path class="cls-1" d="M21.65,56.21v8.19c0,3.23-1.67,6.36-4.63,8.74-.14.11-.29.23-.44.34h-3.95l.49-.34,1.66-1.15c2.97-2.05,4.61-4.75,4.61-7.59v-5.93H4.32v.26h-2.26v-2.52h19.59Z"/>
      <path class="cls-1" d="M4.34,64.97c0,.06,0,.13.01.19,0-.06-.01-.12-.02-.18,0,0,0,0,0,0Z"/>
      <path class="cls-1" d="M4.61,66.46s0,0,0,0c-.03-.12-.07-.24-.09-.36.03.12.06.24.1.37Z"/>
    </g>
    <path class="cls-2" d="M11.46,48.23c-4.07,0-7.52,2.87-8.61,6.79h2.29c.99-2.69,3.45-4.6,6.32-4.6s5.33,1.91,6.32,4.6h2.29c-1.09-3.92-4.54-6.79-8.61-6.79Z"/>
  </g>
  <g>
    <path class="cls-1" d="M29.28,61.39c0-3.82,2.84-6.76,6.76-6.76,2.36,0,4.44,1.17,5.57,3.01l-2.56,1.49c-.58-1-1.69-1.6-3.01-1.6-2.3,0-3.79,1.54-3.79,3.86s1.49,3.86,3.79,3.86c1.32,0,2.45-.59,3.01-1.6l2.56,1.49c-1.11,1.84-3.19,3.01-5.57,3.01-3.92,0-6.76-2.93-6.76-6.76Z"/>
    <path class="cls-1" d="M51.91,58.6l-3.17,9c-1.04,2.95-2.69,4.12-5.29,3.99v-2.6c1.3,0,1.91-.41,2.32-1.54l-3.69-8.86h3.06l2.06,5.68,1.75-5.68h2.97Z"/>
    <path class="cls-1" d="M62.92,63.24c0,2.77-2,4.9-4.44,4.9-1.24,0-2.15-.43-2.77-1.13v.87h-2.78v-13h2.78v4.59c.61-.71,1.52-1.13,2.77-1.13,2.43,0,4.44,2.13,4.44,4.9ZM60.14,63.24c0-1.39-.93-2.26-2.21-2.26s-2.21.87-2.21,2.26.93,2.26,2.21,2.26,2.21-.87,2.21-2.26Z"/>
    <path class="cls-1" d="M69.22,65.66c.76,0,1.41-.3,1.78-.71l2.23,1.28c-.91,1.26-2.28,1.91-4.05,1.91-3.17,0-5.14-2.13-5.14-4.9s2-4.9,4.94-4.9c2.71,0,4.72,2.1,4.72,4.9,0,.39-.04.76-.11,1.11h-6.59c.35.97,1.21,1.3,2.23,1.3ZM70.92,62.28c-.3-1.08-1.13-1.47-1.97-1.47-1.06,0-1.76.52-2.02,1.47h3.99Z"/>
    <path class="cls-1" d="M80.84,58.42v3.16c-1.15-.19-2.78.28-2.78,2.12v4.2h-2.78v-9.28h2.78v1.65c.37-1.24,1.62-1.84,2.78-1.84Z"/>
    <path class="cls-2" d="M93.74,61.39c0,3.58-2.54,6.5-6.13,6.5h-4.88v-13h4.88c3.58,0,6.13,2.91,6.13,6.5ZM92.77,61.39c0-3.08-2.1-5.57-5.16-5.57h-3.9v11.14h3.9c3.06,0,5.16-2.49,5.16-5.57Z"/>
    <path class="cls-2" d="M100.07,58.47v.89c-1.6,0-3.1.98-3.1,3.36v5.16h-.93v-9.28h.93v1.82c.63-1.47,1.84-1.95,3.1-1.95Z"/>
    <path class="cls-2" d="M110.5,58.6v9.28h-.95v-2.1c-.78,1.39-2.21,2.3-3.99,2.3-2.64,0-4.81-2.1-4.81-4.85s2.17-4.85,4.81-4.85c1.78,0,3.21.91,3.99,2.3v-2.1h.95ZM109.55,63.24c0-2.21-1.71-3.95-3.92-3.95s-3.94,1.75-3.94,3.95,1.73,3.95,3.94,3.95,3.92-1.75,3.92-3.95Z"/>
    <path class="cls-2" d="M113.08,55.61c0-.39.33-.72.74-.72s.74.33.74.72-.33.74-.74.74-.74-.33-.74-.74ZM113.36,58.6h.93v9.28h-.93v-9.28Z"/>
    <path class="cls-2" d="M125,62.11v5.77h-.95v-5.77c0-1.71-.98-2.82-2.73-2.82s-3.25,1.19-3.25,3.69v4.9h-.93v-9.28h.93v1.76c.71-1.37,1.89-1.97,3.32-1.97,2.21,0,3.6,1.47,3.6,3.71Z"/>
  </g>
</svg>