<?xml version="1.0" encoding="UTF-8"?>
<svg id="Shield-Light" xmlns="http://www.w3.org/2000/svg" viewBox="0 0 200 280">
  <defs>
    <style>
      .cls-1 {
        fill: #1f2937;
      }

      .cls-2 {
        fill: #f77f00;
      }
    </style>
  </defs>
  <g transform="translate(8, -360) scale(1.0)">
    <g>
      <path class="cls-2" d="M155.19,475.29v39.95c0,22.77-13.1,44.35-36.88,60.75l-13.26,9.17-3.93,2.71h-61.09c-2.08,0-3.96-.81-5.32-2.12-1.35-1.3-2.2-3.08-2.2-5.07,0-3.55,2.67-6.47,6.18-7.07.44-.08.9-.12,1.34-.12h66.54c1.83,0,3.48-.71,4.67-1.84,1.2-1.16,1.95-2.74,1.95-4.49,0-3.49-2.96-6.31-6.62-6.31h-24.68c-2.17,0-4.12-.83-5.53-2.18-1.42-1.35-2.3-3.23-2.3-5.28,0-4.12,3.51-7.46,7.83-7.46h20.47c1.83,0,3.48-.7,4.67-1.87,1.2-1.12,1.95-2.71,1.95-4.45,0-3.51-2.96-6.33-6.62-6.33h-52.09c-2.91,0-5.53-1.11-7.44-2.94-1.93-1.81-3.1-4.34-3.1-7.11,0-5.57,4.71-10.07,10.53-10.07h22.59c2.49,0,4.75-.97,6.38-2.5,1.63-1.57,2.65-3.72,2.65-6.11,0-4.75-4.06-8.61-9.03-8.61H10.84c-2.99,0-5.7-1.15-7.66-3.03-1.97-1.85-3.18-4.45-3.18-7.29,0-5.73,4.84-10.35,10.84-10.35h144.35Z"/>
      <polygon class="cls-1" points="125.07 593.28 94.87 614.14 64.68 593.28 125.07 593.28"/>
      <path class="cls-1" d="M61.26,568.1h-21.23c-.79,0-1.55.07-2.29.2-.36.07-.71.13-1.06.22-13.05-16-20.18-34.43-20.18-53.28v-13.86h18.06v13.86c0,1.5.05,2.99.17,4.49v.04c.04.49.08.98.13,1.47.05.5.11,1.01.17,1.51.13.99.28,2,.46,2.99.17.99.38,1.99.61,2.98.21.97.46,1.93.74,2.88,0,.03.01.04.01.07,3.77,13.21,12.08,25.65,24.39,36.43Z"/>
      <path class="cls-1" d="M173.24,449.7v65.54c0,25.81-13.38,50.87-37.01,69.93-1.14.91-2.3,1.83-3.49,2.71h-31.61l3.93-2.71,13.26-9.17c23.78-16.41,36.88-37.98,36.88-60.75v-47.47H34.57v2.09h-18.06v-20.17h156.74Z"/>
      <path class="cls-1" d="M34.75,519.73c.04.5.08,1.01.12,1.51-.05-.49-.09-.98-.13-1.47,0-.01.01-.03.01-.04Z"/>
      <path class="cls-1" d="M36.88,531.66s-.03-.04-.03-.05c-.28-.95-.53-1.92-.74-2.88.22.98.49,1.96.77,2.94Z"/>
    </g>
    <path class="cls-2" d="M91.66,385.86c-32.58,0-60.17,22.95-68.91,54.31h18.36c7.95-21.54,27.61-36.83,50.56-36.83s42.61,15.29,50.56,36.83h18.36c-8.74-31.36-36.33-54.31-68.91-54.31Z"/>
  </g>
</svg>
