<?xml version="1.0" encoding="UTF-8"?>
<svg id="Design" xmlns="http://www.w3.org/2000/svg" viewBox="0 0 1200 682">
  <defs>
    <style>
      .cls-1 {
        fill: #003049;
      }

      .cls-2 {
        fill: #f77f00;
      }
    </style>
  </defs>
  <g>
    <g>
      <path class="cls-2" d="M186.23,311.35v47.94c0,27.33-15.72,53.21-44.26,72.91l-15.91,11-4.72,3.26H48.04c-2.49,0-4.75-.97-6.38-2.54-1.62-1.56-2.64-3.7-2.64-6.08,0-4.26,3.21-7.77,7.42-8.48.52-.1,1.08-.14,1.6-.14h79.84c2.19,0,4.18-.86,5.61-2.21,1.45-1.4,2.33-3.29,2.33-5.38,0-4.19-3.56-7.57-7.94-7.57h-29.62c-2.6,0-4.94-1-6.64-2.62-1.7-1.62-2.76-3.87-2.76-6.34,0-4.94,4.21-8.96,9.4-8.96h24.57c2.19,0,4.18-.84,5.61-2.24,1.45-1.35,2.33-3.26,2.33-5.34,0-4.21-3.56-7.59-7.94-7.59h-62.5c-3.49,0-6.64-1.33-8.92-3.53-2.32-2.18-3.72-5.21-3.72-8.53,0-6.69,5.65-12.08,12.64-12.08h27.11c2.99,0,5.7-1.16,7.65-3,1.95-1.89,3.18-4.46,3.18-7.34,0-5.7-4.88-10.34-10.83-10.34H13.01c-3.59,0-6.84-1.38-9.19-3.64-2.37-2.22-3.81-5.34-3.81-8.75,0-6.88,5.81-12.42,13.01-12.42h173.22Z"/>
      <polygon class="cls-1" points="150.08 452.94 113.84 477.97 77.62 452.94 150.08 452.94"/>
      <path class="cls-1" d="M73.51,422.72h-25.47c-.95,0-1.86.08-2.75.24-.43.08-.86.16-1.27.27-15.66-19.2-24.22-41.32-24.22-63.93v-16.63h21.68v16.63c0,1.79.06,3.59.21,5.38v.05c.05.59.1,1.18.16,1.76.06.6.13,1.21.21,1.81.16,1.19.33,2.4.56,3.59.21,1.19.46,2.38.73,3.57.25,1.16.56,2.32.89,3.46,0,.03.02.05.02.08,4.53,15.85,14.5,30.78,29.27,43.72Z"/>
      <path class="cls-1" d="M207.89,280.64v78.65c0,30.97-16.05,61.04-44.42,83.91-1.37,1.1-2.76,2.19-4.19,3.26h-37.94l4.72-3.26,15.91-11c28.54-19.69,44.26-45.58,44.26-72.91v-56.96H41.48v2.51h-21.68v-24.2h188.08Z"/>
      <path class="cls-1" d="M41.7,364.68c.05.6.1,1.21.14,1.81-.06-.59-.11-1.18-.16-1.76,0-.02.02-.03.02-.05Z"/>
      <path class="cls-1" d="M44.26,378.99s-.03-.05-.03-.06c-.33-1.14-.64-2.3-.89-3.46.27,1.18.59,2.35.92,3.53Z"/>
    </g>
    <path class="cls-2" d="M109.99,204.03c-39.1,0-72.21,27.54-82.7,65.17h22.03c9.54-25.84,33.13-44.19,60.67-44.19s51.13,18.35,60.67,44.19h22.03c-10.49-37.63-43.6-65.17-82.7-65.17Z"/>
  </g>
  <g>
    <path class="cls-1" d="M281.12,330.31c0-36.71,27.27-64.87,64.87-64.87,22.63,0,42.59,11.23,53.47,28.87l-24.59,14.26c-5.52-9.62-16.22-15.33-28.87-15.33-22.1,0-36.36,14.79-36.36,37.07s14.26,37.07,36.36,37.07c12.65,0,23.53-5.7,28.87-15.33l24.59,14.26c-10.69,17.64-30.65,28.87-53.47,28.87-37.6,0-64.87-28.16-64.87-64.87Z"/>
    <path class="cls-1" d="M498.37,303.57l-30.48,86.44c-9.98,28.34-25.84,39.57-50.79,38.32v-24.95c12.48,0,18.36-3.92,22.28-14.79l-35.47-85.01h29.41l19.78,54.54,16.75-54.54h28.52Z"/>
    <path class="cls-1" d="M604.05,348.13c0,26.55-19.25,47.05-42.59,47.05-11.94,0-20.67-4.1-26.55-10.87v8.38h-26.73v-124.75h26.73v44.02c5.88-6.77,14.61-10.87,26.55-10.87,23.35,0,42.59,20.5,42.59,47.05ZM577.32,348.13c0-13.37-8.91-21.74-21.21-21.74s-21.21,8.38-21.21,21.74,8.91,21.74,21.21,21.74,21.21-8.38,21.21-21.74Z"/>
    <path class="cls-1" d="M664.47,371.3c7.31,0,13.54-2.85,17.11-6.77l21.39,12.3c-8.73,12.12-21.92,18.36-38.85,18.36-30.48,0-49.37-20.5-49.37-47.05s19.25-47.05,47.41-47.05c26.02,0,45.27,20.14,45.27,47.05,0,3.74-.36,7.31-1.07,10.69h-63.27c3.39,9.27,11.58,12.47,21.39,12.47ZM680.86,338.86c-2.85-10.34-10.87-14.08-18.89-14.08-10.16,0-16.93,4.99-19.43,14.08h38.32Z"/>
    <path class="cls-1" d="M776.03,301.79v30.3c-11.05-1.78-26.73,2.67-26.73,20.32v40.28h-26.73v-89.11h26.73v15.86c3.56-11.94,15.5-17.64,26.73-17.64Z"/>
    <path class="cls-2" d="M899.89,330.31c0,34.4-24.42,62.38-58.81,62.38h-46.87v-124.75h46.87c34.4,0,58.81,27.98,58.81,62.38ZM890.62,330.31c0-29.58-20.14-53.46-49.54-53.46h-37.43v106.93h37.43c29.41,0,49.54-23.88,49.54-53.47Z"/>
    <path class="cls-2" d="M960.66,302.33v8.55c-15.33,0-29.76,9.45-29.76,32.26v49.54h-8.91v-89.11h8.91v17.46c6.06-14.08,17.64-18.71,29.76-18.71Z"/>
    <path class="cls-2" d="M1060.82,303.57v89.11h-9.09v-20.14c-7.49,13.37-21.21,22.1-38.32,22.1-25.31,0-46.16-20.14-46.16-46.51s20.85-46.52,46.16-46.52c17.11,0,30.83,8.73,38.32,22.1v-20.14h9.09ZM1051.73,348.13c0-21.21-16.4-37.96-37.61-37.96s-37.78,16.75-37.78,37.96,16.57,37.96,37.78,37.96,37.61-16.75,37.61-37.96Z"/>
    <path class="cls-2" d="M1085.58,274.88c0-3.74,3.21-6.95,7.13-6.95s7.13,3.21,7.13,6.95-3.21,7.13-7.13,7.13-7.13-3.21-7.13-7.13ZM1088.26,303.57h8.91v89.11h-8.91v-89.11Z"/>
    <path class="cls-2" d="M1200,337.26v55.43h-9.09v-55.43c0-16.4-9.45-27.09-26.2-27.09s-31.19,11.41-31.19,35.47v47.05h-8.91v-89.11h8.91v16.93c6.77-13.19,18.18-18.89,31.9-18.89,21.21,0,34.57,14.08,34.57,35.64Z"/>
  </g>
</svg>