<?xml version="1.0" encoding="UTF-8"?>
<svg id="Design" xmlns="http://www.w3.org/2000/svg" viewBox="0 0 64 64">
  <defs>
    <style>
      .cls-1 {
        fill: #003049;
      }

      .cls-2 {
        fill: #f77f00;
      }
    </style>
  </defs>
  <g>
    <g>
      <path class="cls-2" d="M9.93,30.42v2.56c0,1.46-.84,2.84-2.36,3.89l-.85.59-.25.17h-3.91c-.13,0-.25-.05-.34-.14-.09-.08-.14-.2-.14-.32,0-.23.17-.41.4-.45.03,0,.06,0,.09,0h4.26c.12,0,.22-.05.3-.12.08-.07.12-.18.12-.29,0-.22-.19-.4-.42-.4h-1.58c-.14,0-.26-.05-.35-.14-.09-.09-.15-.21-.15-.34,0-.26.22-.48.5-.48h1.31c.12,0,.22-.04.3-.12.08-.07.12-.17.12-.28,0-.22-.19-.4-.42-.4h-3.33c-.19,0-.35-.07-.48-.19-.12-.12-.2-.28-.2-.45,0-.36.3-.64.67-.64h1.45c.16,0,.3-.06.41-.16.1-.1.17-.24.17-.39,0-.3-.26-.55-.58-.55H.69c-.19,0-.37-.07-.49-.19-.13-.12-.2-.28-.2-.47,0-.37.31-.66.69-.66h9.24Z"/>
      <polygon class="cls-1" points="8 37.97 6.07 39.3 4.14 37.97 8 37.97"/>
      <path class="cls-1" d="M3.92,36.36h-1.36c-.05,0-.1,0-.15.01-.02,0-.05,0-.07.01-.84-1.02-1.29-2.2-1.29-3.41v-.89h1.16v.89c0,.1,0,.19.01.29h0s0,.07,0,.1c0,.03,0,.06.01.1,0,.06.02.13.03.19.01.06.02.13.04.19.01.06.03.12.05.18,0,0,0,0,0,0,.24.85.77,1.64,1.56,2.33Z"/>
      <path class="cls-1" d="M11.09,28.78v4.19c0,1.65-.86,3.26-2.37,4.48-.07.06-.15.12-.22.17h-2.02l.25-.17.85-.59c1.52-1.05,2.36-2.43,2.36-3.89v-3.04H2.21v.13h-1.16v-1.29h10.03Z"/>
      <path class="cls-1" d="M2.22,33.26s0,.06,0,.1c0-.03,0-.06,0-.09,0,0,0,0,0,0Z"/>
      <path class="cls-1" d="M2.36,34.03s0,0,0,0c-.02-.06-.03-.12-.05-.18.01.06.03.13.05.19Z"/>
    </g>
    <path class="cls-2" d="M5.87,24.7c-2.09,0-3.85,1.47-4.41,3.48h1.17c.51-1.38,1.77-2.36,3.24-2.36s2.73.98,3.24,2.36h1.17c-.56-2.01-2.33-3.48-4.41-3.48Z"/>
  </g>
  <g>
    <path class="cls-1" d="M14.99,31.43c0-1.96,1.45-3.46,3.46-3.46,1.21,0,2.27.6,2.85,1.54l-1.31.76c-.29-.51-.86-.82-1.54-.82-1.18,0-1.94.79-1.94,1.98s.76,1.98,1.94,1.98c.67,0,1.25-.3,1.54-.82l1.31.76c-.57.94-1.63,1.54-2.85,1.54-2.01,0-3.46-1.5-3.46-3.46Z"/>
    <path class="cls-1" d="M26.58,30l-1.63,4.61c-.53,1.51-1.38,2.11-2.71,2.04v-1.33c.67,0,.98-.21,1.19-.79l-1.89-4.53h1.57l1.06,2.91.89-2.91h1.52Z"/>
    <path class="cls-1" d="M32.22,32.38c0,1.42-1.03,2.51-2.27,2.51-.64,0-1.1-.22-1.42-.58v.45h-1.43v-6.65h1.43v2.35c.31-.36.78-.58,1.42-.58,1.25,0,2.27,1.09,2.27,2.51ZM30.79,32.38c0-.71-.48-1.16-1.13-1.16s-1.13.45-1.13,1.16.48,1.16,1.13,1.16,1.13-.45,1.13-1.16Z"/>
    <path class="cls-1" d="M35.44,33.62c.39,0,.72-.15.91-.36l1.14.66c-.47.65-1.17.98-2.07.98-1.63,0-2.63-1.09-2.63-2.51s1.03-2.51,2.53-2.51c1.39,0,2.41,1.07,2.41,2.51,0,.2-.02.39-.06.57h-3.37c.18.49.62.67,1.14.67ZM36.31,31.89c-.15-.55-.58-.75-1.01-.75-.54,0-.9.27-1.04.75h2.04Z"/>
    <path class="cls-1" d="M41.39,29.91v1.62c-.59-.1-1.43.14-1.43,1.08v2.15h-1.43v-4.75h1.43v.85c.19-.64.83-.94,1.43-.94Z"/>
    <path class="cls-2" d="M47.99,31.43c0,1.83-1.3,3.33-3.14,3.33h-2.5v-6.65h2.5c1.83,0,3.14,1.49,3.14,3.33ZM47.5,31.43c0-1.58-1.07-2.85-2.64-2.85h-2v5.7h2c1.57,0,2.64-1.27,2.64-2.85Z"/>
    <path class="cls-2" d="M51.24,29.94v.46c-.82,0-1.59.5-1.59,1.72v2.64h-.48v-4.75h.48v.93c.32-.75.94-1,1.59-1Z"/>
    <path class="cls-2" d="M56.58,30v4.75h-.48v-1.07c-.4.71-1.13,1.18-2.04,1.18-1.35,0-2.46-1.07-2.46-2.48s1.11-2.48,2.46-2.48c.91,0,1.64.47,2.04,1.18v-1.07h.48ZM56.09,32.38c0-1.13-.87-2.02-2.01-2.02s-2.02.89-2.02,2.02.88,2.02,2.02,2.02,2.01-.89,2.01-2.02Z"/>
    <path class="cls-2" d="M57.9,28.47c0-.2.17-.37.38-.37s.38.17.38.37-.17.38-.38.38-.38-.17-.38-.38ZM58.04,30h.48v4.75h-.48v-4.75Z"/>
    <path class="cls-2" d="M64,31.8v2.96h-.48v-2.96c0-.87-.5-1.44-1.4-1.44s-1.66.61-1.66,1.89v2.51h-.48v-4.75h.48v.9c.36-.7.97-1.01,1.7-1.01,1.13,0,1.84.75,1.84,1.9Z"/>
  </g>
</svg>