<?xml version="1.0" encoding="UTF-8"?>
<svg id="Design" xmlns="http://www.w3.org/2000/svg" viewBox="0 0 3840 2160">
  <defs>
    <style>
      .cls-1 {
        fill: #003049;
      }

      .cls-2 {
        fill: #f77f00;
      }
    </style>
  </defs>
  <g>
    <g>
      <path class="cls-2" d="M595.92,985.13v153.41c0,87.45-50.31,170.29-141.62,233.3l-50.92,35.22-15.09,10.42h-234.57c-7.98,0-15.19-3.1-20.43-8.13-5.18-4.98-8.44-11.84-8.44-19.46,0-13.62,10.26-24.85,23.73-27.14,1.68-.3,3.46-.46,5.13-.46h255.5c7.01,0,13.36-2.74,17.94-7.06,4.62-4.47,7.47-10.52,7.47-17.23,0-13.42-11.38-24.24-25.41-24.24h-94.77c-8.33,0-15.8-3.2-21.24-8.38-5.44-5.18-8.84-12.4-8.84-20.28,0-15.8,13.47-28.66,30.08-28.66h78.61c7.01,0,13.36-2.69,17.94-7.16,4.62-4.32,7.47-10.42,7.47-17.07,0-13.47-11.38-24.29-25.41-24.29h-200.01c-11.18,0-21.24-4.27-28.56-11.28-7.42-6.96-11.89-16.67-11.89-27.29,0-21.39,18.09-38.67,40.45-38.67h86.74c9.55,0,18.24-3.71,24.49-9.6,6.25-6.05,10.16-14.28,10.16-23.48,0-18.24-15.6-33.08-34.66-33.08H41.62c-11.48,0-21.9-4.42-29.42-11.64-7.57-7.11-12.2-17.07-12.2-28,0-22,18.6-39.74,41.62-39.74h554.3Z"/>
      <polygon class="cls-1" points="480.26 1438.21 364.3 1518.3 248.39 1438.21 480.26 1438.21"/>
      <path class="cls-1" d="M235.23,1341.51h-81.51c-3.05,0-5.95.25-8.79.76-1.37.25-2.74.51-4.07.86-50.1-61.44-77.49-132.22-77.49-204.59v-53.2h69.36v53.2c0,5.74.2,11.48.66,17.23v.15c.15,1.88.3,3.76.51,5.64.2,1.93.41,3.86.66,5.79.51,3.81,1.07,7.67,1.78,11.48.66,3.81,1.47,7.62,2.34,11.43.81,3.71,1.78,7.42,2.85,11.08,0,.1.05.15.05.25,14.48,50.71,46.4,98.48,93.65,139.9Z"/>
      <path class="cls-1" d="M665.24,886.85v251.69c0,99.09-51.38,195.34-142.13,268.51-4.37,3.51-8.84,7.01-13.42,10.42h-121.4l15.09-10.42,50.92-35.22c91.32-63.01,141.62-145.84,141.62-233.3v-182.28H132.73v8.03H63.37v-77.44h601.87Z"/>
      <path class="cls-1" d="M133.44,1155.77c.15,1.93.3,3.86.46,5.79-.2-1.88-.36-3.76-.51-5.64,0-.05.05-.1.05-.15Z"/>
      <path class="cls-1" d="M141.62,1201.56c-.05-.05-.1-.15-.1-.2-1.07-3.66-2.03-7.37-2.85-11.08.86,3.76,1.88,7.52,2.95,11.28Z"/>
    </g>
    <path class="cls-2" d="M351.97,641.7c-125.11,0-231.07,88.13-264.63,208.55h70.49c30.52-82.7,106.01-141.41,194.14-141.41s163.63,58.71,194.14,141.41h70.49c-33.57-120.42-139.52-208.55-264.63-208.55Z"/>
  </g>
  <g>
    <path class="cls-1" d="M899.59,1045.78c0-117.48,87.26-207.59,207.59-207.59,72.43,0,136.3,35.93,171.09,92.39l-78.7,45.63c-17.68-30.8-51.9-49.04-92.39-49.04-70.72,0-116.34,47.33-116.34,118.62s45.63,118.62,116.34,118.62c40.49,0,75.28-18.25,92.39-49.04l78.7,45.63c-34.22,56.46-98.09,92.39-171.09,92.39-120.33,0-207.59-90.11-207.59-207.59Z"/>
    <path class="cls-1" d="M1594.78,960.23l-97.52,276.6c-31.94,90.68-82.69,126.61-162.54,122.61v-79.84c39.92,0,58.74-12.55,71.29-47.33l-113.49-272.04h94.1l63.3,174.51,53.61-174.51h91.25Z"/>
    <path class="cls-1" d="M1932.97,1102.81c0,84.97-61.59,150.56-136.3,150.56-38.21,0-66.16-13.12-84.98-34.79v26.8h-85.55v-399.21h85.55v140.86c18.82-21.67,46.76-34.79,84.98-34.79,74.71,0,136.3,65.58,136.3,150.56ZM1847.43,1102.81c0-42.78-28.51-69.58-67.87-69.58s-67.86,26.8-67.86,69.58,28.51,69.57,67.86,69.57,67.87-26.8,67.87-69.57Z"/>
    <path class="cls-1" d="M2126.29,1176.95c23.38,0,43.34-9.12,54.75-21.67l68.44,39.35c-27.94,38.78-70.15,58.74-124.33,58.74-97.52,0-157.97-65.58-157.97-150.56s61.59-150.56,151.7-150.56c83.26,0,144.86,64.44,144.86,150.56,0,11.97-1.14,23.38-3.42,34.22h-202.46c10.84,29.66,37.07,39.92,68.44,39.92ZM2178.76,1073.15c-9.12-33.08-34.79-45.05-60.45-45.05-32.51,0-54.18,15.97-62.16,45.05h122.61Z"/>
    <path class="cls-1" d="M2483.29,954.53v96.95c-35.36-5.71-85.55,8.55-85.55,65.01v128.89h-85.55v-285.15h85.55v50.76c11.41-38.21,49.62-56.46,85.55-56.46Z"/>
    <path class="cls-2" d="M2879.64,1045.78c0,110.07-78.13,199.61-188.2,199.61h-149.99v-399.21h149.99c110.07,0,188.2,89.53,188.2,199.6ZM2849.99,1045.78c0-94.67-64.44-171.09-158.54-171.09h-119.77v342.18h119.77c94.1,0,158.54-76.42,158.54-171.09Z"/>
    <path class="cls-2" d="M3074.1,956.24v27.37c-49.04,0-95.24,30.23-95.24,103.23v158.54h-28.51v-285.15h28.51v55.89c19.39-45.05,56.46-59.88,95.24-59.88Z"/>
    <path class="cls-2" d="M3394.61,960.23v285.15h-29.09v-64.44c-23.95,42.77-67.87,70.72-122.62,70.72-80.98,0-147.7-64.44-147.7-148.85s66.72-148.85,147.7-148.85c54.75,0,98.66,27.94,122.62,70.72v-64.44h29.09ZM3365.52,1102.81c0-67.87-52.47-121.48-120.34-121.48s-120.9,53.61-120.9,121.48,53.03,121.47,120.9,121.47,120.34-53.61,120.34-121.47Z"/>
    <path class="cls-2" d="M3473.87,868.42c0-11.98,10.27-22.24,22.81-22.24s22.81,10.26,22.81,22.24-10.27,22.81-22.81,22.81-22.81-10.27-22.81-22.81ZM3482.43,960.23h28.51v285.15h-28.51v-285.15Z"/>
    <path class="cls-2" d="M3840,1068.02v177.37h-29.09v-177.37c0-52.47-30.23-86.69-83.84-86.69s-99.8,36.5-99.8,113.49v150.56h-28.51v-285.15h28.51v54.18c21.67-42.21,58.17-60.45,102.08-60.45,67.87,0,110.64,45.05,110.64,114.06Z"/>
  </g>
</svg>