<?xml version="1.0" encoding="UTF-8"?>
<svg id="Design" xmlns="http://www.w3.org/2000/svg" viewBox="0 0 250 250">
  <defs>
    <style>
      .cls-1 {
        fill: #003049;
      }

      .cls-2 {
        fill: #f77f00;
      }
    </style>
  </defs>
  <g>
    <g>
      <path class="cls-2" d="M38.8,118.82v9.99c0,5.69-3.28,11.09-9.22,15.19l-3.31,2.29-.98.68h-15.27c-.52,0-.99-.2-1.33-.53-.34-.32-.55-.77-.55-1.27,0-.89.67-1.62,1.54-1.77.11-.02.22-.03.33-.03h16.63c.46,0,.87-.18,1.17-.46.3-.29.49-.68.49-1.12,0-.87-.74-1.58-1.65-1.58h-6.17c-.54,0-1.03-.21-1.38-.55-.35-.34-.58-.81-.58-1.32,0-1.03.88-1.87,1.96-1.87h5.12c.46,0,.87-.18,1.17-.47.3-.28.49-.68.49-1.11,0-.88-.74-1.58-1.65-1.58h-13.02c-.73,0-1.38-.28-1.86-.73-.48-.45-.77-1.09-.77-1.78,0-1.39,1.18-2.52,2.63-2.52h5.65c.62,0,1.19-.24,1.59-.63.41-.39.66-.93.66-1.53,0-1.19-1.02-2.15-2.26-2.15H2.71c-.75,0-1.43-.29-1.92-.76-.49-.46-.79-1.11-.79-1.82,0-1.43,1.21-2.59,2.71-2.59h36.09Z"/>
      <polygon class="cls-1" points="31.27 148.32 23.72 153.53 16.17 148.32 31.27 148.32"/>
      <path class="cls-1" d="M15.31,142.03h-5.31c-.2,0-.39.02-.57.05-.09.02-.18.03-.26.06-3.26-4-5.05-8.61-5.05-13.32v-3.46h4.52v3.46c0,.37.01.75.04,1.12h0c0,.13.02.25.03.38.01.13.03.25.04.38.03.25.07.5.12.75.04.25.1.5.15.74.05.24.12.48.19.72,0,0,0,0,0,.02.94,3.3,3.02,6.41,6.1,9.11Z"/>
      <path class="cls-1" d="M43.31,112.43v16.39c0,6.45-3.34,12.72-9.25,17.48-.28.23-.58.46-.87.68h-7.9l.98-.68,3.31-2.29c5.95-4.1,9.22-9.49,9.22-15.19v-11.87H8.64v.52h-4.52v-5.04h39.18Z"/>
      <path class="cls-1" d="M8.69,129.93c0,.13.02.25.03.38-.01-.12-.02-.24-.03-.37,0,0,0,0,0,0Z"/>
      <path class="cls-1" d="M9.22,132.91s0,0,0-.01c-.07-.24-.13-.48-.19-.72.06.24.12.49.19.73Z"/>
    </g>
    <path class="cls-2" d="M22.91,96.47c-8.15,0-15.04,5.74-17.23,13.58h4.59c1.99-5.38,6.9-9.21,12.64-9.21s10.65,3.82,12.64,9.21h4.59c-2.19-7.84-9.08-13.58-17.23-13.58Z"/>
  </g>
  <g>
    <path class="cls-1" d="M58.57,122.77c0-7.65,5.68-13.51,13.51-13.51,4.72,0,8.87,2.34,11.14,6.01l-5.12,2.97c-1.15-2.01-3.38-3.19-6.01-3.19-4.6,0-7.57,3.08-7.57,7.72s2.97,7.72,7.57,7.72c2.64,0,4.9-1.19,6.01-3.19l5.12,2.97c-2.23,3.68-6.39,6.01-11.14,6.01-7.83,0-13.51-5.87-13.51-13.52Z"/>
    <path class="cls-1" d="M103.83,117.2l-6.35,18.01c-2.08,5.9-5.38,8.24-10.58,7.98v-5.2c2.6,0,3.82-.82,4.64-3.08l-7.39-17.71h6.13l4.12,11.36,3.49-11.36h5.94Z"/>
    <path class="cls-1" d="M125.84,126.49c0,5.53-4.01,9.8-8.87,9.8-2.49,0-4.31-.85-5.53-2.26v1.74h-5.57v-25.99h5.57v9.17c1.23-1.41,3.04-2.26,5.53-2.26,4.86,0,8.87,4.27,8.87,9.8ZM120.28,126.49c0-2.78-1.86-4.53-4.42-4.53s-4.42,1.74-4.42,4.53,1.86,4.53,4.42,4.53,4.42-1.74,4.42-4.53Z"/>
    <path class="cls-1" d="M138.43,131.31c1.52,0,2.82-.59,3.56-1.41l4.46,2.56c-1.82,2.52-4.57,3.82-8.09,3.82-6.35,0-10.28-4.27-10.28-9.8s4.01-9.8,9.88-9.8c5.42,0,9.43,4.2,9.43,9.8,0,.78-.07,1.52-.22,2.23h-13.18c.71,1.93,2.41,2.6,4.46,2.6ZM141.85,124.55c-.59-2.15-2.26-2.93-3.94-2.93-2.12,0-3.53,1.04-4.05,2.93h7.98Z"/>
    <path class="cls-1" d="M161.67,116.83v6.31c-2.3-.37-5.57.56-5.57,4.23v8.39h-5.57v-18.56h5.57v3.3c.74-2.49,3.23-3.68,5.57-3.68Z"/>
    <path class="cls-2" d="M187.48,122.77c0,7.17-5.09,13-12.25,13h-9.77v-25.99h9.77c7.17,0,12.25,5.83,12.25,12.99ZM185.55,122.77c0-6.16-4.2-11.14-10.32-11.14h-7.8v22.28h7.8c6.13,0,10.32-4.98,10.32-11.14Z"/>
    <path class="cls-2" d="M200.14,116.94v1.78c-3.19,0-6.2,1.97-6.2,6.72v10.32h-1.86v-18.56h1.86v3.64c1.26-2.93,3.68-3.9,6.2-3.9Z"/>
    <path class="cls-2" d="M221,117.2v18.56h-1.89v-4.2c-1.56,2.78-4.42,4.6-7.98,4.6-5.27,0-9.62-4.2-9.62-9.69s4.34-9.69,9.62-9.69c3.56,0,6.42,1.82,7.98,4.6v-4.2h1.89ZM219.11,126.49c0-4.42-3.42-7.91-7.83-7.91s-7.87,3.49-7.87,7.91,3.45,7.91,7.87,7.91,7.83-3.49,7.83-7.91Z"/>
    <path class="cls-2" d="M226.16,111.22c0-.78.67-1.45,1.49-1.45s1.49.67,1.49,1.45-.67,1.49-1.49,1.49-1.49-.67-1.49-1.49ZM226.72,117.2h1.86v18.56h-1.86v-18.56Z"/>
    <path class="cls-2" d="M250,124.22v11.55h-1.89v-11.55c0-3.42-1.97-5.64-5.46-5.64s-6.5,2.38-6.5,7.39v9.8h-1.86v-18.56h1.86v3.53c1.41-2.75,3.79-3.94,6.65-3.94,4.42,0,7.2,2.93,7.2,7.43Z"/>
  </g>
</svg>