<?xml version="1.0" encoding="UTF-8"?>
<svg id="Design" xmlns="http://www.w3.org/2000/svg" viewBox="0 0 32 32">
  <defs>
    <style>
      .cls-1 {
        fill: #003049;
      }

      .cls-2 {
        fill: #f77f00;
      }
    </style>
  </defs>
  <g>
    <g>
      <path class="cls-2" d="M4.97,15.21v1.28c0,.73-.42,1.42-1.18,1.94l-.42.29-.13.09h-1.95c-.07,0-.13-.03-.17-.07-.04-.04-.07-.1-.07-.16,0-.11.09-.21.2-.23.01,0,.03,0,.04,0h2.13c.06,0,.11-.02.15-.06.04-.04.06-.09.06-.14,0-.11-.09-.2-.21-.2h-.79c-.07,0-.13-.03-.18-.07-.05-.04-.07-.1-.07-.17,0-.13.11-.24.25-.24h.66c.06,0,.11-.02.15-.06.04-.04.06-.09.06-.14,0-.11-.09-.2-.21-.2h-1.67c-.09,0-.18-.04-.24-.09-.06-.06-.1-.14-.1-.23,0-.18.15-.32.34-.32h.72c.08,0,.15-.03.2-.08.05-.05.08-.12.08-.2,0-.15-.13-.28-.29-.28H.35c-.1,0-.18-.04-.25-.1-.06-.06-.1-.14-.1-.23,0-.18.15-.33.35-.33h4.62Z"/>
      <polygon class="cls-1" points="4 18.99 3.04 19.65 2.07 18.99 4 18.99"/>
      <path class="cls-1" d="M1.96,18.18h-.68s-.05,0-.07,0c-.01,0-.02,0-.03,0-.42-.51-.65-1.1-.65-1.7v-.44h.58v.44s0,.1,0,.14h0s0,.03,0,.05c0,.02,0,.03,0,.05,0,.03,0,.06.01.1,0,.03.01.06.02.1,0,.03.01.06.02.09,0,0,0,0,0,0,.12.42.39.82.78,1.17Z"/>
      <path class="cls-1" d="M5.54,14.39v2.1c0,.83-.43,1.63-1.18,2.24-.04.03-.07.06-.11.09h-1.01l.13-.09.42-.29c.76-.53,1.18-1.22,1.18-1.94v-1.52H1.11v.07h-.58v-.65h5.02Z"/>
      <path class="cls-1" d="M1.11,16.63s0,.03,0,.05c0-.02,0-.03,0-.05,0,0,0,0,0,0Z"/>
      <path class="cls-1" d="M1.18,17.01s0,0,0,0c0-.03-.02-.06-.02-.09,0,.03.02.06.02.09Z"/>
    </g>
    <path class="cls-2" d="M2.93,12.35c-1.04,0-1.93.73-2.21,1.74h.59c.25-.69.88-1.18,1.62-1.18s1.36.49,1.62,1.18h.59c-.28-1-1.16-1.74-2.21-1.74Z"/>
  </g>
  <g>
    <path class="cls-1" d="M7.5,15.71c0-.98.73-1.73,1.73-1.73.6,0,1.14.3,1.43.77l-.66.38c-.15-.26-.43-.41-.77-.41-.59,0-.97.39-.97.99s.38.99.97.99c.34,0,.63-.15.77-.41l.66.38c-.29.47-.82.77-1.43.77-1,0-1.73-.75-1.73-1.73Z"/>
    <path class="cls-1" d="M13.29,15l-.81,2.3c-.27.76-.69,1.06-1.35,1.02v-.67c.33,0,.49-.1.59-.39l-.95-2.27h.78l.53,1.45.45-1.45h.76Z"/>
    <path class="cls-1" d="M16.11,16.19c0,.71-.51,1.25-1.14,1.25-.32,0-.55-.11-.71-.29v.22h-.71v-3.33h.71v1.17c.16-.18.39-.29.71-.29.62,0,1.14.55,1.14,1.25ZM15.4,16.19c0-.36-.24-.58-.57-.58s-.57.22-.57.58.24.58.57.58.57-.22.57-.58Z"/>
    <path class="cls-1" d="M17.72,16.81c.19,0,.36-.08.46-.18l.57.33c-.23.32-.58.49-1.04.49-.81,0-1.32-.55-1.32-1.25s.51-1.25,1.26-1.25c.69,0,1.21.54,1.21,1.25,0,.1,0,.19-.03.29h-1.69c.09.25.31.33.57.33ZM18.16,15.94c-.08-.28-.29-.38-.5-.38-.27,0-.45.13-.52.38h1.02Z"/>
    <path class="cls-1" d="M20.69,14.95v.81c-.29-.05-.71.07-.71.54v1.07h-.71v-2.38h.71v.42c.1-.32.41-.47.71-.47Z"/>
    <path class="cls-2" d="M24,15.71c0,.92-.65,1.66-1.57,1.66h-1.25v-3.33h1.25c.92,0,1.57.75,1.57,1.66ZM23.75,15.71c0-.79-.54-1.43-1.32-1.43h-1v2.85h1c.78,0,1.32-.64,1.32-1.43Z"/>
    <path class="cls-2" d="M25.62,14.97v.23c-.41,0-.79.25-.79.86v1.32h-.24v-2.38h.24v.47c.16-.38.47-.5.79-.5Z"/>
    <path class="cls-2" d="M28.29,15v2.38h-.24v-.54c-.2.36-.57.59-1.02.59-.67,0-1.23-.54-1.23-1.24s.56-1.24,1.23-1.24c.46,0,.82.23,1.02.59v-.54h.24ZM28.05,16.19c0-.57-.44-1.01-1-1.01s-1.01.45-1.01,1.01.44,1.01,1.01,1.01,1-.45,1-1.01Z"/>
    <path class="cls-2" d="M28.95,14.24c0-.1.09-.19.19-.19s.19.09.19.19-.09.19-.19.19-.19-.09-.19-.19ZM29.02,15h.24v2.38h-.24v-2.38Z"/>
    <path class="cls-2" d="M32,15.9v1.48h-.24v-1.48c0-.44-.25-.72-.7-.72s-.83.3-.83.95v1.25h-.24v-2.38h.24v.45c.18-.35.48-.5.85-.5.57,0,.92.38.92.95Z"/>
  </g>
</svg>