<?xml version="1.0" encoding="UTF-8"?>
<svg id="Design" xmlns="http://www.w3.org/2000/svg" viewBox="0 0 1546 423">
  <defs>
    <style>
      .cls-1 {
        fill: #003049;
      }

      .cls-2 {
        fill: #f47f20;
      }
    </style>
  </defs>
  <path class="cls-2" d="M993.06,162.66c-6.95,0-13.19-4.84-14.71-11.91-9.22-43.04-44.35-67.72-96.38-67.72-22.36,0-43.55,7.16-61.26,20.7-3.34,2.56-7.59,3.59-11.73,2.87-4.14-.72-7.79-3.14-10.07-6.67-28.19-43.72-76.03-69.82-127.96-69.82-72.89,0-134.16,48.4-149,117.7-1.74,8.13-9.75,13.31-17.88,11.57-8.13-1.74-13.31-9.75-11.57-17.88C510.35,58.19,583.73,0,670.95,0c57.06,0,110,26.3,144.42,71.06,20.1-11.91,42.84-18.14,66.6-18.14,65.52,0,113.74,35.07,125.83,91.53,1.74,8.13-3.44,16.14-11.57,17.88-1.06.23-2.12.34-3.17.34Z"/>
  <g>
    <g>
      <path class="cls-1" d="M530.46,358.82c-26.22,0-48.08-8.74-65.56-26.22-17.49-17.48-26.22-39.1-26.22-64.87s8.74-47.39,26.22-64.87,39.33-26.22,65.56-26.22c17.02,0,32.49,3.97,46.41,11.91,13.91,7.94,24.67,18.8,32.26,32.61l-49,28.29c-6.21-11.27-16.22-16.91-30.02-16.91-9.66,0-17.72,3.28-24.16,9.83-6.44,6.55-9.66,15.01-9.66,25.36s3.22,18.8,9.66,25.36c6.44,6.55,14.49,9.83,24.16,9.83,14.03,0,24.03-5.75,30.02-17.25l49,28.29c-7.59,13.8-18.35,24.73-32.26,32.78-13.92,8.05-29.39,12.07-46.41,12.07Z"/>
      <rect class="cls-1" x="627.42" y="181.46" width="57.28" height="172.53"/>
      <path class="cls-1" d="M818.51,176.63c23,0,42.21,8.74,57.62,26.22,15.64,17.49,23.46,39.11,23.46,64.87s-7.82,47.5-23.46,65.21c-15.65,17.25-34.85,25.88-57.62,25.88-20.93,0-37.27-6.9-49-20.7v84.88h-57.28v-241.54h57.28v15.87c11.73-13.8,28.06-20.7,49-20.7ZM779.52,294.99c6.67,6.9,15.41,10.35,26.22,10.35s19.55-3.45,26.22-10.35c6.67-7.13,10.01-16.22,10.01-27.26s-3.34-20.13-10.01-27.26c-6.67-6.9-15.41-10.35-26.22-10.35s-19.55,3.45-26.22,10.35c-6.67,7.13-10.01,16.22-10.01,27.26s3.33,20.13,10.01,27.26Z"/>
      <path class="cls-1" d="M1026.24,176.63c23,0,42.21,8.74,57.62,26.22,15.64,17.49,23.46,39.11,23.46,64.87s-7.82,47.5-23.46,65.21c-15.65,17.25-34.85,25.88-57.62,25.88-20.93,0-37.27-6.9-49-20.7v84.88h-57.28v-241.54h57.28v15.87c11.73-13.8,28.06-20.7,49-20.7ZM987.25,294.99c6.67,6.9,15.41,10.35,26.22,10.35s19.55-3.45,26.22-10.35c6.67-7.13,10.01-16.22,10.01-27.26s-3.34-20.13-10.01-27.26c-6.67-6.9-15.41-10.35-26.22-10.35s-19.55,3.45-26.22,10.35c-6.67,7.13-10.01,16.22-10.01,27.26s3.33,20.13,10.01,27.26Z"/>
    </g>
    <circle class="cls-2" cx="656.24" cy="134.19" r="32.95"/>
  </g>
</svg>