<?xml version="1.0" encoding="UTF-8"?>
<svg id="Design" xmlns="http://www.w3.org/2000/svg" viewBox="0 0 800 800">
  <defs>
    <style>
      .cls-1 {
        fill: #003049;
      }

      .cls-2 {
        fill: #f47f20;
      }
    </style>
  </defs>
  <path class="cls-2" d="M663.29,341.57c-8.31,0-15.78-5.79-17.6-14.25-11.03-51.5-53.06-81.03-115.32-81.03-26.75,0-52.1,8.56-73.3,24.76-3.99,3.06-9.08,4.3-14.04,3.44-4.96-.86-9.32-3.76-12.04-7.98-33.73-52.3-90.96-83.53-153.1-83.53-87.2,0-160.51,57.91-178.27,140.82-2.08,9.73-11.67,15.93-21.39,13.84-9.73-2.08-15.93-11.66-13.84-21.39,21.35-99.68,109.15-169.3,213.5-169.3,68.27,0,131.61,31.47,172.79,85.02,24.04-14.25,51.26-21.7,79.68-21.7,78.39,0,136.08,41.96,150.55,109.51,2.08,9.73-4.11,19.3-13.84,21.39-1.27.27-2.54.4-3.79.4Z"/>
  <g>
    <g>
      <path class="cls-1" d="M109.81,576.26c-31.37,0-57.52-10.45-78.44-31.37C10.45,523.97,0,498.1,0,467.27s10.45-56.69,31.37-77.61,47.06-31.37,78.44-31.37c20.36,0,38.87,4.75,55.53,14.24,16.65,9.49,29.52,22.5,38.6,39.01l-58.62,33.85c-7.43-13.48-19.4-20.23-35.92-20.23-11.56,0-21.2,3.92-28.9,11.77-7.71,7.84-11.56,17.96-11.56,30.34s3.85,22.5,11.56,30.34c7.7,7.84,17.34,11.77,28.9,11.77,16.78,0,28.75-6.88,35.92-20.64l58.62,33.85c-9.08,16.51-21.95,29.59-38.6,39.22-16.66,9.63-35.16,14.45-55.53,14.45Z"/>
      <rect class="cls-1" x="225.82" y="364.06" width="68.53" height="206.42"/>
      <path class="cls-1" d="M454.45,358.29c27.52,0,50.5,10.46,68.94,31.37,18.71,20.92,28.07,46.79,28.07,77.61s-9.36,56.83-28.07,78.03c-18.72,20.64-41.7,30.96-68.94,30.96-25.05,0-44.59-8.26-58.62-24.77v101.56h-68.53v-288.98h68.53v18.99c14.04-16.51,33.58-24.77,58.62-24.77ZM407.8,499.89c7.98,8.26,18.43,12.39,31.37,12.39s23.39-4.13,31.37-12.39c7.98-8.53,11.97-19.4,11.97-32.61s-3.99-24.08-11.97-32.62c-7.98-8.26-18.44-12.38-31.37-12.38s-23.39,4.13-31.37,12.38c-7.98,8.53-11.97,19.4-11.97,32.62s3.99,24.09,11.97,32.61Z"/>
      <path class="cls-1" d="M702.99,358.29c27.52,0,50.5,10.46,68.94,31.37,18.71,20.92,28.07,46.79,28.07,77.61s-9.36,56.83-28.07,78.03c-18.72,20.64-41.7,30.96-68.94,30.96-25.05,0-44.59-8.26-58.62-24.77v101.56h-68.53v-288.98h68.53v18.99c14.04-16.51,33.58-24.77,58.62-24.77ZM656.34,499.89c7.98,8.26,18.43,12.39,31.37,12.39s23.39-4.13,31.37-12.39c7.98-8.53,11.97-19.4,11.97-32.61s-3.99-24.08-11.97-32.62c-7.98-8.26-18.44-12.38-31.37-12.38s-23.39,4.13-31.37,12.38c-7.98,8.53-11.97,19.4-11.97,32.62s3.99,24.09,11.97,32.61Z"/>
    </g>
    <circle class="cls-2" cx="260.3" cy="307.51" r="39.42"/>
  </g>
</svg>