<?xml version="1.0" encoding="UTF-8"?>
<svg id="Design" xmlns="http://www.w3.org/2000/svg" viewBox="0 0 180 180">
  <defs>
    <style>
      .cls-1 {
        fill: #003049;
      }

      .cls-2 {
        fill: #f47f20;
      }
    </style>
  </defs>
  <path class="cls-2" d="M149.24,76.85c-1.87,0-3.55-1.3-3.96-3.21-2.48-11.59-11.94-18.23-25.95-18.23-6.02,0-11.72,1.93-16.49,5.57-.9.69-2.04.97-3.16.77-1.11-.19-2.1-.85-2.71-1.8-7.59-11.77-20.47-18.79-34.45-18.79-19.62,0-36.12,13.03-40.11,31.68-.47,2.19-2.63,3.58-4.81,3.11-2.19-.47-3.58-2.62-3.11-4.81,4.8-22.43,24.56-38.09,48.04-38.09,15.36,0,29.61,7.08,38.88,19.13,5.41-3.21,11.53-4.88,17.93-4.88,17.64,0,30.62,9.44,33.87,24.64.47,2.19-.93,4.34-3.11,4.81-.29.06-.57.09-.85.09Z"/>
  <g>
    <g>
      <path class="cls-1" d="M24.71,129.66c-7.06,0-12.94-2.35-17.65-7.06-4.71-4.71-7.06-10.53-7.06-17.46s2.35-12.76,7.06-17.46c4.71-4.71,10.59-7.06,17.65-7.06,4.58,0,8.75,1.07,12.49,3.21,3.75,2.14,6.64,5.06,8.68,8.78l-13.19,7.62c-1.67-3.03-4.37-4.55-8.08-4.55-2.6,0-4.77.88-6.5,2.65-1.73,1.76-2.6,4.04-2.6,6.83s.87,5.06,2.6,6.83c1.73,1.76,3.9,2.65,6.5,2.65,3.78,0,6.47-1.55,8.08-4.64l13.19,7.62c-2.04,3.72-4.94,6.66-8.68,8.82-3.75,2.17-7.91,3.25-12.49,3.25Z"/>
      <rect class="cls-1" x="50.81" y="81.91" width="15.42" height="46.44"/>
      <path class="cls-1" d="M102.25,80.61c6.19,0,11.36,2.35,15.51,7.06,4.21,4.71,6.32,10.53,6.32,17.46s-2.11,12.79-6.32,17.56c-4.21,4.64-9.38,6.97-15.51,6.97-5.64,0-10.03-1.86-13.19-5.57v22.85h-15.42v-65.02h15.42v4.27c3.16-3.72,7.55-5.57,13.19-5.57ZM91.75,112.47c1.8,1.86,4.15,2.79,7.06,2.79s5.26-.93,7.06-2.79c1.8-1.92,2.69-4.37,2.69-7.34s-.9-5.42-2.69-7.34c-1.8-1.86-4.15-2.79-7.06-2.79s-5.26.93-7.06,2.79c-1.8,1.92-2.69,4.37-2.69,7.34s.9,5.42,2.69,7.34Z"/>
      <path class="cls-1" d="M158.17,80.61c6.19,0,11.36,2.35,15.51,7.06,4.21,4.71,6.32,10.53,6.32,17.46s-2.11,12.79-6.32,17.56c-4.21,4.64-9.38,6.97-15.51,6.97-5.64,0-10.03-1.86-13.19-5.57v22.85h-15.42v-65.02h15.42v4.27c3.16-3.72,7.55-5.57,13.19-5.57ZM147.68,112.47c1.8,1.86,4.15,2.79,7.06,2.79s5.26-.93,7.06-2.79c1.8-1.92,2.69-4.37,2.69-7.34s-.9-5.42-2.69-7.34c-1.8-1.86-4.15-2.79-7.06-2.79s-5.26.93-7.06,2.79c-1.8,1.92-2.69,4.37-2.69,7.34s.9,5.42,2.69,7.34Z"/>
    </g>
    <circle class="cls-2" cx="58.57" cy="69.19" r="8.87"/>
  </g>
</svg>