<?xml version="1.0" encoding="UTF-8"?>
<svg id="Design" xmlns="http://www.w3.org/2000/svg" viewBox="0 0 32 32">
  <defs>
    <style>
      .cls-1 {
        fill: #003049;
      }

      .cls-2 {
        fill: #f47f20;
      }
    </style>
  </defs>
  <path class="cls-2" d="M26.53,13.66c-.33,0-.63-.23-.7-.57-.44-2.06-2.12-3.24-4.61-3.24-1.07,0-2.08.34-2.93.99-.16.12-.36.17-.56.14-.2-.03-.37-.15-.48-.32-1.35-2.09-3.64-3.34-6.12-3.34-3.49,0-6.42,2.32-7.13,5.63-.08.39-.47.64-.86.55-.39-.08-.64-.47-.55-.86.85-3.99,4.37-6.77,8.54-6.77,2.73,0,5.26,1.26,6.91,3.4.96-.57,2.05-.87,3.19-.87,3.14,0,5.44,1.68,6.02,4.38.08.39-.16.77-.55.86-.05.01-.1.02-.15.02Z"/>
  <g>
    <g>
      <path class="cls-1" d="M4.39,23.05c-1.25,0-2.3-.42-3.14-1.25-.84-.84-1.25-1.87-1.25-3.1s.42-2.27,1.25-3.1,1.88-1.25,3.14-1.25c.81,0,1.55.19,2.22.57.67.38,1.18.9,1.54,1.56l-2.34,1.35c-.3-.54-.78-.81-1.44-.81-.46,0-.85.16-1.16.47-.31.31-.46.72-.46,1.21s.15.9.46,1.21c.31.31.69.47,1.16.47.67,0,1.15-.28,1.44-.83l2.34,1.35c-.36.66-.88,1.18-1.54,1.57-.67.39-1.41.58-2.22.58Z"/>
      <rect class="cls-1" x="9.03" y="14.56" width="2.74" height="8.26"/>
      <path class="cls-1" d="M18.18,14.33c1.1,0,2.02.42,2.76,1.25.75.84,1.12,1.87,1.12,3.1s-.37,2.27-1.12,3.12c-.75.83-1.67,1.24-2.76,1.24-1,0-1.78-.33-2.34-.99v4.06h-2.74v-11.56h2.74v.76c.56-.66,1.34-.99,2.34-.99ZM16.31,20c.32.33.74.5,1.25.5s.94-.17,1.25-.5c.32-.34.48-.78.48-1.3s-.16-.96-.48-1.3c-.32-.33-.74-.5-1.25-.5s-.94.17-1.25.5c-.32.34-.48.78-.48,1.3s.16.96.48,1.3Z"/>
      <path class="cls-1" d="M28.12,14.33c1.1,0,2.02.42,2.76,1.25.75.84,1.12,1.87,1.12,3.1s-.37,2.27-1.12,3.12c-.75.83-1.67,1.24-2.76,1.24-1,0-1.78-.33-2.34-.99v4.06h-2.74v-11.56h2.74v.76c.56-.66,1.34-.99,2.34-.99ZM26.25,20c.32.33.74.5,1.25.5s.94-.17,1.25-.5c.32-.34.48-.78.48-1.3s-.16-.96-.48-1.3c-.32-.33-.74-.5-1.25-.5s-.94.17-1.25.5c-.32.34-.48.78-.48,1.3s.16.96.48,1.3Z"/>
    </g>
    <circle class="cls-2" cx="10.41" cy="12.3" r="1.58"/>
  </g>
</svg>