<?xml version="1.0" encoding="UTF-8"?>
<svg id="Design" xmlns="http://www.w3.org/2000/svg" viewBox="0 0 64 64">
  <defs>
    <style>
      .cls-1 {
        fill: #003049;
      }

      .cls-2 {
        fill: #f47f20;
      }
    </style>
  </defs>
  <path class="cls-2" d="M53.06,27.33c-.66,0-1.26-.46-1.41-1.14-.88-4.12-4.24-6.48-9.23-6.48-2.14,0-4.17.68-5.86,1.98-.32.24-.73.34-1.12.27-.4-.07-.75-.3-.96-.64-2.7-4.18-7.28-6.68-12.25-6.68-6.98,0-12.84,4.63-14.26,11.27-.17.78-.93,1.27-1.71,1.11-.78-.17-1.27-.93-1.11-1.71,1.71-7.97,8.73-13.54,17.08-13.54,5.46,0,10.53,2.52,13.82,6.8,1.92-1.14,4.1-1.74,6.37-1.74,6.27,0,10.89,3.36,12.04,8.76.17.78-.33,1.54-1.11,1.71-.1.02-.2.03-.3.03Z"/>
  <g>
    <g>
      <path class="cls-1" d="M8.78,46.1c-2.51,0-4.6-.84-6.27-2.51-1.67-1.67-2.51-3.74-2.51-6.21s.84-4.54,2.51-6.21c1.67-1.67,3.76-2.51,6.27-2.51,1.63,0,3.11.38,4.44,1.14,1.33.76,2.36,1.8,3.09,3.12l-4.69,2.71c-.59-1.08-1.55-1.62-2.87-1.62-.92,0-1.7.31-2.31.94-.62.63-.92,1.44-.92,2.43s.31,1.8.92,2.43c.62.63,1.39.94,2.31.94,1.34,0,2.3-.55,2.87-1.65l4.69,2.71c-.73,1.32-1.76,2.37-3.09,3.14-1.33.77-2.81,1.16-4.44,1.16Z"/>
      <rect class="cls-1" x="18.07" y="29.13" width="5.48" height="16.51"/>
      <path class="cls-1" d="M36.36,28.66c2.2,0,4.04.84,5.52,2.51,1.5,1.67,2.25,3.74,2.25,6.21s-.75,4.55-2.25,6.24c-1.5,1.65-3.34,2.48-5.52,2.48-2,0-3.57-.66-4.69-1.98v8.12h-5.48v-23.12h5.48v1.52c1.12-1.32,2.69-1.98,4.69-1.98ZM32.62,39.99c.64.66,1.47.99,2.51.99s1.87-.33,2.51-.99c.64-.68.96-1.55.96-2.61s-.32-1.93-.96-2.61c-.64-.66-1.48-.99-2.51-.99s-1.87.33-2.51.99c-.64.68-.96,1.55-.96,2.61s.32,1.93.96,2.61Z"/>
      <path class="cls-1" d="M56.24,28.66c2.2,0,4.04.84,5.52,2.51,1.5,1.67,2.25,3.74,2.25,6.21s-.75,4.55-2.25,6.24c-1.5,1.65-3.34,2.48-5.52,2.48-2,0-3.57-.66-4.69-1.98v8.12h-5.48v-23.12h5.48v1.52c1.12-1.32,2.69-1.98,4.69-1.98ZM52.51,39.99c.64.66,1.47.99,2.51.99s1.87-.33,2.51-.99c.64-.68.96-1.55.96-2.61s-.32-1.93-.96-2.61c-.64-.66-1.48-.99-2.51-.99s-1.87.33-2.51.99c-.64.68-.96,1.55-.96,2.61s.32,1.93.96,2.61Z"/>
    </g>
    <circle class="cls-2" cx="20.82" cy="24.6" r="3.15"/>
  </g>
</svg>