<?xml version="1.0" encoding="UTF-8"?>
<svg id="Design" xmlns="http://www.w3.org/2000/svg" viewBox="0 0 250 250">
  <defs>
    <style>
      .cls-1 {
        fill: #003049;
      }

      .cls-2 {
        fill: #f47f20;
      }
    </style>
  </defs>
  <path class="cls-2" d="M207.28,106.74c-2.6,0-4.93-1.81-5.5-4.45-3.45-16.09-16.58-25.32-36.04-25.32-8.36,0-16.28,2.68-22.9,7.74-1.25.96-2.84,1.34-4.39,1.07-1.55-.27-2.91-1.17-3.76-2.5-10.54-16.35-28.43-26.1-47.84-26.1-27.25,0-50.16,18.1-55.71,44.01-.65,3.04-3.65,4.98-6.68,4.33-3.04-.65-4.98-3.64-4.33-6.68,6.67-31.15,34.11-52.91,66.72-52.91,21.34,0,41.13,9.83,54,26.57,7.51-4.45,16.02-6.78,24.9-6.78,24.5,0,42.52,13.11,47.05,34.22.65,3.04-1.29,6.03-4.33,6.68-.4.08-.79.13-1.19.13Z"/>
  <g>
    <g>
      <path class="cls-1" d="M34.32,180.08c-9.8,0-17.98-3.27-24.51-9.8-6.54-6.54-9.8-14.62-9.8-24.25s3.27-17.72,9.8-24.25c6.54-6.54,14.71-9.8,24.51-9.8,6.36,0,12.15,1.48,17.35,4.45,5.2,2.97,9.22,7.03,12.06,12.19l-18.32,10.58c-2.32-4.21-6.06-6.32-11.22-6.32-3.61,0-6.62,1.23-9.03,3.68-2.41,2.45-3.61,5.61-3.61,9.48s1.2,7.03,3.61,9.48c2.41,2.45,5.42,3.68,9.03,3.68,5.24,0,8.99-2.15,11.22-6.45l18.32,10.58c-2.84,5.16-6.86,9.25-12.06,12.26-5.2,3.01-10.99,4.51-17.35,4.51Z"/>
      <rect class="cls-1" x="70.57" y="113.77" width="21.41" height="64.51"/>
      <path class="cls-1" d="M142.02,111.96c8.6,0,15.78,3.27,21.54,9.8,5.85,6.54,8.77,14.62,8.77,24.25s-2.92,17.76-8.77,24.38c-5.85,6.45-13.03,9.67-21.54,9.67-7.83,0-13.93-2.58-18.32-7.74v31.74h-21.41v-90.31h21.41v5.93c4.39-5.16,10.49-7.74,18.32-7.74ZM127.44,156.21c2.49,2.58,5.76,3.87,9.8,3.87s7.31-1.29,9.8-3.87c2.49-2.66,3.74-6.06,3.74-10.19s-1.25-7.53-3.74-10.19c-2.49-2.58-5.76-3.87-9.8-3.87s-7.31,1.29-9.8,3.87c-2.49,2.67-3.74,6.06-3.74,10.19s1.25,7.53,3.74,10.19Z"/>
      <path class="cls-1" d="M219.68,111.96c8.6,0,15.78,3.27,21.54,9.8,5.85,6.54,8.77,14.62,8.77,24.25s-2.92,17.76-8.77,24.38c-5.85,6.45-13.03,9.67-21.54,9.67-7.83,0-13.93-2.58-18.32-7.74v31.74h-21.41v-90.31h21.41v5.93c4.39-5.16,10.49-7.74,18.32-7.74ZM205.11,156.21c2.49,2.58,5.76,3.87,9.8,3.87s7.31-1.29,9.8-3.87c2.49-2.66,3.74-6.06,3.74-10.19s-1.25-7.53-3.74-10.19c-2.49-2.58-5.76-3.87-9.8-3.87s-7.31,1.29-9.8,3.87c-2.49,2.67-3.74,6.06-3.74,10.19s1.25,7.53,3.74,10.19Z"/>
    </g>
    <circle class="cls-2" cx="81.34" cy="96.1" r="12.32"/>
  </g>
</svg>