<?xml version="1.0" encoding="UTF-8"?>
<svg id="Design" xmlns="http://www.w3.org/2000/svg" viewBox="0 0 3840 2160">
  <defs>
    <style>
      .cls-1 {
        fill: #003049;
      }

      .cls-2 {
        fill: #f47f20;
      }
    </style>
  </defs>
  <path class="cls-2" d="M3043.71,830.63c-35.47,0-67.36-24.7-75.1-60.8-47.07-219.78-226.46-345.83-492.17-345.83-114.19,0-222.36,36.54-312.82,105.69-17.05,13.06-38.74,18.35-59.91,14.67-21.15-3.69-39.78-16.04-51.41-34.08-143.95-223.24-388.22-356.51-653.41-356.51-372.18,0-685.07,247.15-760.87,601.02-8.9,41.54-49.8,67.99-91.29,59.08-41.52-8.9-67.97-49.77-59.08-91.29C578.8,297.15,953.51,0,1398.89,0c291.39,0,561.69,134.3,737.45,362.86,102.61-60.81,218.76-92.63,340.09-92.63,334.57,0,580.78,179.09,642.54,467.39,8.9,41.52-17.56,82.39-59.08,91.29-5.42,1.16-10.85,1.72-16.19,1.72Z"/>
  <g>
    <g>
      <path class="cls-1" d="M681.48,1832.27c-133.91,0-245.51-44.62-334.76-133.91-89.29-89.25-133.91-199.68-133.91-331.24s44.62-241.97,133.91-331.26c89.25-89.25,200.86-133.91,334.76-133.91,86.91,0,165.91,20.26,236.99,60.8,71.05,40.52,125.98,96.02,164.74,166.5l-250.2,144.48c-31.71-57.54-82.81-86.34-153.29-86.34-49.34,0-90.47,16.73-123.35,50.22-32.89,33.47-49.32,76.64-49.32,129.5s16.43,96.02,49.32,129.5c32.88,33.47,74,50.22,123.35,50.22,71.63,0,122.72-29.35,153.29-88.11l250.2,144.48c-38.76,70.48-93.69,126.28-164.74,167.39-71.09,41.09-150.08,61.66-236.99,61.66Z"/>
      <rect class="cls-1" x="1176.62" y="926.63" width="292.47" height="880.98"/>
      <path class="cls-1" d="M2152.38,901.97c117.44,0,215.53,44.65,294.24,133.91,79.86,89.29,119.8,199.71,119.8,331.26s-39.95,242.56-119.8,333.01c-79.89,88.09-177.97,132.13-294.24,132.13-106.9,0-190.3-35.24-250.2-105.72v433.45h-292.47V926.63h292.47v81.06c59.9-70.48,143.3-105.72,250.2-105.72ZM1953.28,1506.31c34.06,35.24,78.68,52.87,133.91,52.87s99.83-17.63,133.91-52.87c34.06-36.39,51.1-82.81,51.1-139.19s-17.04-102.78-51.1-139.2c-34.08-35.24-78.71-52.85-133.91-52.85s-99.85,17.61-133.91,52.85c-34.08,36.42-51.1,82.81-51.1,139.2s17.02,102.8,51.1,139.19Z"/>
      <path class="cls-1" d="M3213.14,901.97c117.44,0,215.53,44.65,294.24,133.91,79.86,89.29,119.8,199.71,119.8,331.26s-39.95,242.56-119.8,333.01c-79.89,88.09-177.97,132.13-294.24,132.13-106.9,0-190.3-35.24-250.2-105.72v433.45h-292.47V926.63h292.47v81.06c59.9-70.48,143.3-105.72,250.2-105.72ZM3014.04,1506.31c34.06,35.24,78.68,52.87,133.91,52.87s99.83-17.63,133.91-52.87c34.06-36.39,51.1-82.81,51.1-139.19s-17.04-102.78-51.1-139.2c-34.08-35.24-78.71-52.85-133.91-52.85s-99.85,17.61-133.91,52.85c-34.08,36.42-51.1,82.81-51.1,139.2s17.02,102.8,51.1,139.19Z"/>
    </g>
    <circle class="cls-2" cx="1323.77" cy="685.25" r="168.23"/>
  </g>
</svg>