<?xml version="1.0" encoding="UTF-8"?>
<svg id="Design" xmlns="http://www.w3.org/2000/svg" viewBox="0 0 100 100">
  <defs>
    <style>
      .cls-1 {
        fill: #003049;
      }

      .cls-2 {
        fill: #f47f20;
      }
    </style>
  </defs>
  <path class="cls-2" d="M82.91,42.7c-1.04,0-1.97-.72-2.2-1.78-1.38-6.44-6.63-10.13-14.41-10.13-3.34,0-6.51,1.07-9.16,3.1-.5.38-1.13.54-1.75.43-.62-.11-1.17-.47-1.51-1-4.22-6.54-11.37-10.44-19.14-10.44-10.9,0-20.06,7.24-22.28,17.6-.26,1.22-1.46,1.99-2.67,1.73-1.22-.26-1.99-1.46-1.73-2.67,2.67-12.46,13.64-21.16,26.69-21.16,8.53,0,16.45,3.93,21.6,10.63,3.01-1.78,6.41-2.71,9.96-2.71,9.8,0,17.01,5.25,18.82,13.69.26,1.22-.51,2.41-1.73,2.67-.16.03-.32.05-.47.05Z"/>
  <g>
    <g>
      <path class="cls-1" d="M13.73,72.03c-3.92,0-7.19-1.31-9.8-3.92-2.62-2.61-3.92-5.85-3.92-9.7s1.31-7.09,3.92-9.7c2.61-2.61,5.88-3.92,9.8-3.92,2.55,0,4.86.59,6.94,1.78,2.08,1.19,3.69,2.81,4.82,4.88l-7.33,4.23c-.93-1.69-2.43-2.53-4.49-2.53-1.45,0-2.65.49-3.61,1.47-.96.98-1.44,2.24-1.44,3.79s.48,2.81,1.44,3.79c.96.98,2.17,1.47,3.61,1.47,2.1,0,3.59-.86,4.49-2.58l7.33,4.23c-1.14,2.06-2.74,3.7-4.82,4.9-2.08,1.2-4.4,1.81-6.94,1.81Z"/>
      <rect class="cls-1" x="28.23" y="45.51" width="8.57" height="25.8"/>
      <path class="cls-1" d="M56.81,44.79c3.44,0,6.31,1.31,8.62,3.92,2.34,2.62,3.51,5.85,3.51,9.7s-1.17,7.1-3.51,9.75c-2.34,2.58-5.21,3.87-8.62,3.87-3.13,0-5.57-1.03-7.33-3.1v12.69h-8.57v-36.12h8.57v2.37c1.75-2.06,4.2-3.1,7.33-3.1ZM50.97,62.49c1,1.03,2.3,1.55,3.92,1.55s2.92-.52,3.92-1.55c1-1.07,1.5-2.43,1.5-4.08s-.5-3.01-1.5-4.08c-1-1.03-2.31-1.55-3.92-1.55s-2.92.52-3.92,1.55c-1,1.07-1.5,2.43-1.5,4.08s.5,3.01,1.5,4.08Z"/>
      <path class="cls-1" d="M87.87,44.79c3.44,0,6.31,1.31,8.62,3.92,2.34,2.62,3.51,5.85,3.51,9.7s-1.17,7.1-3.51,9.75c-2.34,2.58-5.21,3.87-8.62,3.87-3.13,0-5.57-1.03-7.33-3.1v12.69h-8.57v-36.12h8.57v2.37c1.75-2.06,4.2-3.1,7.33-3.1ZM82.04,62.49c1,1.03,2.3,1.55,3.92,1.55s2.92-.52,3.92-1.55c1-1.07,1.5-2.43,1.5-4.08s-.5-3.01-1.5-4.08c-1-1.03-2.31-1.55-3.92-1.55s-2.92.52-3.92,1.55c-1,1.07-1.5,2.43-1.5,4.08s.5,3.01,1.5,4.08Z"/>
    </g>
    <circle class="cls-2" cx="32.54" cy="38.44" r="4.93"/>
  </g>
</svg>