<?xml version="1.0" encoding="UTF-8"?>
<svg id="Design" xmlns="http://www.w3.org/2000/svg" viewBox="0 0 125 125">
  <defs>
    <style>
      .cls-1 {
        fill: #fff;
      }
    </style>
  </defs>
  <g>
    <path class="cls-1" d="M100.05,48.97v21.88c0,12.47-7.17,24.28-20.2,33.27l-7.26,5.02-2.15,1.49h-33.45c-1.14,0-2.17-.44-2.91-1.16-.74-.71-1.2-1.69-1.2-2.78,0-1.94,1.46-3.54,3.38-3.87.24-.04.49-.07.73-.07h36.43c1,0,1.91-.39,2.56-1.01.66-.64,1.07-1.5,1.07-2.46,0-1.91-1.62-3.46-3.62-3.46h-13.51c-1.19,0-2.25-.46-3.03-1.2-.78-.74-1.26-1.77-1.26-2.89,0-2.25,1.92-4.09,4.29-4.09h11.21c1,0,1.91-.38,2.56-1.02.66-.62,1.07-1.49,1.07-2.43,0-1.92-1.62-3.46-3.62-3.46h-28.52c-1.59,0-3.03-.61-4.07-1.61-1.06-.99-1.7-2.38-1.7-3.89,0-3.05,2.58-5.51,5.77-5.51h12.37c1.36,0,2.6-.53,3.49-1.37.89-.86,1.45-2.04,1.45-3.35,0-2.6-2.22-4.72-4.94-4.72H21c-1.64,0-3.12-.63-4.2-1.66-1.08-1.01-1.74-2.43-1.74-3.99,0-3.14,2.65-5.67,5.93-5.67h79.04Z"/>
    <polygon class="cls-1" points="83.55 113.58 67.02 125 50.49 113.58 83.55 113.58"/>
    <path class="cls-1" d="M48.61,99.79h-11.62c-.43,0-.85.04-1.25.11-.2.04-.39.07-.58.12-7.14-8.76-11.05-18.85-11.05-29.17v-7.59h9.89v7.59c0,.82.03,1.64.09,2.46v.02c.02.27.04.54.07.8.03.28.06.55.09.83.07.54.15,1.09.25,1.64.09.54.21,1.09.33,1.63.12.53.25,1.06.41,1.58,0,.01,0,.02,0,.04,2.07,7.23,6.62,14.04,13.35,19.95Z"/>
    <path class="cls-1" d="M109.93,34.96v35.89c0,14.13-7.33,27.85-20.27,38.29-.62.5-1.26,1-1.91,1.49h-17.31l2.15-1.49,7.26-5.02c13.02-8.99,20.2-20.8,20.2-33.27v-25.99H34v1.14h-9.89v-11.04h85.82Z"/>
    <path class="cls-1" d="M34.1,73.3c.02.28.04.55.07.83-.03-.27-.05-.54-.07-.8,0,0,0-.01,0-.02Z"/>
    <path class="cls-1" d="M35.26,79.83s-.01-.02-.01-.03c-.15-.52-.29-1.05-.41-1.58.12.54.27,1.07.42,1.61Z"/>
  </g>
  <path class="cls-1" d="M65.26,0c-17.84,0-32.95,12.57-37.74,29.74h10.05c4.35-11.79,15.12-20.16,27.68-20.16s23.33,8.37,27.68,20.16h10.05C98.21,12.57,83.1,0,65.26,0Z"/>
</svg>