<?xml version="1.0" encoding="UTF-8"?>
<svg id="Design" xmlns="http://www.w3.org/2000/svg" viewBox="0 0 180 180">
  <defs>
    <style>
      .cls-1 {
        fill: #fff;
      }
    </style>
  </defs>
  <g>
    <path class="cls-1" d="M144.07,70.52v31.5c0,17.96-10.33,34.97-29.08,47.91l-10.46,7.23-3.1,2.14h-48.17c-1.64,0-3.12-.64-4.19-1.67-1.06-1.02-1.73-2.43-1.73-4,0-2.8,2.11-5.1,4.87-5.57.34-.06.71-.09,1.05-.09h52.47c1.44,0,2.74-.56,3.68-1.45.95-.92,1.53-2.16,1.53-3.54,0-2.75-2.34-4.98-5.22-4.98h-19.46c-1.71,0-3.25-.66-4.36-1.72-1.12-1.06-1.82-2.55-1.82-4.16,0-3.25,2.77-5.89,6.18-5.89h16.14c1.44,0,2.74-.55,3.68-1.47.95-.89,1.53-2.14,1.53-3.51,0-2.77-2.34-4.99-5.22-4.99h-41.07c-2.3,0-4.36-.88-5.86-2.32-1.52-1.43-2.44-3.42-2.44-5.6,0-4.39,3.71-7.94,8.31-7.94h17.81c1.96,0,3.75-.76,5.03-1.97,1.28-1.24,2.09-2.93,2.09-4.82,0-3.75-3.2-6.79-7.12-6.79H30.25c-2.36,0-4.5-.91-6.04-2.39-1.55-1.46-2.5-3.51-2.5-5.75,0-4.52,3.82-8.16,8.55-8.16h113.82Z"/>
    <polygon class="cls-1" points="120.32 163.55 96.51 180 72.7 163.55 120.32 163.55"/>
    <path class="cls-1" d="M70,143.7h-16.74c-.63,0-1.22.05-1.81.16-.28.05-.56.1-.83.18-10.29-12.62-15.91-27.15-15.91-42.01v-10.93h14.24v10.93c0,1.18.04,2.36.14,3.54v.03c.03.39.06.77.1,1.16.04.4.08.79.14,1.19.1.78.22,1.58.37,2.36.14.78.3,1.57.48,2.35.17.76.37,1.52.58,2.27,0,.02.01.03.01.05,2.97,10.41,9.53,20.22,19.23,28.73Z"/>
    <path class="cls-1" d="M158.3,50.34v51.68c0,20.35-10.55,40.11-29.19,55.14-.9.72-1.82,1.44-2.75,2.14h-24.93l3.1-2.14,10.46-7.23c18.75-12.94,29.08-29.95,29.08-47.91v-37.43H48.96v1.65h-14.24v-15.9h123.59Z"/>
    <path class="cls-1" d="M49.1,105.56c.03.4.06.79.09,1.19-.04-.39-.07-.77-.1-1.16,0-.01.01-.02.01-.03Z"/>
    <path class="cls-1" d="M50.78,114.96s-.02-.03-.02-.04c-.22-.75-.42-1.51-.58-2.27.18.77.39,1.54.61,2.32Z"/>
  </g>
  <path class="cls-1" d="M93.97,0c-25.69,0-47.45,18.1-54.34,42.82h14.47c6.27-16.98,21.77-29.04,39.87-29.04s33.6,12.06,39.87,29.04h14.47C141.42,18.1,119.66,0,93.97,0Z"/>
</svg>