<?xml version="1.0" encoding="UTF-8"?>
<svg id="Design" xmlns="http://www.w3.org/2000/svg" viewBox="0 0 512 512">
  <defs>
    <style>
      .cls-1 {
        fill: #fff;
      }
    </style>
  </defs>
  <g>
    <path class="cls-1" d="M409.79,200.59v89.61c0,51.08-29.38,99.46-82.72,136.26l-29.74,20.57-8.82,6.08h-137.01c-4.66,0-8.87-1.81-11.93-4.75-3.03-2.91-4.93-6.92-4.93-11.37,0-7.95,6-14.51,13.86-15.85.98-.18,2.02-.27,3-.27h149.23c4.1,0,7.81-1.6,10.48-4.13,2.7-2.61,4.36-6.14,4.36-10.06,0-7.84-6.65-14.16-14.84-14.16h-55.35c-4.87,0-9.23-1.87-12.41-4.9-3.18-3.03-5.16-7.24-5.16-11.84,0-9.23,7.87-16.74,17.57-16.74h45.92c4.1,0,7.81-1.57,10.48-4.18,2.7-2.52,4.36-6.08,4.36-9.97,0-7.87-6.65-14.19-14.84-14.19h-116.82c-6.53,0-12.41-2.49-16.68-6.59-4.33-4.07-6.95-9.74-6.95-15.94,0-12.5,10.57-22.59,23.63-22.59h50.67c5.58,0,10.66-2.17,14.31-5.61,3.65-3.53,5.94-8.34,5.94-13.71,0-10.66-9.11-19.32-20.24-19.32H86.03c-6.71,0-12.79-2.58-17.19-6.8-4.42-4.16-7.12-9.97-7.12-16.35,0-12.85,10.86-23.21,24.31-23.21h323.76Z"/>
    <polygon class="cls-1" points="342.24 465.22 274.51 512 206.8 465.22 342.24 465.22"/>
    <path class="cls-1" d="M199.12,408.74h-47.61c-1.78,0-3.47.15-5.13.45-.8.15-1.6.3-2.37.5-29.27-35.88-45.26-77.23-45.26-119.49v-31.08h40.51v31.08c0,3.35.12,6.71.39,10.06v.09c.09,1.1.18,2.2.3,3.29.12,1.13.24,2.26.39,3.38.3,2.23.62,4.48,1.04,6.71.39,2.23.86,4.45,1.37,6.68.47,2.17,1.04,4.33,1.66,6.47,0,.06.03.09.03.15,8.46,29.62,27.1,57.52,54.7,81.71Z"/>
    <path class="cls-1" d="M450.28,143.19v147.01c0,57.88-30.01,114.09-83.02,156.83-2.55,2.05-5.16,4.1-7.84,6.08h-70.91l8.82-6.08,29.74-20.57c53.34-36.8,82.72-85.18,82.72-136.26v-106.46H139.25v4.69h-40.51v-45.23h351.54Z"/>
    <path class="cls-1" d="M139.67,300.26c.09,1.13.18,2.26.27,3.38-.12-1.1-.21-2.2-.3-3.29,0-.03.03-.06.03-.09Z"/>
    <path class="cls-1" d="M144.44,327s-.06-.09-.06-.12c-.62-2.14-1.19-4.3-1.66-6.47.5,2.2,1.1,4.39,1.72,6.59Z"/>
  </g>
  <path class="cls-1" d="M267.3,0c-73.08,0-134.96,51.47-154.57,121.81h41.17c17.82-48.3,61.92-82.6,113.39-82.6s95.57,34.29,113.39,82.6h41.17C402.26,51.47,340.38,0,267.3,0Z"/>
</svg>