<?xml version="1.0" encoding="UTF-8"?>
<svg id="Design" xmlns="http://www.w3.org/2000/svg" viewBox="0 0 1546 423">
  <g>
    <path d="M900.06,165.72v74.03c0,42.2-24.28,82.17-68.34,112.58l-24.57,16.99-7.28,5.03h-113.19c-3.85,0-7.33-1.5-9.86-3.92-2.5-2.4-4.07-5.71-4.07-9.39,0-6.57,4.95-11.99,11.45-13.09.81-.15,1.67-.22,2.48-.22h123.29c3.38,0,6.45-1.32,8.66-3.41,2.23-2.16,3.6-5.08,3.6-8.31,0-6.47-5.49-11.7-12.26-11.7h-45.73c-4.02,0-7.63-1.54-10.25-4.05-2.62-2.5-4.27-5.98-4.27-9.78,0-7.63,6.5-13.83,14.52-13.83h37.93c3.38,0,6.45-1.3,8.66-3.46,2.23-2.08,3.6-5.03,3.6-8.24,0-6.5-5.49-11.72-12.26-11.72h-96.52c-5.39,0-10.25-2.06-13.78-5.44-3.58-3.36-5.74-8.04-5.74-13.17,0-10.32,8.73-18.66,19.52-18.66h41.86c4.61,0,8.8-1.79,11.82-4.63,3.02-2.92,4.9-6.89,4.9-11.33,0-8.8-7.53-15.96-16.72-15.96h-114.93c-5.54,0-10.57-2.13-14.2-5.62-3.65-3.43-5.89-8.24-5.89-13.51,0-10.62,8.97-19.18,20.08-19.18h267.48Z"/>
    <polygon points="844.25 384.35 788.29 423 732.36 384.35 844.25 384.35"/>
    <path d="M726,337.69h-39.33c-1.47,0-2.87.12-4.24.37-.66.12-1.32.25-1.96.42-24.18-29.65-37.4-63.8-37.4-98.72v-25.67h33.47v25.67c0,2.77.1,5.54.32,8.31v.07c.07.91.15,1.81.25,2.72.1.93.2,1.86.32,2.8.25,1.84.52,3.7.86,5.54.32,1.84.71,3.68,1.13,5.52.39,1.79.86,3.58,1.37,5.35,0,.05.02.07.02.12,6.99,24.47,22.39,47.52,45.19,67.51Z"/>
    <path d="M933.5,118.3v121.45c0,47.82-24.79,94.26-68.59,129.57-2.11,1.69-4.27,3.38-6.47,5.03h-58.58l7.28-5.03,24.57-16.99c44.07-30.41,68.34-70.38,68.34-112.58v-87.96h-223.51v3.87h-33.47v-37.37h290.43Z"/>
    <path d="M676.89,248.06c.07.93.15,1.86.22,2.8-.1-.91-.17-1.81-.25-2.72,0-.02.02-.05.02-.07Z"/>
    <path d="M680.84,270.16s-.05-.07-.05-.1c-.52-1.77-.98-3.56-1.37-5.35.42,1.81.91,3.63,1.42,5.44Z"/>
  </g>
  <path d="M782.34,0c-60.37,0-111.5,42.53-127.7,100.63h34.02c14.73-39.91,51.16-68.24,93.68-68.24s78.96,28.33,93.68,68.24h34.02C893.84,42.53,842.71,0,782.34,0Z"/>
</svg>