<?xml version="1.0" encoding="UTF-8"?>
<svg id="Design" xmlns="http://www.w3.org/2000/svg" viewBox="0 0 1000 1000">
  <g>
    <path d="M800.37,391.78v175.01c0,99.77-57.39,194.26-161.56,266.14l-58.09,40.17-17.22,11.88h-267.59c-9.1,0-17.33-3.54-23.3-9.28-5.91-5.68-9.62-13.51-9.62-22.2,0-15.54,11.71-28.35,27.07-30.96,1.91-.35,3.94-.52,5.86-.52h291.47c8,0,15.25-3.13,20.46-8.06,5.28-5.1,8.52-12,8.52-19.65,0-15.3-12.99-27.65-28.99-27.65h-108.11c-9.51,0-18.03-3.65-24.23-9.57-6.2-5.91-10.09-14.14-10.09-23.13,0-18.03,15.36-32.7,34.32-32.7h89.68c8,0,15.25-3.07,20.46-8.17,5.28-4.93,8.52-11.88,8.52-19.48,0-15.36-12.99-27.71-28.99-27.71h-228.17c-12.75,0-24.23-4.87-32.58-12.87-8.46-7.94-13.57-19.01-13.57-31.13,0-24.41,20.64-44.12,46.14-44.12h98.96c10.9,0,20.81-4.23,27.94-10.96,7.13-6.9,11.59-16.29,11.59-26.78,0-20.81-17.8-37.74-39.54-37.74H168.03c-13.1,0-24.99-5.04-33.57-13.28-8.64-8.12-13.91-19.48-13.91-31.94,0-25.1,21.22-45.33,47.48-45.33h632.34Z"/>
    <polygon points="668.43 908.64 536.14 1000 403.91 908.64 668.43 908.64"/>
    <path d="M388.9,798.32h-92.98c-3.48,0-6.78.29-10.03.87-1.56.29-3.13.58-4.64.99-57.16-70.09-88.4-150.84-88.4-233.39v-60.69h79.13v60.69c0,6.55.23,13.1.75,19.65v.17c.17,2.14.35,4.29.58,6.43.23,2.2.46,4.41.75,6.61.58,4.35,1.22,8.75,2.03,13.1.75,4.35,1.68,8.7,2.67,13.04.93,4.23,2.03,8.46,3.25,12.64,0,.12.06.17.06.29,16.52,57.85,52.93,112.35,106.84,159.59Z"/>
    <path d="M879.44,279.66v287.13c0,113.04-58.61,222.84-162.14,306.32-4.99,4-10.09,8-15.3,11.88h-138.49l17.22-11.88,58.09-40.17c104.17-71.88,161.56-166.37,161.56-266.14v-207.94H271.97v9.16h-79.13v-88.35h686.6Z"/>
    <path d="M272.79,586.44c.17,2.2.35,4.41.52,6.61-.23-2.14-.41-4.29-.58-6.43,0-.06.06-.12.06-.17Z"/>
    <path d="M282.12,638.67c-.06-.06-.12-.17-.12-.23-1.22-4.17-2.32-8.41-3.25-12.64.99,4.29,2.14,8.58,3.36,12.87Z"/>
  </g>
  <path d="M522.08,0c-142.73,0-263.6,100.54-301.89,237.9h80.42c34.81-94.34,120.94-161.32,221.47-161.32s186.66,66.98,221.47,161.32h80.42C785.67,100.54,664.8,0,522.08,0Z"/>
</svg>