<?xml version="1.0" encoding="UTF-8"?>
<svg id="Design" xmlns="http://www.w3.org/2000/svg" viewBox="0 0 250 250">
  <defs>
    <style>
      .cls-1 {
        fill: #003049;
      }

      .cls-2 {
        fill: #f77f00;
      }
    </style>
  </defs>
  <g>
    <path class="cls-2" d="M200.09,97.94v43.75c0,24.94-14.35,48.56-40.39,66.54l-14.52,10.04-4.3,2.97h-66.9c-2.28,0-4.33-.88-5.83-2.32-1.48-1.42-2.41-3.38-2.41-5.55,0-3.88,2.93-7.09,6.77-7.74.48-.09.99-.13,1.46-.13h72.87c2,0,3.81-.78,5.12-2.01,1.32-1.28,2.13-3,2.13-4.91,0-3.83-3.25-6.91-7.25-6.91h-27.03c-2.38,0-4.51-.91-6.06-2.39-1.55-1.48-2.52-3.54-2.52-5.78,0-4.51,3.84-8.17,8.58-8.17h22.42c2,0,3.81-.77,5.12-2.04,1.32-1.23,2.13-2.97,2.13-4.87,0-3.84-3.25-6.93-7.25-6.93h-57.04c-3.19,0-6.06-1.22-8.14-3.22-2.12-1.99-3.39-4.75-3.39-7.78,0-6.1,5.16-11.03,11.54-11.03h24.74c2.72,0,5.2-1.06,6.99-2.74,1.78-1.72,2.9-4.07,2.9-6.7,0-5.2-4.45-9.43-9.88-9.43H42.01c-3.28,0-6.25-1.26-8.39-3.32-2.16-2.03-3.48-4.87-3.48-7.99,0-6.28,5.3-11.33,11.87-11.33h158.08Z"/>
    <polygon class="cls-1" points="167.11 227.16 134.04 250 100.98 227.16 167.11 227.16"/>
    <path class="cls-1" d="M97.22,199.58h-23.25c-.87,0-1.7.07-2.51.22-.39.07-.78.14-1.16.25-14.29-17.52-22.1-37.71-22.1-58.35v-15.17h19.78v15.17c0,1.64.06,3.28.19,4.91v.04c.04.54.09,1.07.14,1.61.06.55.12,1.1.19,1.65.14,1.09.3,2.19.51,3.28.19,1.09.42,2.17.67,3.26.23,1.06.51,2.12.81,3.16,0,.03.01.04.01.07,4.13,14.46,13.23,28.09,26.71,39.9Z"/>
    <path class="cls-1" d="M219.86,69.92v71.78c0,28.26-14.65,55.71-40.54,76.58-1.25,1-2.52,2-3.83,2.97h-34.62l4.3-2.97,14.52-10.04c26.04-17.97,40.39-41.59,40.39-66.54v-51.98H67.99v2.29h-19.78v-22.09h171.65Z"/>
    <path class="cls-1" d="M68.2,146.61c.04.55.09,1.1.13,1.65-.06-.54-.1-1.07-.14-1.61,0-.01.01-.03.01-.04Z"/>
    <path class="cls-1" d="M70.53,159.67s-.03-.04-.03-.06c-.3-1.04-.58-2.1-.81-3.16.25,1.07.54,2.14.84,3.22Z"/>
  </g>
  <path class="cls-2" d="M130.52,0c-35.68,0-65.9,25.13-75.47,59.48h20.1c8.7-23.59,30.23-40.33,55.37-40.33s46.67,16.74,55.37,40.33h20.1C196.42,25.13,166.2,0,130.52,0Z"/>
</svg>