<?xml version="1.0" encoding="UTF-8"?>
<svg id="Design" xmlns="http://www.w3.org/2000/svg" viewBox="0 0 1200 682">
  <defs>
    <style>
      .cls-1 {
        fill: #003049;
      }

      .cls-2 {
        fill: #f77f00;
      }
    </style>
  </defs>
  <g>
    <path class="cls-2" d="M804.85,267.19v119.36c0,68.04-39.14,132.48-110.19,181.51l-39.61,27.4-11.74,8.1h-182.5c-6.21,0-11.82-2.41-15.89-6.33-4.03-3.87-6.56-9.21-6.56-15.14,0-10.6,7.99-19.33,18.46-21.11,1.3-.24,2.69-.36,3.99-.36h198.79c5.46,0,10.4-2.13,13.96-5.5,3.6-3.48,5.81-8.18,5.81-13.4,0-10.44-8.86-18.86-19.77-18.86h-73.73c-6.48,0-12.3-2.49-16.53-6.52-4.23-4.03-6.88-9.65-6.88-15.77,0-12.3,10.48-22.3,23.41-22.3h61.16c5.46,0,10.4-2.1,13.96-5.57,3.6-3.36,5.81-8.1,5.81-13.28,0-10.48-8.86-18.9-19.77-18.9h-155.61c-8.7,0-16.53-3.32-22.22-8.78-5.77-5.42-9.25-12.97-9.25-21.23,0-16.64,14.07-30.09,31.47-30.09h67.49c7.43,0,14.19-2.89,19.06-7.47,4.86-4.7,7.91-11.11,7.91-18.27,0-14.19-12.14-25.74-26.96-25.74h-185.3c-8.94,0-17.04-3.44-22.89-9.05-5.89-5.53-9.49-13.28-9.49-21.78,0-17.12,14.47-30.92,32.38-30.92h431.26Z"/>
    <polygon class="cls-1" points="714.87 619.69 624.65 682 534.47 619.69 714.87 619.69"/>
    <path class="cls-1" d="M524.23,544.46h-63.42c-2.37,0-4.63.2-6.84.59-1.07.2-2.13.4-3.16.67-38.98-47.8-60.29-102.87-60.29-159.17v-41.39h53.97v41.39c0,4.47.16,8.94.51,13.4v.12c.12,1.46.24,2.93.4,4.39.16,1.5.32,3,.51,4.51.4,2.97.83,5.97,1.38,8.94.51,2.97,1.15,5.93,1.82,8.9.63,2.89,1.38,5.77,2.21,8.62,0,.08.04.12.04.2,11.27,39.46,36.1,76.62,72.86,108.84Z"/>
    <path class="cls-1" d="M858.78,190.73v195.82c0,77.09-39.97,151.98-110.58,208.91-3.4,2.73-6.88,5.46-10.44,8.1h-94.45l11.74-8.1,39.61-27.4c71.05-49.02,110.19-113.47,110.19-181.51v-141.81h-360.37v6.25h-53.97v-60.25h468.26Z"/>
    <path class="cls-1" d="M445.04,399.95c.12,1.5.24,3,.36,4.51-.16-1.46-.28-2.93-.4-4.39,0-.04.04-.08.04-.12Z"/>
    <path class="cls-1" d="M451.41,435.57s-.08-.12-.08-.16c-.83-2.85-1.58-5.73-2.21-8.62.67,2.93,1.46,5.85,2.29,8.78Z"/>
  </g>
  <path class="cls-2" d="M615.06,0c-97.34,0-179.77,68.57-205.89,162.25h54.84c23.74-64.34,82.48-110.02,151.04-110.02s127.3,45.68,151.04,110.02h54.84C794.83,68.57,712.4,0,615.06,0Z"/>
</svg>