<?xml version="1.0" encoding="UTF-8"?>
<svg id="Design" xmlns="http://www.w3.org/2000/svg" viewBox="0 0 1280 1024">
  <defs>
    <style>
      .cls-1 {
        fill: #003049;
      }

      .cls-2 {
        fill: #f77f00;
      }
    </style>
  </defs>
  <g>
    <path class="cls-2" d="M947.58,401.18v179.21c0,102.16-58.77,198.92-165.44,272.53l-59.48,41.14-17.63,12.17h-274.01c-9.32,0-17.75-3.62-23.86-9.5-6.05-5.82-9.85-13.83-9.85-22.74,0-15.91,11.99-29.03,27.72-31.7,1.96-.36,4.04-.53,6-.53h298.47c8.19,0,15.61-3.21,20.95-8.25,5.4-5.22,8.73-12.29,8.73-20.12,0-15.67-13.3-28.32-29.68-28.32h-110.71c-9.74,0-18.46-3.74-24.81-9.79-6.35-6.05-10.33-14.48-10.33-23.69,0-18.46,15.73-33.48,35.14-33.48h91.83c8.19,0,15.61-3.15,20.95-8.37,5.4-5.05,8.73-12.17,8.73-19.95,0-15.73-13.3-28.37-29.68-28.37h-233.65c-13.06,0-24.81-4.99-33.36-13.18-8.67-8.13-13.89-19.47-13.89-31.88,0-24.99,21.13-45.17,47.25-45.17h101.33c11.16,0,21.31-4.33,28.61-11.22,7.3-7.06,11.87-16.68,11.87-27.43,0-21.31-18.22-38.64-40.48-38.64h-278.23c-13.42,0-25.58-5.16-34.37-13.59-8.84-8.31-14.25-19.95-14.25-32.71,0-25.7,21.73-46.42,48.62-46.42h647.52Z"/>
    <polygon class="cls-1" points="812.48 930.45 677.01 1024 541.61 930.45 812.48 930.45"/>
    <path class="cls-1" d="M526.23,817.48h-95.22c-3.56,0-6.95.3-10.27.89-1.6.3-3.21.59-4.75,1.01-58.53-71.77-90.53-154.46-90.53-238.99v-62.15h81.03v62.15c0,6.71.24,13.42.77,20.12v.18c.18,2.2.36,4.39.59,6.59.24,2.26.47,4.51.77,6.77.59,4.45,1.25,8.96,2.08,13.42.77,4.45,1.72,8.9,2.73,13.36.95,4.33,2.08,8.67,3.32,12.94,0,.12.06.18.06.3,16.92,59.24,54.2,115.04,109.4,163.42Z"/>
    <path class="cls-1" d="M1028.55,286.37v294.02c0,115.76-60.01,228.19-166.03,313.67-5.11,4.1-10.33,8.19-15.67,12.17h-141.81l17.63-12.17,59.48-41.14c106.67-73.61,165.44-170.37,165.44-272.53v-212.93H406.5v9.38h-81.03v-90.47h703.08Z"/>
    <path class="cls-1" d="M407.33,600.51c.18,2.26.36,4.51.53,6.77-.24-2.2-.42-4.39-.59-6.59,0-.06.06-.12.06-.18Z"/>
    <path class="cls-1" d="M416.89,654c-.06-.06-.12-.18-.12-.24-1.25-4.27-2.37-8.61-3.32-12.94,1.01,4.39,2.2,8.79,3.44,13.18Z"/>
  </g>
  <path class="cls-2" d="M662.61,0c-146.15,0-269.92,102.95-309.13,243.61h82.35c35.65-96.6,123.84-165.19,226.79-165.19s191.14,68.59,226.79,165.19h82.35C932.53,102.95,808.76,0,662.61,0Z"/>
</svg>